<svg width="360" height="466" viewBox="0 0 360 466" fill="none" xmlns="http://www.w3.org/2000/svg">
<g filter="url(#filter0_d_629_237)">
<rect x="88.5" y="63.5" width="44" height="31" rx="7.5" fill="#F7FFF5"/>
<rect x="88.5" y="63.5" width="44" height="31" rx="7.5" stroke="#1E757B"/>
<path d="M103.495 78.7224L102.246 78.8587C102.21 78.7325 102.149 78.6139 102.06 78.5028C101.974 78.3918 101.858 78.3022 101.712 78.234C101.566 78.1659 101.386 78.1318 101.174 78.1318C100.889 78.1318 100.649 78.1937 100.455 78.3173C100.263 78.441 100.169 78.6012 100.171 78.7981C100.169 78.9672 100.231 79.1047 100.357 79.2107C100.485 79.3167 100.697 79.4038 100.993 79.4719L101.984 79.6839C102.535 79.8025 102.943 79.9905 103.211 80.2479C103.481 80.5053 103.617 80.8423 103.62 81.2587C103.617 81.6246 103.51 81.9476 103.298 82.2278C103.089 82.5054 102.797 82.7224 102.424 82.8789C102.05 83.0353 101.621 83.1136 101.137 83.1136C100.425 83.1136 99.852 82.9647 99.4179 82.6669C98.9838 82.3666 98.7252 81.9489 98.6419 81.4139L99.9782 81.2852C100.039 81.5476 100.167 81.7457 100.364 81.8795C100.561 82.0132 100.817 82.0801 101.133 82.0801C101.458 82.0801 101.72 82.0132 101.916 81.8795C102.116 81.7457 102.215 81.5804 102.215 81.3836C102.215 81.217 102.151 81.0795 102.022 80.971C101.896 80.8624 101.699 80.7792 101.432 80.7211L100.44 80.5129C99.8823 80.3968 99.4697 80.2012 99.2021 79.9262C98.9346 79.6486 98.8021 79.2978 98.8047 78.8738C98.8021 78.5154 98.8993 78.205 99.0961 77.9426C99.2955 77.6776 99.5719 77.4732 99.9252 77.3293C100.281 77.1829 100.691 77.1097 101.155 77.1097C101.837 77.1097 102.373 77.2549 102.764 77.5451C103.158 77.8353 103.402 78.2277 103.495 78.7224ZM107.653 77.1855V78.2454H104.311V77.1855H107.653ZM105.136 75.7924H106.506V81.2511C106.506 81.4353 106.534 81.5766 106.59 81.6751C106.648 81.771 106.723 81.8366 106.817 81.8719C106.91 81.9072 107.014 81.9249 107.127 81.9249C107.213 81.9249 107.291 81.9186 107.362 81.906C107.435 81.8934 107.491 81.882 107.528 81.8719L107.759 82.9432C107.686 82.9685 107.581 82.9962 107.445 83.0265C107.311 83.0568 107.147 83.0744 106.953 83.0795C106.61 83.0896 106.301 83.0379 106.026 82.9243C105.75 82.8082 105.532 82.629 105.371 82.3867C105.212 82.1445 105.133 81.8416 105.136 81.4782V75.7924ZM110.473 83.1174C110.104 83.1174 109.772 83.0517 109.477 82.9205C109.184 82.7867 108.952 82.5899 108.78 82.33C108.611 82.07 108.527 81.7495 108.527 81.3684C108.527 81.0404 108.587 80.7691 108.709 80.5546C108.83 80.34 108.995 80.1684 109.204 80.0397C109.414 79.911 109.65 79.8139 109.912 79.7482C110.177 79.6801 110.451 79.6309 110.734 79.6006C111.074 79.5653 111.351 79.5337 111.563 79.506C111.775 79.4757 111.929 79.4303 112.025 79.3697C112.123 79.3066 112.172 79.2094 112.172 79.0782V79.0555C112.172 78.7703 112.088 78.5495 111.919 78.393C111.75 78.2366 111.506 78.1583 111.188 78.1583C110.852 78.1583 110.586 78.2315 110.389 78.3779C110.195 78.5243 110.064 78.6971 109.996 78.8965L108.716 78.7148C108.817 78.3615 108.984 78.0662 109.216 77.829C109.448 77.5892 109.732 77.4101 110.068 77.2914C110.403 77.1703 110.774 77.1097 111.18 77.1097C111.461 77.1097 111.739 77.1426 112.017 77.2082C112.295 77.2738 112.548 77.3823 112.778 77.5337C113.008 77.6826 113.192 77.8858 113.331 78.1432C113.472 78.4006 113.543 78.7224 113.543 79.1085V83H112.225V82.2013H112.18C112.097 82.3628 111.979 82.5142 111.828 82.6555C111.679 82.7943 111.491 82.9066 111.264 82.9924C111.039 83.0757 110.775 83.1174 110.473 83.1174ZM110.828 82.1104C111.103 82.1104 111.342 82.0561 111.544 81.9476C111.746 81.8366 111.901 81.6902 112.009 81.5085C112.121 81.3268 112.176 81.1287 112.176 80.9142V80.229C112.133 80.2643 112.06 80.2971 111.956 80.3274C111.856 80.3577 111.742 80.3842 111.616 80.4069C111.49 80.4296 111.365 80.4498 111.241 80.4675C111.117 80.4852 111.01 80.5003 110.919 80.5129C110.715 80.5407 110.532 80.5861 110.37 80.6492C110.209 80.7123 110.081 80.8006 109.988 80.9142C109.895 81.0252 109.848 81.1691 109.848 81.3457C109.848 81.5981 109.94 81.7886 110.124 81.9173C110.309 82.0461 110.543 82.1104 110.828 82.1104ZM114.921 83V77.1855H116.249V78.1545H116.31C116.416 77.8189 116.598 77.5602 116.855 77.3785C117.115 77.1943 117.411 77.1022 117.745 77.1022C117.82 77.1022 117.905 77.106 117.998 77.1135C118.094 77.1186 118.174 77.1274 118.237 77.14V78.4006C118.179 78.3804 118.086 78.3627 117.96 78.3476C117.837 78.3299 117.717 78.3211 117.601 78.3211C117.351 78.3211 117.126 78.3754 116.927 78.4839C116.73 78.5899 116.575 78.7375 116.461 78.9268C116.348 79.1161 116.291 79.3344 116.291 79.5817V83H114.921ZM122.363 77.1855V78.2454H119.02V77.1855H122.363ZM119.845 75.7924H121.216V81.2511C121.216 81.4353 121.244 81.5766 121.299 81.6751C121.357 81.771 121.433 81.8366 121.526 81.8719C121.62 81.9072 121.723 81.9249 121.837 81.9249C121.922 81.9249 122.001 81.9186 122.071 81.906C122.145 81.8934 122.2 81.882 122.238 81.8719L122.469 82.9432C122.396 82.9685 122.291 82.9962 122.155 83.0265C122.021 83.0568 121.857 83.0744 121.663 83.0795C121.319 83.0896 121.01 83.0379 120.735 82.9243C120.46 82.8082 120.242 82.629 120.08 82.3867C119.921 82.1445 119.843 81.8416 119.845 81.4782V75.7924Z" fill="#1E757B"/>
<rect x="78.5" y="201.5" width="65" height="31" rx="7.5" fill="#F7FFF5"/>
<rect x="78.5" y="201.5" width="65" height="31" rx="7.5" stroke="#1E757B"/>
<path d="M90.3865 221.117C90.018 221.117 89.6862 221.052 89.3909 220.921C89.0981 220.787 88.866 220.59 88.6943 220.33C88.5253 220.07 88.4407 219.75 88.4407 219.368C88.4407 219.04 88.5013 218.769 88.6224 218.555C88.7436 218.34 88.9089 218.168 89.1183 218.04C89.3278 217.911 89.5638 217.814 89.8262 217.748C90.0912 217.68 90.365 217.631 90.6477 217.601C90.9884 217.565 91.2647 217.534 91.4767 217.506C91.6887 217.476 91.8426 217.43 91.9385 217.37C92.037 217.307 92.0862 217.209 92.0862 217.078V217.055C92.0862 216.77 92.0016 216.55 91.8325 216.393C91.6635 216.237 91.4199 216.158 91.1019 216.158C90.7663 216.158 90.5 216.232 90.3032 216.378C90.1089 216.524 89.9776 216.697 89.9095 216.897L88.63 216.715C88.7309 216.361 88.8975 216.066 89.1297 215.829C89.3619 215.589 89.6458 215.41 89.9814 215.291C90.3171 215.17 90.6881 215.11 91.0944 215.11C91.3745 215.11 91.6534 215.143 91.931 215.208C92.2086 215.274 92.4622 215.382 92.6918 215.534C92.9215 215.683 93.1057 215.886 93.2445 216.143C93.3859 216.401 93.4565 216.722 93.4565 217.108V221H92.1392V220.201H92.0937C92.0105 220.363 91.8931 220.514 91.7417 220.656C91.5928 220.794 91.4048 220.907 91.1776 220.992C90.953 221.076 90.6893 221.117 90.3865 221.117ZM90.7423 220.11C91.0174 220.11 91.2559 220.056 91.4578 219.948C91.6597 219.837 91.8149 219.69 91.9234 219.509C92.0344 219.327 92.09 219.129 92.09 218.914V218.229C92.047 218.264 91.9739 218.297 91.8704 218.327C91.7694 218.358 91.6559 218.384 91.5297 218.407C91.4035 218.43 91.2786 218.45 91.1549 218.467C91.0313 218.485 90.924 218.5 90.8332 218.513C90.6287 218.541 90.4458 218.586 90.2843 218.649C90.1227 218.712 89.9953 218.801 89.9019 218.914C89.8086 219.025 89.7619 219.169 89.7619 219.346C89.7619 219.598 89.854 219.789 90.0382 219.917C90.2224 220.046 90.4571 220.11 90.7423 220.11ZM97.3707 221.114C96.7903 221.114 96.2919 220.986 95.8755 220.731C95.4616 220.476 95.1423 220.124 94.9177 219.675C94.6956 219.223 94.5846 218.703 94.5846 218.115C94.5846 217.525 94.6982 217.004 94.9253 216.552C95.1524 216.098 95.4729 215.744 95.8868 215.492C96.3032 215.237 96.7953 215.11 97.3632 215.11C97.8351 215.11 98.2528 215.197 98.6162 215.371C98.9821 215.543 99.2736 215.786 99.4906 216.102C99.7077 216.414 99.8313 216.78 99.8616 217.199H98.5518C98.4988 216.919 98.3726 216.686 98.1733 216.499C97.9764 216.31 97.7127 216.215 97.3821 216.215C97.102 216.215 96.8559 216.291 96.6439 216.442C96.4319 216.591 96.2666 216.806 96.148 217.086C96.0319 217.366 95.9739 217.702 95.9739 218.093C95.9739 218.489 96.0319 218.83 96.148 219.115C96.2641 219.397 96.4269 219.616 96.6364 219.77C96.8483 219.921 97.0969 219.997 97.3821 219.997C97.584 219.997 97.7644 219.959 97.9234 219.883C98.0849 219.805 98.22 219.693 98.3285 219.546C98.437 219.4 98.5114 219.222 98.5518 219.013H99.8616C99.8288 219.424 99.7077 219.789 99.4982 220.107C99.2887 220.422 99.0036 220.669 98.6427 220.849C98.2818 221.025 97.8578 221.114 97.3707 221.114ZM103.89 215.185V216.245H100.548V215.185H103.89ZM101.373 213.792H102.743V219.251C102.743 219.435 102.771 219.577 102.827 219.675C102.885 219.771 102.96 219.837 103.054 219.872C103.147 219.907 103.251 219.925 103.364 219.925C103.45 219.925 103.528 219.919 103.599 219.906C103.672 219.893 103.728 219.882 103.765 219.872L103.996 220.943C103.923 220.968 103.818 220.996 103.682 221.026C103.548 221.057 103.384 221.074 103.19 221.079C102.847 221.09 102.538 221.038 102.263 220.924C101.987 220.808 101.769 220.629 101.608 220.387C101.449 220.144 101.37 219.842 101.373 219.478V213.792ZM105.036 221V215.185H106.407V221H105.036ZM105.725 214.36C105.508 214.36 105.322 214.288 105.165 214.144C105.009 213.998 104.93 213.823 104.93 213.618C104.93 213.411 105.009 213.236 105.165 213.092C105.322 212.946 105.508 212.873 105.725 212.873C105.945 212.873 106.132 212.946 106.286 213.092C106.442 213.236 106.52 213.411 106.52 213.618C106.52 213.823 106.442 213.998 106.286 214.144C106.132 214.288 105.945 214.36 105.725 214.36ZM113.01 215.185L110.939 221H109.425L107.354 215.185H108.815L110.152 219.505H110.212L111.552 215.185H113.01ZM113.958 221V215.185H115.328V221H113.958ZM114.647 214.36C114.43 214.36 114.243 214.288 114.087 214.144C113.93 213.998 113.852 213.823 113.852 213.618C113.852 213.411 113.93 213.236 114.087 213.092C114.243 212.946 114.43 212.873 114.647 212.873C114.866 212.873 115.053 212.946 115.207 213.092C115.364 213.236 115.442 213.411 115.442 213.618C115.442 213.823 115.364 213.998 115.207 214.144C115.053 214.288 114.866 214.36 114.647 214.36ZM119.641 215.185V216.245H116.298V215.185H119.641ZM117.124 213.792H118.494V219.251C118.494 219.435 118.522 219.577 118.577 219.675C118.635 219.771 118.711 219.837 118.804 219.872C118.898 219.907 119.001 219.925 119.115 219.925C119.201 219.925 119.279 219.919 119.349 219.906C119.423 219.893 119.478 219.882 119.516 219.872L119.747 220.943C119.674 220.968 119.569 220.996 119.433 221.026C119.299 221.057 119.135 221.074 118.941 221.079C118.597 221.09 118.288 221.038 118.013 220.924C117.738 220.808 117.52 220.629 117.358 220.387C117.199 220.144 117.121 219.842 117.124 219.478V213.792ZM121.639 223.18C121.452 223.18 121.279 223.165 121.12 223.135C120.964 223.107 120.839 223.074 120.745 223.037L121.063 221.969C121.263 222.027 121.441 222.055 121.597 222.052C121.754 222.05 121.891 222.001 122.01 221.905C122.131 221.811 122.233 221.655 122.316 221.435L122.434 221.121L120.325 215.185H121.779L123.119 219.577H123.179L124.523 215.185H125.981L123.653 221.704C123.544 222.012 123.4 222.276 123.221 222.495C123.042 222.717 122.822 222.886 122.562 223.003C122.305 223.121 121.997 223.18 121.639 223.18ZM132.711 213.247V221H131.307V214.614H131.261L129.448 215.772V214.485L131.375 213.247H132.711Z" fill="#1E757B"/>
<rect x="180.5" y="285.5" width="67" height="31" rx="7.5" fill="#F7FFF5"/>
<rect x="180.5" y="285.5" width="67" height="31" rx="7.5" stroke="#1E757B"/>
<path d="M192.476 305.117C192.107 305.117 191.775 305.052 191.48 304.921C191.187 304.787 190.955 304.59 190.783 304.33C190.614 304.07 190.53 303.75 190.53 303.368C190.53 303.04 190.59 302.769 190.712 302.555C190.833 302.34 190.998 302.168 191.207 302.04C191.417 301.911 191.653 301.814 191.915 301.748C192.18 301.68 192.454 301.631 192.737 301.601C193.077 301.565 193.354 301.534 193.566 301.506C193.778 301.476 193.932 301.43 194.028 301.37C194.126 301.307 194.175 301.209 194.175 301.078V301.055C194.175 300.77 194.091 300.55 193.922 300.393C193.753 300.237 193.509 300.158 193.191 300.158C192.855 300.158 192.589 300.232 192.392 300.378C192.198 300.524 192.067 300.697 191.999 300.897L190.719 300.715C190.82 300.361 190.987 300.066 191.219 299.829C191.451 299.589 191.735 299.41 192.071 299.291C192.406 299.17 192.777 299.11 193.183 299.11C193.464 299.11 193.742 299.143 194.02 299.208C194.298 299.274 194.551 299.382 194.781 299.534C195.011 299.683 195.195 299.886 195.334 300.143C195.475 300.401 195.546 300.722 195.546 301.108V305H194.228V304.201H194.183C194.1 304.363 193.982 304.514 193.831 304.656C193.682 304.794 193.494 304.907 193.267 304.992C193.042 305.076 192.778 305.117 192.476 305.117ZM192.831 304.11C193.107 304.11 193.345 304.056 193.547 303.948C193.749 303.837 193.904 303.69 194.013 303.509C194.124 303.327 194.179 303.129 194.179 302.914V302.229C194.136 302.264 194.063 302.297 193.96 302.327C193.859 302.358 193.745 302.384 193.619 302.407C193.493 302.43 193.368 302.45 193.244 302.467C193.12 302.485 193.013 302.5 192.922 302.513C192.718 302.541 192.535 302.586 192.373 302.649C192.212 302.712 192.084 302.801 191.991 302.914C191.898 303.025 191.851 303.169 191.851 303.346C191.851 303.598 191.943 303.789 192.127 303.917C192.312 304.046 192.546 304.11 192.831 304.11ZM199.46 305.114C198.879 305.114 198.381 304.986 197.965 304.731C197.551 304.476 197.231 304.124 197.007 303.675C196.785 303.223 196.674 302.703 196.674 302.115C196.674 301.525 196.787 301.004 197.014 300.552C197.242 300.098 197.562 299.744 197.976 299.492C198.392 299.237 198.884 299.11 199.452 299.11C199.924 299.11 200.342 299.197 200.705 299.371C201.071 299.543 201.363 299.786 201.58 300.102C201.797 300.414 201.92 300.78 201.951 301.199H200.641C200.588 300.919 200.462 300.686 200.262 300.499C200.066 300.31 199.802 300.215 199.471 300.215C199.191 300.215 198.945 300.291 198.733 300.442C198.521 300.591 198.356 300.806 198.237 301.086C198.121 301.366 198.063 301.702 198.063 302.093C198.063 302.489 198.121 302.83 198.237 303.115C198.353 303.397 198.516 303.616 198.725 303.77C198.937 303.921 199.186 303.997 199.471 303.997C199.673 303.997 199.854 303.959 200.013 303.883C200.174 303.805 200.309 303.693 200.418 303.546C200.526 303.4 200.601 303.222 200.641 303.013H201.951C201.918 303.424 201.797 303.789 201.587 304.107C201.378 304.422 201.093 304.669 200.732 304.849C200.371 305.025 199.947 305.114 199.46 305.114ZM205.979 299.185V300.245H202.637V299.185H205.979ZM203.462 297.792H204.832V303.251C204.832 303.435 204.86 303.577 204.916 303.675C204.974 303.771 205.049 303.837 205.143 303.872C205.236 303.907 205.34 303.925 205.453 303.925C205.539 303.925 205.617 303.919 205.688 303.906C205.761 303.893 205.817 303.882 205.855 303.872L206.085 304.943C206.012 304.968 205.908 304.996 205.771 305.026C205.637 305.057 205.473 305.074 205.279 305.079C204.936 305.09 204.627 305.038 204.352 304.924C204.077 304.808 203.858 304.629 203.697 304.387C203.538 304.144 203.46 303.842 203.462 303.478V297.792ZM207.126 305V299.185H208.496V305H207.126ZM207.814 298.36C207.597 298.36 207.411 298.288 207.254 298.144C207.098 297.998 207.02 297.823 207.02 297.618C207.02 297.411 207.098 297.236 207.254 297.092C207.411 296.946 207.597 296.873 207.814 296.873C208.034 296.873 208.221 296.946 208.375 297.092C208.531 297.236 208.609 297.411 208.609 297.618C208.609 297.823 208.531 297.998 208.375 298.144C208.221 298.288 208.034 298.36 207.814 298.36ZM215.099 299.185L213.028 305H211.514L209.443 299.185H210.904L212.241 303.505H212.301L213.641 299.185H215.099ZM216.047 305V299.185H217.417V305H216.047ZM216.736 298.36C216.519 298.36 216.332 298.288 216.176 298.144C216.019 297.998 215.941 297.823 215.941 297.618C215.941 297.411 216.019 297.236 216.176 297.092C216.332 296.946 216.519 296.873 216.736 296.873C216.956 296.873 217.142 296.946 217.296 297.092C217.453 297.236 217.531 297.411 217.531 297.618C217.531 297.823 217.453 297.998 217.296 298.144C217.142 298.288 216.956 298.36 216.736 298.36ZM221.73 299.185V300.245H218.387V299.185H221.73ZM219.213 297.792H220.583V303.251C220.583 303.435 220.611 303.577 220.666 303.675C220.724 303.771 220.8 303.837 220.893 303.872C220.987 303.907 221.09 303.925 221.204 303.925C221.29 303.925 221.368 303.919 221.439 303.906C221.512 303.893 221.567 303.882 221.605 303.872L221.836 304.943C221.763 304.968 221.658 304.996 221.522 305.026C221.388 305.057 221.224 305.074 221.03 305.079C220.686 305.09 220.377 305.038 220.102 304.924C219.827 304.808 219.609 304.629 219.447 304.387C219.288 304.144 219.21 303.842 219.213 303.478V297.792ZM223.728 307.18C223.541 307.18 223.368 307.165 223.209 307.135C223.053 307.107 222.928 307.074 222.834 307.037L223.152 305.969C223.352 306.027 223.53 306.055 223.686 306.052C223.843 306.05 223.98 306.001 224.099 305.905C224.22 305.811 224.322 305.655 224.405 305.435L224.523 305.121L222.414 299.185H223.868L225.208 303.577H225.269L226.612 299.185H228.07L225.742 305.704C225.633 306.012 225.489 306.276 225.31 306.495C225.131 306.717 224.911 306.886 224.651 307.003C224.394 307.121 224.086 307.18 223.728 307.18ZM234.429 305.106C233.884 305.106 233.4 305.013 232.976 304.826C232.554 304.639 232.221 304.379 231.976 304.046C231.732 303.713 231.602 303.328 231.587 302.891H233.01C233.023 303.101 233.092 303.284 233.218 303.44C233.344 303.594 233.512 303.714 233.722 303.8C233.931 303.886 234.166 303.929 234.426 303.929C234.703 303.929 234.949 303.881 235.164 303.785C235.378 303.686 235.546 303.55 235.667 303.376C235.788 303.202 235.848 303.001 235.845 302.774C235.848 302.539 235.787 302.332 235.664 302.153C235.54 301.974 235.361 301.834 235.126 301.733C234.894 301.632 234.614 301.582 234.286 301.582H233.6V300.499H234.286C234.556 300.499 234.792 300.452 234.994 300.359C235.198 300.266 235.358 300.134 235.474 299.965C235.59 299.794 235.647 299.596 235.645 299.371C235.647 299.151 235.598 298.961 235.497 298.799C235.399 298.635 235.258 298.508 235.077 298.417C234.898 298.326 234.687 298.281 234.445 298.281C234.207 298.281 233.988 298.324 233.786 298.409C233.584 298.495 233.421 298.618 233.298 298.777C233.174 298.933 233.108 299.12 233.101 299.337H231.749C231.759 298.903 231.884 298.522 232.124 298.194C232.366 297.863 232.689 297.606 233.093 297.421C233.497 297.235 233.95 297.141 234.452 297.141C234.97 297.141 235.419 297.238 235.8 297.433C236.183 297.625 236.48 297.883 236.689 298.209C236.899 298.534 237.004 298.894 237.004 299.288C237.006 299.724 236.877 300.09 236.617 300.385C236.36 300.681 236.022 300.874 235.603 300.965V301.025C236.148 301.101 236.566 301.303 236.856 301.631C237.149 301.956 237.294 302.361 237.291 302.846C237.291 303.28 237.168 303.669 236.92 304.012C236.676 304.353 236.337 304.62 235.906 304.815C235.477 305.009 234.985 305.106 234.429 305.106Z" fill="#1E757B"/>
<rect x="180.5" y="133.5" width="67" height="31" rx="7.5" fill="#F7FFF5"/>
<rect x="180.5" y="133.5" width="67" height="31" rx="7.5" stroke="#1E757B"/>
<path d="M192.574 153.117C192.206 153.117 191.874 153.052 191.579 152.921C191.286 152.787 191.054 152.59 190.882 152.33C190.713 152.07 190.629 151.75 190.629 151.368C190.629 151.04 190.689 150.769 190.81 150.555C190.932 150.34 191.097 150.168 191.306 150.04C191.516 149.911 191.752 149.814 192.014 149.748C192.279 149.68 192.553 149.631 192.836 149.601C193.176 149.565 193.453 149.534 193.665 149.506C193.877 149.476 194.031 149.43 194.127 149.37C194.225 149.307 194.274 149.209 194.274 149.078V149.055C194.274 148.77 194.19 148.55 194.021 148.393C193.851 148.237 193.608 148.158 193.29 148.158C192.954 148.158 192.688 148.232 192.491 148.378C192.297 148.524 192.166 148.697 192.098 148.897L190.818 148.715C190.919 148.361 191.086 148.066 191.318 147.829C191.55 147.589 191.834 147.41 192.169 147.291C192.505 147.17 192.876 147.11 193.282 147.11C193.562 147.11 193.841 147.143 194.119 147.208C194.397 147.274 194.65 147.382 194.88 147.534C195.11 147.683 195.294 147.886 195.433 148.143C195.574 148.401 195.645 148.722 195.645 149.108V153H194.327V152.201H194.282C194.198 152.363 194.081 152.514 193.93 152.656C193.781 152.794 193.593 152.907 193.366 152.992C193.141 153.076 192.877 153.117 192.574 153.117ZM192.93 152.11C193.205 152.11 193.444 152.056 193.646 151.948C193.848 151.837 194.003 151.69 194.111 151.509C194.222 151.327 194.278 151.129 194.278 150.914V150.229C194.235 150.264 194.162 150.297 194.058 150.327C193.957 150.358 193.844 150.384 193.718 150.407C193.592 150.43 193.467 150.45 193.343 150.467C193.219 150.485 193.112 150.5 193.021 150.513C192.817 150.541 192.634 150.586 192.472 150.649C192.311 150.712 192.183 150.801 192.09 150.914C191.997 151.025 191.95 151.169 191.95 151.346C191.95 151.598 192.042 151.789 192.226 151.917C192.41 152.046 192.645 152.11 192.93 152.11ZM199.559 153.114C198.978 153.114 198.48 152.986 198.063 152.731C197.65 152.476 197.33 152.124 197.106 151.675C196.884 151.223 196.773 150.703 196.773 150.115C196.773 149.525 196.886 149.004 197.113 148.552C197.34 148.098 197.661 147.744 198.075 147.492C198.491 147.237 198.983 147.11 199.551 147.11C200.023 147.11 200.441 147.197 200.804 147.371C201.17 147.543 201.462 147.786 201.679 148.102C201.896 148.414 202.019 148.78 202.05 149.199H200.74C200.687 148.919 200.561 148.686 200.361 148.499C200.164 148.31 199.901 148.215 199.57 148.215C199.29 148.215 199.044 148.291 198.832 148.442C198.62 148.591 198.455 148.806 198.336 149.086C198.22 149.366 198.162 149.702 198.162 150.093C198.162 150.489 198.22 150.83 198.336 151.115C198.452 151.397 198.615 151.616 198.824 151.77C199.036 151.921 199.285 151.997 199.57 151.997C199.772 151.997 199.952 151.959 200.111 151.883C200.273 151.805 200.408 151.693 200.516 151.546C200.625 151.4 200.699 151.222 200.74 151.013H202.05C202.017 151.424 201.896 151.789 201.686 152.107C201.477 152.422 201.192 152.669 200.831 152.849C200.47 153.025 200.046 153.114 199.559 153.114ZM206.078 147.185V148.245H202.736V147.185H206.078ZM203.561 145.792H204.931V151.251C204.931 151.435 204.959 151.577 205.015 151.675C205.073 151.771 205.148 151.837 205.242 151.872C205.335 151.907 205.439 151.925 205.552 151.925C205.638 151.925 205.716 151.919 205.787 151.906C205.86 151.893 205.916 151.882 205.953 151.872L206.184 152.943C206.111 152.968 206.006 152.996 205.87 153.026C205.736 153.057 205.572 153.074 205.378 153.079C205.035 153.09 204.726 153.038 204.451 152.924C204.175 152.808 203.957 152.629 203.796 152.387C203.637 152.144 203.558 151.842 203.561 151.478V145.792ZM207.224 153V147.185H208.595V153H207.224ZM207.913 146.36C207.696 146.36 207.51 146.288 207.353 146.144C207.197 145.998 207.118 145.823 207.118 145.618C207.118 145.411 207.197 145.236 207.353 145.092C207.51 144.946 207.696 144.873 207.913 144.873C208.133 144.873 208.32 144.946 208.474 145.092C208.63 145.236 208.708 145.411 208.708 145.618C208.708 145.823 208.63 145.998 208.474 146.144C208.32 146.288 208.133 146.36 207.913 146.36ZM215.198 147.185L213.127 153H211.613L209.542 147.185H211.003L212.34 151.505H212.4L213.74 147.185H215.198ZM216.146 153V147.185H217.516V153H216.146ZM216.835 146.36C216.618 146.36 216.431 146.288 216.275 146.144C216.118 145.998 216.04 145.823 216.04 145.618C216.04 145.411 216.118 145.236 216.275 145.092C216.431 144.946 216.618 144.873 216.835 144.873C217.054 144.873 217.241 144.946 217.395 145.092C217.552 145.236 217.63 145.411 217.63 145.618C217.63 145.823 217.552 145.998 217.395 146.144C217.241 146.288 217.054 146.36 216.835 146.36ZM221.829 147.185V148.245H218.486V147.185H221.829ZM219.312 145.792H220.682V151.251C220.682 151.435 220.71 151.577 220.765 151.675C220.823 151.771 220.899 151.837 220.992 151.872C221.086 151.907 221.189 151.925 221.303 151.925C221.389 151.925 221.467 151.919 221.537 151.906C221.611 151.893 221.666 151.882 221.704 151.872L221.935 152.943C221.862 152.968 221.757 152.996 221.621 153.026C221.487 153.057 221.323 153.074 221.129 153.079C220.785 153.09 220.476 153.038 220.201 152.924C219.926 152.808 219.708 152.629 219.546 152.387C219.387 152.144 219.309 151.842 219.312 151.478V145.792ZM223.827 155.18C223.64 155.18 223.467 155.165 223.308 155.135C223.152 155.107 223.027 155.074 222.933 155.037L223.251 153.969C223.451 154.027 223.629 154.055 223.785 154.052C223.942 154.05 224.079 154.001 224.198 153.905C224.319 153.811 224.421 153.655 224.504 153.435L224.622 153.121L222.513 147.185H223.967L225.307 151.577H225.367L226.711 147.185H228.169L225.841 153.704C225.732 154.012 225.588 154.276 225.409 154.495C225.23 154.717 225.01 154.886 224.75 155.003C224.493 155.121 224.185 155.18 223.827 155.18ZM234.441 153.106C233.937 153.106 233.485 153.011 233.086 152.822C232.687 152.63 232.371 152.368 232.136 152.035C231.904 151.702 231.78 151.32 231.765 150.891H233.128C233.153 151.209 233.29 151.469 233.54 151.671C233.79 151.871 234.09 151.97 234.441 151.97C234.716 151.97 234.961 151.907 235.176 151.781C235.39 151.655 235.559 151.479 235.683 151.255C235.807 151.03 235.867 150.774 235.865 150.486C235.867 150.194 235.805 149.934 235.679 149.707C235.553 149.479 235.38 149.302 235.161 149.173C234.941 149.042 234.689 148.976 234.403 148.976C234.171 148.973 233.943 149.016 233.718 149.105C233.494 149.193 233.316 149.309 233.184 149.453L231.916 149.245L232.321 145.247H236.819V146.421H233.484L233.26 148.476H233.306C233.449 148.307 233.653 148.167 233.915 148.056C234.178 147.943 234.465 147.886 234.778 147.886C235.248 147.886 235.667 147.997 236.035 148.219C236.403 148.438 236.694 148.741 236.906 149.127C237.118 149.514 237.224 149.955 237.224 150.452C237.224 150.965 237.105 151.421 236.868 151.823C236.633 152.221 236.306 152.536 235.887 152.765C235.471 152.992 234.989 153.106 234.441 153.106Z" fill="#1E757B"/>
<rect x="270.5" y="201.5" width="67" height="31" rx="7.5" fill="#F7FFF5"/>
<rect x="270.5" y="201.5" width="67" height="31" rx="7.5" stroke="#1E757B"/>
<path d="M282.491 221.117C282.123 221.117 281.791 221.052 281.496 220.921C281.203 220.787 280.971 220.59 280.799 220.33C280.63 220.07 280.545 219.75 280.545 219.368C280.545 219.04 280.606 218.769 280.727 218.555C280.848 218.34 281.014 218.168 281.223 218.04C281.433 217.911 281.668 217.814 281.931 217.748C282.196 217.68 282.47 217.631 282.752 217.601C283.093 217.565 283.369 217.534 283.581 217.506C283.793 217.476 283.947 217.43 284.043 217.37C284.142 217.307 284.191 217.209 284.191 217.078V217.055C284.191 216.77 284.106 216.55 283.937 216.393C283.768 216.237 283.525 216.158 283.207 216.158C282.871 216.158 282.605 216.232 282.408 216.378C282.214 216.524 282.082 216.697 282.014 216.897L280.735 216.715C280.836 216.361 281.002 216.066 281.234 215.829C281.467 215.589 281.751 215.41 282.086 215.291C282.422 215.17 282.793 215.11 283.199 215.11C283.479 215.11 283.758 215.143 284.036 215.208C284.313 215.274 284.567 215.382 284.797 215.534C285.026 215.683 285.21 215.886 285.349 216.143C285.491 216.401 285.561 216.722 285.561 217.108V221H284.244V220.201H284.198C284.115 220.363 283.998 220.514 283.846 220.656C283.698 220.794 283.51 220.907 283.282 220.992C283.058 221.076 282.794 221.117 282.491 221.117ZM282.847 220.11C283.122 220.11 283.361 220.056 283.562 219.948C283.764 219.837 283.92 219.69 284.028 219.509C284.139 219.327 284.195 219.129 284.195 218.914V218.229C284.152 218.264 284.079 218.297 283.975 218.327C283.874 218.358 283.761 218.384 283.634 218.407C283.508 218.43 283.383 218.45 283.26 218.467C283.136 218.485 283.029 218.5 282.938 218.513C282.733 218.541 282.551 218.586 282.389 218.649C282.227 218.712 282.1 218.801 282.007 218.914C281.913 219.025 281.867 219.169 281.867 219.346C281.867 219.598 281.959 219.789 282.143 219.917C282.327 220.046 282.562 220.11 282.847 220.11ZM289.475 221.114C288.895 221.114 288.397 220.986 287.98 220.731C287.566 220.476 287.247 220.124 287.022 219.675C286.8 219.223 286.689 218.703 286.689 218.115C286.689 217.525 286.803 217.004 287.03 216.552C287.257 216.098 287.578 215.744 287.992 215.492C288.408 215.237 288.9 215.11 289.468 215.11C289.94 215.11 290.357 215.197 290.721 215.371C291.087 215.543 291.378 215.786 291.595 216.102C291.812 216.414 291.936 216.78 291.966 217.199H290.657C290.604 216.919 290.477 216.686 290.278 216.499C290.081 216.31 289.817 216.215 289.487 216.215C289.207 216.215 288.961 216.291 288.749 216.442C288.537 216.591 288.371 216.806 288.253 217.086C288.137 217.366 288.079 217.702 288.079 218.093C288.079 218.489 288.137 218.83 288.253 219.115C288.369 219.397 288.532 219.616 288.741 219.77C288.953 219.921 289.202 219.997 289.487 219.997C289.689 219.997 289.869 219.959 290.028 219.883C290.19 219.805 290.325 219.693 290.433 219.546C290.542 219.4 290.616 219.222 290.657 219.013H291.966C291.934 219.424 291.812 219.789 291.603 220.107C291.393 220.422 291.108 220.669 290.747 220.849C290.387 221.025 289.963 221.114 289.475 221.114ZM295.995 215.185V216.245H292.652V215.185H295.995ZM293.478 213.792H294.848V219.251C294.848 219.435 294.876 219.577 294.931 219.675C294.989 219.771 295.065 219.837 295.158 219.872C295.252 219.907 295.355 219.925 295.469 219.925C295.555 219.925 295.633 219.919 295.704 219.906C295.777 219.893 295.832 219.882 295.87 219.872L296.101 220.943C296.028 220.968 295.923 220.996 295.787 221.026C295.653 221.057 295.489 221.074 295.295 221.079C294.952 221.09 294.642 221.038 294.367 220.924C294.092 220.808 293.874 220.629 293.712 220.387C293.553 220.144 293.475 219.842 293.478 219.478V213.792ZM297.141 221V215.185H298.511V221H297.141ZM297.83 214.36C297.613 214.36 297.426 214.288 297.27 214.144C297.113 213.998 297.035 213.823 297.035 213.618C297.035 213.411 297.113 213.236 297.27 213.092C297.426 212.946 297.613 212.873 297.83 212.873C298.05 212.873 298.236 212.946 298.39 213.092C298.547 213.236 298.625 213.411 298.625 213.618C298.625 213.823 298.547 213.998 298.39 214.144C298.236 214.288 298.05 214.36 297.83 214.36ZM305.114 215.185L303.044 221H301.529L299.459 215.185H300.92L302.256 219.505H302.317L303.657 215.185H305.114ZM306.063 221V215.185H307.433V221H306.063ZM306.752 214.36C306.535 214.36 306.348 214.288 306.191 214.144C306.035 213.998 305.957 213.823 305.957 213.618C305.957 213.411 306.035 213.236 306.191 213.092C306.348 212.946 306.535 212.873 306.752 212.873C306.971 212.873 307.158 212.946 307.312 213.092C307.468 213.236 307.547 213.411 307.547 213.618C307.547 213.823 307.468 213.998 307.312 214.144C307.158 214.288 306.971 214.36 306.752 214.36ZM311.746 215.185V216.245H308.403V215.185H311.746ZM309.228 213.792H310.599V219.251C310.599 219.435 310.626 219.577 310.682 219.675C310.74 219.771 310.816 219.837 310.909 219.872C311.002 219.907 311.106 219.925 311.219 219.925C311.305 219.925 311.383 219.919 311.454 219.906C311.527 219.893 311.583 219.882 311.621 219.872L311.852 220.943C311.778 220.968 311.674 220.996 311.537 221.026C311.404 221.057 311.24 221.074 311.045 221.079C310.702 221.09 310.393 221.038 310.118 220.924C309.843 220.808 309.624 220.629 309.463 220.387C309.304 220.144 309.226 219.842 309.228 219.478V213.792ZM313.743 223.18C313.557 223.18 313.384 223.165 313.225 223.135C313.068 223.107 312.943 223.074 312.85 223.037L313.168 221.969C313.367 222.027 313.545 222.055 313.702 222.052C313.858 222.05 313.996 222.001 314.114 221.905C314.236 221.811 314.338 221.655 314.421 221.435L314.538 221.121L312.43 215.185H313.884L315.224 219.577H315.284L316.628 215.185H318.085L315.757 221.704C315.649 222.012 315.505 222.276 315.326 222.495C315.147 222.717 314.927 222.886 314.667 223.003C314.41 223.121 314.102 223.18 313.743 223.18ZM324.502 221.106C324.131 221.103 323.769 221.039 323.415 220.913C323.062 220.784 322.744 220.576 322.461 220.288C322.179 219.998 321.954 219.613 321.788 219.134C321.621 218.652 321.539 218.055 321.542 217.343C321.542 216.679 321.612 216.088 321.754 215.568C321.895 215.048 322.098 214.609 322.363 214.25C322.628 213.89 322.947 213.614 323.321 213.425C323.697 213.236 324.117 213.141 324.581 213.141C325.068 213.141 325.5 213.237 325.876 213.429C326.255 213.621 326.56 213.883 326.792 214.216C327.024 214.547 327.168 214.92 327.224 215.337H325.842C325.771 215.039 325.626 214.802 325.407 214.625C325.19 214.446 324.914 214.356 324.581 214.356C324.044 214.356 323.63 214.59 323.34 215.057C323.052 215.524 322.907 216.165 322.904 216.98H322.957C323.081 216.758 323.241 216.567 323.438 216.408C323.635 216.249 323.857 216.127 324.104 216.041C324.354 215.953 324.618 215.908 324.896 215.908C325.35 215.908 325.757 216.017 326.118 216.234C326.482 216.451 326.769 216.75 326.981 217.131C327.193 217.51 327.298 217.944 327.296 218.433C327.298 218.943 327.182 219.401 326.947 219.808C326.713 220.211 326.386 220.529 325.967 220.762C325.548 220.994 325.06 221.109 324.502 221.106ZM324.494 219.97C324.769 219.97 325.015 219.903 325.232 219.77C325.449 219.636 325.621 219.456 325.747 219.228C325.873 219.001 325.935 218.746 325.933 218.464C325.935 218.186 325.875 217.935 325.751 217.71C325.63 217.486 325.462 217.308 325.248 217.177C325.033 217.045 324.788 216.98 324.513 216.98C324.309 216.98 324.118 217.019 323.942 217.097C323.765 217.175 323.611 217.284 323.48 217.423C323.349 217.559 323.245 217.718 323.169 217.9C323.096 218.079 323.058 218.271 323.056 218.475C323.058 218.745 323.121 218.994 323.245 219.221C323.369 219.448 323.539 219.63 323.756 219.766C323.973 219.902 324.219 219.97 324.494 219.97Z" fill="#1E757B"/>
<rect x="78.5" y="367.5" width="67" height="31" rx="7.5" fill="#F7FFF5"/>
<rect x="78.5" y="367.5" width="67" height="31" rx="7.5" stroke="#1E757B"/>
<path d="M90.6369 387.117C90.2685 387.117 89.9366 387.052 89.6414 386.921C89.3486 386.787 89.1164 386.59 88.9448 386.33C88.7757 386.07 88.6912 385.75 88.6912 385.368C88.6912 385.04 88.7518 384.769 88.8729 384.555C88.994 384.34 89.1593 384.168 89.3688 384.04C89.5783 383.911 89.8142 383.814 90.0767 383.748C90.3417 383.68 90.6155 383.631 90.8981 383.601C91.2388 383.565 91.5152 383.534 91.7272 383.506C91.9392 383.476 92.0931 383.43 92.189 383.37C92.2874 383.307 92.3366 383.209 92.3366 383.078V383.055C92.3366 382.77 92.2521 382.55 92.083 382.393C91.9139 382.237 91.6704 382.158 91.3524 382.158C91.0168 382.158 90.7505 382.232 90.5537 382.378C90.3593 382.524 90.2281 382.697 90.16 382.897L88.8805 382.715C88.9814 382.361 89.148 382.066 89.3802 381.829C89.6123 381.589 89.8962 381.41 90.2319 381.291C90.5675 381.17 90.9385 381.11 91.3448 381.11C91.625 381.11 91.9038 381.143 92.1814 381.208C92.459 381.274 92.7127 381.382 92.9423 381.534C93.172 381.683 93.3562 381.886 93.495 382.143C93.6363 382.401 93.707 382.722 93.707 383.108V387H92.3896V386.201H92.3442C92.2609 386.363 92.1436 386.514 91.9922 386.656C91.8433 386.794 91.6552 386.907 91.4281 386.992C91.2035 387.076 90.9398 387.117 90.6369 387.117ZM90.9928 386.11C91.2679 386.11 91.5063 386.056 91.7082 385.948C91.9101 385.837 92.0653 385.69 92.1739 385.509C92.2849 385.327 92.3404 385.129 92.3404 384.914V384.229C92.2975 384.264 92.2243 384.297 92.1209 384.327C92.0199 384.358 91.9063 384.384 91.7802 384.407C91.654 384.43 91.5291 384.45 91.4054 384.467C91.2817 384.485 91.1745 384.5 91.0836 384.513C90.8792 384.541 90.6962 384.586 90.5347 384.649C90.3732 384.712 90.2458 384.801 90.1524 384.914C90.059 385.025 90.0123 385.169 90.0123 385.346C90.0123 385.598 90.1044 385.789 90.2887 385.917C90.4729 386.046 90.7076 386.11 90.9928 386.11ZM97.6212 387.114C97.0408 387.114 96.5423 386.986 96.1259 386.731C95.712 386.476 95.3928 386.124 95.1682 385.675C94.9461 385.223 94.8351 384.703 94.8351 384.115C94.8351 383.525 94.9486 383.004 95.1758 382.552C95.4029 382.098 95.7234 381.744 96.1373 381.492C96.5537 381.237 97.0458 381.11 97.6136 381.11C98.0856 381.11 98.5032 381.197 98.8666 381.371C99.2326 381.543 99.5241 381.786 99.7411 382.102C99.9581 382.414 100.082 382.78 100.112 383.199H98.8023C98.7493 382.919 98.6231 382.686 98.4237 382.499C98.2269 382.31 97.9632 382.215 97.6326 382.215C97.3524 382.215 97.1064 382.291 96.8944 382.442C96.6824 382.591 96.5171 382.806 96.3985 383.086C96.2824 383.366 96.2244 383.702 96.2244 384.093C96.2244 384.489 96.2824 384.83 96.3985 385.115C96.5146 385.397 96.6774 385.616 96.8868 385.77C97.0988 385.921 97.3474 385.997 97.6326 385.997C97.8345 385.997 98.0149 385.959 98.1739 385.883C98.3354 385.805 98.4704 385.693 98.5789 385.546C98.6875 385.4 98.7619 385.222 98.8023 385.013H100.112C100.079 385.424 99.9581 385.789 99.7487 386.107C99.5392 386.422 99.254 386.669 98.8931 386.849C98.5323 387.025 98.1083 387.114 97.6212 387.114ZM104.141 381.185V382.245H100.798V381.185H104.141ZM101.623 379.792H102.994V385.251C102.994 385.435 103.022 385.577 103.077 385.675C103.135 385.771 103.211 385.837 103.304 385.872C103.398 385.907 103.501 385.925 103.615 385.925C103.7 385.925 103.779 385.919 103.849 385.906C103.923 385.893 103.978 385.882 104.016 385.872L104.247 386.943C104.174 386.968 104.069 386.996 103.933 387.026C103.799 387.057 103.635 387.074 103.44 387.079C103.097 387.09 102.788 387.038 102.513 386.924C102.238 386.808 102.02 386.629 101.858 386.387C101.699 386.144 101.621 385.842 101.623 385.478V379.792ZM105.287 387V381.185H106.657V387H105.287ZM105.976 380.36C105.759 380.36 105.572 380.288 105.416 380.144C105.259 379.998 105.181 379.823 105.181 379.618C105.181 379.411 105.259 379.236 105.416 379.092C105.572 378.946 105.759 378.873 105.976 378.873C106.195 378.873 106.382 378.946 106.536 379.092C106.693 379.236 106.771 379.411 106.771 379.618C106.771 379.823 106.693 379.998 106.536 380.144C106.382 380.288 106.195 380.36 105.976 380.36ZM113.26 381.185L111.189 387H109.675L107.605 381.185H109.066L110.402 385.505H110.463L111.803 381.185H113.26ZM114.208 387V381.185H115.579V387H114.208ZM114.897 380.36C114.68 380.36 114.494 380.288 114.337 380.144C114.181 379.998 114.102 379.823 114.102 379.618C114.102 379.411 114.181 379.236 114.337 379.092C114.494 378.946 114.68 378.873 114.897 378.873C115.117 378.873 115.304 378.946 115.458 379.092C115.614 379.236 115.692 379.411 115.692 379.618C115.692 379.823 115.614 379.998 115.458 380.144C115.304 380.288 115.117 380.36 114.897 380.36ZM119.891 381.185V382.245H116.549V381.185H119.891ZM117.374 379.792H118.744V385.251C118.744 385.435 118.772 385.577 118.828 385.675C118.886 385.771 118.961 385.837 119.055 385.872C119.148 385.907 119.252 385.925 119.365 385.925C119.451 385.925 119.529 385.919 119.6 385.906C119.673 385.893 119.729 385.882 119.766 385.872L119.997 386.943C119.924 386.968 119.819 386.996 119.683 387.026C119.549 387.057 119.385 387.074 119.191 387.079C118.848 387.09 118.539 387.038 118.264 386.924C117.989 386.808 117.77 386.629 117.609 386.387C117.45 386.144 117.371 385.842 117.374 385.478V379.792ZM121.889 389.18C121.702 389.18 121.53 389.165 121.371 389.135C121.214 389.107 121.089 389.074 120.996 389.037L121.314 387.969C121.513 388.027 121.691 388.055 121.848 388.052C122.004 388.05 122.142 388.001 122.26 387.905C122.381 387.811 122.484 387.655 122.567 387.435L122.684 387.121L120.576 381.185H122.029L123.369 385.577H123.43L124.774 381.185H126.231L123.903 387.704C123.795 388.012 123.651 388.276 123.472 388.495C123.292 388.717 123.073 388.886 122.813 389.003C122.555 389.121 122.248 389.18 121.889 389.18ZM129.808 387V385.985L132.5 383.347C132.757 383.087 132.972 382.856 133.144 382.654C133.315 382.452 133.444 382.257 133.53 382.067C133.615 381.878 133.658 381.676 133.658 381.462C133.658 381.217 133.603 381.008 133.492 380.833C133.381 380.657 133.228 380.52 133.034 380.425C132.839 380.329 132.619 380.281 132.371 380.281C132.116 380.281 131.893 380.334 131.701 380.44C131.509 380.543 131.361 380.691 131.255 380.883C131.151 381.074 131.099 381.303 131.099 381.568H129.763C129.763 381.076 129.875 380.648 130.1 380.285C130.325 379.921 130.634 379.64 131.027 379.44C131.424 379.241 131.878 379.141 132.39 379.141C132.91 379.141 133.367 379.238 133.761 379.433C134.154 379.627 134.46 379.893 134.677 380.232C134.896 380.57 135.006 380.956 135.006 381.39C135.006 381.68 134.95 381.965 134.839 382.245C134.728 382.526 134.533 382.836 134.253 383.177C133.975 383.517 133.585 383.93 133.083 384.414L131.747 385.773V385.826H135.123V387H129.808Z" fill="#1E757B"/>
<rect x="180.5" y="367.5" width="67" height="31" rx="7.5" fill="#F7FFF5"/>
<rect x="180.5" y="367.5" width="67" height="31" rx="7.5" stroke="#1E757B"/>
<path d="M192.398 387.117C192.029 387.117 191.697 387.052 191.402 386.921C191.109 386.787 190.877 386.59 190.705 386.33C190.536 386.07 190.452 385.75 190.452 385.368C190.452 385.04 190.512 384.769 190.633 384.555C190.755 384.34 190.92 384.168 191.129 384.04C191.339 383.911 191.575 383.814 191.837 383.748C192.102 383.68 192.376 383.631 192.659 383.601C192.999 383.565 193.276 383.534 193.488 383.506C193.7 383.476 193.854 383.43 193.95 383.37C194.048 383.307 194.097 383.209 194.097 383.078V383.055C194.097 382.77 194.013 382.55 193.844 382.393C193.674 382.237 193.431 382.158 193.113 382.158C192.777 382.158 192.511 382.232 192.314 382.378C192.12 382.524 191.989 382.697 191.921 382.897L190.641 382.715C190.742 382.361 190.909 382.066 191.141 381.829C191.373 381.589 191.657 381.41 191.992 381.291C192.328 381.17 192.699 381.11 193.105 381.11C193.386 381.11 193.664 381.143 193.942 381.208C194.22 381.274 194.473 381.382 194.703 381.534C194.933 381.683 195.117 381.886 195.256 382.143C195.397 382.401 195.468 382.722 195.468 383.108V387H194.15V386.201H194.105C194.021 386.363 193.904 386.514 193.753 386.656C193.604 386.794 193.416 386.907 193.189 386.992C192.964 387.076 192.7 387.117 192.398 387.117ZM192.753 386.11C193.028 386.11 193.267 386.056 193.469 385.948C193.671 385.837 193.826 385.69 193.934 385.509C194.045 385.327 194.101 385.129 194.101 384.914V384.229C194.058 384.264 193.985 384.297 193.881 384.327C193.78 384.358 193.667 384.384 193.541 384.407C193.415 384.43 193.29 384.45 193.166 384.467C193.042 384.485 192.935 384.5 192.844 384.513C192.64 384.541 192.457 384.586 192.295 384.649C192.134 384.712 192.006 384.801 191.913 384.914C191.82 385.025 191.773 385.169 191.773 385.346C191.773 385.598 191.865 385.789 192.049 385.917C192.233 386.046 192.468 386.11 192.753 386.11ZM199.382 387.114C198.801 387.114 198.303 386.986 197.886 386.731C197.473 386.476 197.153 386.124 196.929 385.675C196.707 385.223 196.596 384.703 196.596 384.115C196.596 383.525 196.709 383.004 196.936 382.552C197.163 382.098 197.484 381.744 197.898 381.492C198.314 381.237 198.806 381.11 199.374 381.11C199.846 381.11 200.264 381.197 200.627 381.371C200.993 381.543 201.285 381.786 201.502 382.102C201.719 382.414 201.842 382.78 201.873 383.199H200.563C200.51 382.919 200.384 382.686 200.184 382.499C199.987 382.31 199.724 382.215 199.393 382.215C199.113 382.215 198.867 382.291 198.655 382.442C198.443 382.591 198.278 382.806 198.159 383.086C198.043 383.366 197.985 383.702 197.985 384.093C197.985 384.489 198.043 384.83 198.159 385.115C198.275 385.397 198.438 385.616 198.647 385.77C198.859 385.921 199.108 385.997 199.393 385.997C199.595 385.997 199.775 385.959 199.934 385.883C200.096 385.805 200.231 385.693 200.34 385.546C200.448 385.4 200.522 385.222 200.563 385.013H201.873C201.84 385.424 201.719 385.789 201.509 386.107C201.3 386.422 201.015 386.669 200.654 386.849C200.293 387.025 199.869 387.114 199.382 387.114ZM205.901 381.185V382.245H202.559V381.185H205.901ZM203.384 379.792H204.754V385.251C204.754 385.435 204.782 385.577 204.838 385.675C204.896 385.771 204.971 385.837 205.065 385.872C205.158 385.907 205.262 385.925 205.375 385.925C205.461 385.925 205.539 385.919 205.61 385.906C205.683 385.893 205.739 385.882 205.776 385.872L206.007 386.943C205.934 386.968 205.829 386.996 205.693 387.026C205.559 387.057 205.395 387.074 205.201 387.079C204.858 387.09 204.549 387.038 204.274 386.924C203.999 386.808 203.78 386.629 203.619 386.387C203.46 386.144 203.381 385.842 203.384 385.478V379.792ZM207.047 387V381.185H208.418V387H207.047ZM207.736 380.36C207.519 380.36 207.333 380.288 207.176 380.144C207.02 379.998 206.941 379.823 206.941 379.618C206.941 379.411 207.02 379.236 207.176 379.092C207.333 378.946 207.519 378.873 207.736 378.873C207.956 378.873 208.143 378.946 208.297 379.092C208.453 379.236 208.531 379.411 208.531 379.618C208.531 379.823 208.453 379.998 208.297 380.144C208.143 380.288 207.956 380.36 207.736 380.36ZM215.021 381.185L212.95 387H211.436L209.365 381.185H210.826L212.163 385.505H212.223L213.563 381.185H215.021ZM215.969 387V381.185H217.339V387H215.969ZM216.658 380.36C216.441 380.36 216.254 380.288 216.098 380.144C215.941 379.998 215.863 379.823 215.863 379.618C215.863 379.411 215.941 379.236 216.098 379.092C216.254 378.946 216.441 378.873 216.658 378.873C216.877 378.873 217.064 378.946 217.218 379.092C217.375 379.236 217.453 379.411 217.453 379.618C217.453 379.823 217.375 379.998 217.218 380.144C217.064 380.288 216.877 380.36 216.658 380.36ZM221.652 381.185V382.245H218.309V381.185H221.652ZM219.135 379.792H220.505V385.251C220.505 385.435 220.533 385.577 220.588 385.675C220.646 385.771 220.722 385.837 220.815 385.872C220.909 385.907 221.012 385.925 221.126 385.925C221.212 385.925 221.29 385.919 221.36 385.906C221.434 385.893 221.489 385.882 221.527 385.872L221.758 386.943C221.685 386.968 221.58 386.996 221.444 387.026C221.31 387.057 221.146 387.074 220.952 387.079C220.608 387.09 220.299 387.038 220.024 386.924C219.749 386.808 219.531 386.629 219.369 386.387C219.21 386.144 219.132 385.842 219.135 385.478V379.792ZM223.65 389.18C223.463 389.18 223.29 389.165 223.131 389.135C222.975 389.107 222.85 389.074 222.756 389.037L223.074 387.969C223.274 388.027 223.452 388.055 223.608 388.052C223.765 388.05 223.902 388.001 224.021 387.905C224.142 387.811 224.244 387.655 224.327 387.435L224.445 387.121L222.336 381.185H223.79L225.13 385.577H225.19L226.534 381.185H227.992L225.664 387.704C225.555 388.012 225.411 388.276 225.232 388.495C225.053 388.717 224.833 388.886 224.573 389.003C224.316 389.121 224.008 389.18 223.65 389.18ZM231.429 385.562V384.445L234.719 379.247H235.65V380.837H235.082L232.867 384.346V384.407H237.459V385.562H231.429ZM235.127 387V385.221L235.143 384.721V379.247H236.467V387H235.127Z" fill="#1E757B"/>
<rect x="94.7071" y="147.971" width="23" height="23" rx="1.5" transform="rotate(-45 94.7071 147.971)" fill="#F7FFF5" stroke="#1E757B"/>
<rect x="94.7071" y="299.971" width="23" height="23" rx="1.5" transform="rotate(-45 94.7071 299.971)" fill="#F7FFF5" stroke="#1E757B"/>
<circle cx="109.5" cy="19.5" r="7.5" fill="#1E757B"/>
<circle cx="303.5" cy="383.5" r="7.5" fill="#1E757B"/>
<circle cx="304" cy="383" r="11" stroke="#1E757B" stroke-width="2"/>
<path d="M109.646 63.3536C109.842 63.5488 110.158 63.5488 110.354 63.3536L113.536 60.1716C113.731 59.9763 113.731 59.6597 113.536 59.4645C113.34 59.2692 113.024 59.2692 112.828 59.4645L110 62.2929L107.172 59.4645C106.976 59.2692 106.66 59.2692 106.464 59.4645C106.269 59.6597 106.269 59.9763 106.464 60.1716L109.646 63.3536ZM109.5 27V63H110.5V27H109.5Z" fill="#1E757B"/>
<path d="M110.646 131.354C110.842 131.549 111.158 131.549 111.354 131.354L114.536 128.172C114.731 127.976 114.731 127.66 114.536 127.464C114.34 127.269 114.024 127.269 113.828 127.464L111 130.293L108.172 127.464C107.976 127.269 107.66 127.269 107.464 127.464C107.269 127.66 107.269 127.976 107.464 128.172L110.646 131.354ZM110.5 95V131H111.5V95H110.5Z" fill="#1E757B"/>
<path d="M180.358 147.854C180.553 147.658 180.553 147.342 180.358 147.146L177.176 143.964C176.981 143.769 176.664 143.769 176.469 143.964C176.274 144.16 176.274 144.476 176.469 144.672L179.298 147.5L176.469 150.328C176.274 150.524 176.274 150.84 176.469 151.036C176.664 151.231 176.981 151.231 177.176 151.036L180.358 147.854ZM126.995 148H180.005V147H126.995V148Z" fill="#1E757B"/>
<path d="M180.363 300.354C180.558 300.158 180.558 299.842 180.363 299.646L177.181 296.464C176.986 296.269 176.669 296.269 176.474 296.464C176.279 296.66 176.279 296.976 176.474 297.172L179.302 300L176.474 302.828C176.279 303.024 176.279 303.34 176.474 303.536C176.669 303.731 176.986 303.731 177.181 303.536L180.363 300.354ZM127 300.5H180.009V299.5H127V300.5Z" fill="#1E757B"/>
<path d="M180.354 383.354C180.549 383.158 180.549 382.842 180.354 382.646L177.172 379.464C176.976 379.269 176.66 379.269 176.464 379.464C176.269 379.66 176.269 379.976 176.464 380.172L179.293 383L176.464 385.828C176.269 386.024 176.269 386.34 176.464 386.536C176.66 386.731 176.976 386.731 177.172 386.536L180.354 383.354ZM146 383.5H180V382.5H146V383.5Z" fill="#1E757B"/>
<path d="M291.354 383.354C291.549 383.158 291.549 382.842 291.354 382.646L288.172 379.464C287.976 379.269 287.66 379.269 287.464 379.464C287.269 379.66 287.269 379.976 287.464 380.172L290.293 383L287.464 385.828C287.269 386.024 287.269 386.34 287.464 386.536C287.66 386.731 287.976 386.731 288.172 386.536L291.354 383.354ZM248 383.5H291V382.5H248V383.5Z" fill="#1E757B"/>
<path d="M110.646 201.354C110.842 201.549 111.158 201.549 111.354 201.354L114.536 198.172C114.731 197.976 114.731 197.66 114.536 197.464C114.34 197.269 114.024 197.269 113.828 197.464L111 200.293L108.172 197.464C107.976 197.269 107.66 197.269 107.464 197.464C107.269 197.66 107.269 197.976 107.464 198.172L110.646 201.354ZM110.5 163V201H111.5V163H110.5Z" fill="#1E757B"/>
<path d="M110.646 283.354C110.842 283.549 111.158 283.549 111.354 283.354L114.536 280.172C114.731 279.976 114.731 279.66 114.536 279.464C114.34 279.269 114.024 279.269 113.828 279.464L111 282.293L108.172 279.464C107.976 279.269 107.66 279.269 107.464 279.464C107.269 279.66 107.269 279.976 107.464 280.172L110.646 283.354ZM110.5 233V283H111.5V233H110.5Z" fill="#1E757B"/>
<path d="M303.646 373.354C303.842 373.549 304.158 373.549 304.354 373.354L307.536 370.172C307.731 369.976 307.731 369.66 307.536 369.464C307.34 369.269 307.024 369.269 306.828 369.464L304 372.293L301.172 369.464C300.976 369.269 300.66 369.269 300.464 369.464C300.269 369.66 300.269 369.976 300.464 370.172L303.646 373.354ZM303.5 233V373H304.5V233H303.5Z" fill="#1E757B"/>
<path d="M110.646 367.354C110.842 367.549 111.158 367.549 111.354 367.354L114.536 364.172C114.731 363.976 114.731 363.66 114.536 363.464C114.34 363.269 114.024 363.269 113.828 363.464L111 366.293L108.172 363.464C107.976 363.269 107.66 363.269 107.464 363.464C107.269 363.66 107.269 363.976 107.464 364.172L110.646 367.354ZM110.5 317V367H111.5V317H110.5Z" fill="#1E757B"/>
<path fill-rule="evenodd" clip-rule="evenodd" d="M211.5 164.998L211.25 217.004C211.249 217.28 211.471 217.505 211.748 217.506C211.796 217.507 211.843 217.5 211.887 217.487C211.924 217.496 211.961 217.5 212 217.5H268.793L266.464 219.828C266.269 220.024 266.269 220.34 266.464 220.536C266.66 220.731 266.976 220.731 267.172 220.536L270.354 217.354C270.549 217.158 270.549 216.842 270.354 216.646L267.172 213.464C266.976 213.269 266.66 213.269 266.464 213.464C266.269 213.66 266.269 213.976 266.464 214.172L268.793 216.5H212.252L212.5 165.002L211.5 164.998Z" fill="#1E757B"/>
</g>
<defs>
<filter id="filter0_d_629_237" x="-4" y="0" width="368" height="474" filterUnits="userSpaceOnUse" color-interpolation-filters="sRGB">
<feFlood flood-opacity="0" result="BackgroundImageFix"/>
<feColorMatrix in="SourceAlpha" type="matrix" values="0 0 0 0 0 0 0 0 0 0 0 0 0 0 0 0 0 0 127 0" result="hardAlpha"/>
<feOffset dy="4"/>
<feGaussianBlur stdDeviation="2"/>
<feComposite in2="hardAlpha" operator="out"/>
<feColorMatrix type="matrix" values="0 0 0 0 0 0 0 0 0 0 0 0 0 0 0 0 0 0 0.25 0"/>
<feBlend mode="normal" in2="BackgroundImageFix" result="effect1_dropShadow_629_237"/>
<feBlend mode="normal" in="SourceGraphic" in2="effect1_dropShadow_629_237" result="shape"/>
</filter>
</defs>
</svg>
