<svg width="439" height="150" viewBox="0 0 439 150" fill="none" xmlns="http://www.w3.org/2000/svg">
<rect x="0.5" y="59.5" width="44" height="31" rx="7.5" fill="#F7FFF5"/>
<rect x="0.5" y="59.5" width="44" height="31" rx="7.5" stroke="#1E757B"/>
<path d="M15.4949 74.7224L14.2457 74.8587C14.2104 74.7325 14.1485 74.6139 14.0602 74.5028C13.9744 74.3918 13.8583 74.3022 13.7119 74.234C13.5656 74.1659 13.3864 74.1318 13.1744 74.1318C12.8892 74.1318 12.6495 74.1937 12.4551 74.3173C12.2633 74.441 12.1687 74.6012 12.1712 74.7981C12.1687 74.9672 12.2305 75.1047 12.3567 75.2107C12.4854 75.3167 12.6974 75.4038 12.9927 75.4719L13.9845 75.6839C14.5347 75.8025 14.9435 75.9905 15.211 76.2479C15.481 76.5053 15.6173 76.8423 15.6198 77.2587C15.6173 77.6246 15.5101 77.9476 15.2981 78.2278C15.0886 78.5054 14.7971 78.7224 14.4236 78.8789C14.0501 79.0353 13.6211 79.1136 13.1365 79.1136C12.4249 79.1136 11.852 78.9647 11.4179 78.6669C10.9838 78.3666 10.7252 77.9489 10.6419 77.4139L11.9782 77.2852C12.0387 77.5476 12.1674 77.7457 12.3643 77.8795C12.5611 78.0132 12.8173 78.0801 13.1328 78.0801C13.4583 78.0801 13.7195 78.0132 13.9164 77.8795C14.1157 77.7457 14.2154 77.5804 14.2154 77.3836C14.2154 77.217 14.1511 77.0795 14.0223 76.971C13.8962 76.8624 13.6993 76.7792 13.4318 76.7211L12.44 76.5129C11.8823 76.3968 11.4697 76.2012 11.2021 75.9262C10.9346 75.6486 10.8021 75.2978 10.8047 74.8738C10.8021 74.5154 10.8993 74.205 11.0961 73.9426C11.2955 73.6776 11.5719 73.4732 11.9252 73.3293C12.281 73.1829 12.6911 73.1097 13.1555 73.1097C13.8369 73.1097 14.3731 73.2549 14.7643 73.5451C15.158 73.8353 15.4015 74.2277 15.4949 74.7224ZM19.6533 73.1855V74.2454H16.3107V73.1855H19.6533ZM17.1359 71.7924H18.5063V77.2511C18.5063 77.4353 18.534 77.5766 18.5896 77.6751C18.6476 77.771 18.7233 77.8366 18.8167 77.8719C18.9101 77.9072 19.0135 77.9249 19.1271 77.9249C19.2129 77.9249 19.2911 77.9186 19.3618 77.906C19.435 77.8934 19.4905 77.882 19.5284 77.8719L19.7593 78.9432C19.6861 78.9685 19.5814 78.9962 19.4451 79.0265C19.3113 79.0568 19.1473 79.0744 18.953 79.0795C18.6098 79.0896 18.3006 79.0379 18.0255 78.9243C17.7504 78.8082 17.5321 78.629 17.3706 78.3867C17.2116 78.1445 17.1334 77.8416 17.1359 77.4782V71.7924ZM22.4726 79.1174C22.1041 79.1174 21.7722 79.0517 21.477 78.9205C21.1842 78.7867 20.952 78.5899 20.7804 78.33C20.6113 78.07 20.5268 77.7495 20.5268 77.3684C20.5268 77.0404 20.5874 76.7691 20.7085 76.5546C20.8296 76.34 20.9949 76.1684 21.2044 76.0397C21.4139 75.911 21.6498 75.8139 21.9123 75.7482C22.1773 75.6801 22.4511 75.6309 22.7338 75.6006C23.0745 75.5653 23.3508 75.5337 23.5628 75.506C23.7748 75.4757 23.9287 75.4303 24.0246 75.3697C24.123 75.3066 24.1723 75.2094 24.1723 75.0782V75.0555C24.1723 74.7703 24.0877 74.5495 23.9186 74.393C23.7495 74.2366 23.506 74.1583 23.188 74.1583C22.8524 74.1583 22.5861 74.2315 22.3893 74.3779C22.195 74.5243 22.0637 74.6971 21.9956 74.8965L20.7161 74.7148C20.817 74.3615 20.9836 74.0662 21.2158 73.829C21.4479 73.5892 21.7319 73.4101 22.0675 73.2914C22.4032 73.1703 22.7741 73.1097 23.1804 73.1097C23.4606 73.1097 23.7394 73.1426 24.017 73.2082C24.2946 73.2738 24.5483 73.3823 24.7779 73.5337C25.0076 73.6826 25.1918 73.8858 25.3306 74.1432C25.4719 74.4006 25.5426 74.7224 25.5426 75.1085V79H24.2252V78.2013H24.1798C24.0965 78.3628 23.9792 78.5142 23.8278 78.6555C23.6789 78.7943 23.4909 78.9066 23.2637 78.9924C23.0391 79.0757 22.7754 79.1174 22.4726 79.1174ZM22.8284 78.1104C23.1035 78.1104 23.342 78.0561 23.5439 77.9476C23.7457 77.8366 23.901 77.6902 24.0095 77.5085C24.1205 77.3268 24.176 77.1287 24.176 76.9142V76.229C24.1331 76.2643 24.0599 76.2971 23.9565 76.3274C23.8555 76.3577 23.742 76.3842 23.6158 76.4069C23.4896 76.4296 23.3647 76.4498 23.241 76.4675C23.1174 76.4852 23.0101 76.5003 22.9192 76.5129C22.7148 76.5407 22.5319 76.5861 22.3703 76.6492C22.2088 76.7123 22.0814 76.8006 21.988 76.9142C21.8946 77.0252 21.8479 77.1691 21.8479 77.3457C21.8479 77.5981 21.9401 77.7886 22.1243 77.9173C22.3085 78.0461 22.5432 78.1104 22.8284 78.1104ZM26.9205 79V73.1855H28.2492V74.1545H28.3098C28.4158 73.8189 28.5975 73.5602 28.8549 73.3785C29.1149 73.1943 29.4114 73.1022 29.7445 73.1022C29.8202 73.1022 29.9048 73.106 29.9982 73.1135C30.0941 73.1186 30.1735 73.1274 30.2366 73.14V74.4006C30.1786 74.3804 30.0865 74.3627 29.9603 74.3476C29.8366 74.3299 29.7168 74.3211 29.6007 74.3211C29.3508 74.3211 29.1262 74.3754 28.9269 74.4839C28.73 74.5899 28.5748 74.7375 28.4612 74.9268C28.3477 75.1161 28.2909 75.3344 28.2909 75.5817V79H26.9205ZM34.3628 73.1855V74.2454H31.0202V73.1855H34.3628ZM31.8455 71.7924H33.2158V77.2511C33.2158 77.4353 33.2436 77.5766 33.2991 77.6751C33.3572 77.771 33.4329 77.8366 33.5262 77.8719C33.6196 77.9072 33.7231 77.9249 33.8367 77.9249C33.9225 77.9249 34.0007 77.9186 34.0714 77.906C34.1445 77.8934 34.2001 77.882 34.2379 77.8719L34.4688 78.9432C34.3957 78.9685 34.2909 78.9962 34.1546 79.0265C34.0209 79.0568 33.8569 79.0744 33.6625 79.0795C33.3193 79.0896 33.0102 79.0379 32.7351 78.9243C32.46 78.8082 32.2417 78.629 32.0802 78.3867C31.9212 78.1445 31.843 77.8416 31.8455 77.4782V71.7924Z" fill="#1E757B"/>
<rect x="119.5" y="59.5" width="65" height="31" rx="7.5" fill="#F7FFF5"/>
<rect x="119.5" y="59.5" width="65" height="31" rx="7.5" stroke="#1E757B"/>
<path d="M132.609 79.1136C132.028 79.1136 131.53 78.9861 131.113 78.7312C130.7 78.4763 130.38 78.1243 130.156 77.6751C129.934 77.2233 129.823 76.7035 129.823 76.1154C129.823 75.5249 129.936 75.0038 130.163 74.552C130.39 74.0978 130.711 73.7444 131.125 73.4921C131.541 73.2372 132.033 73.1097 132.601 73.1097C133.073 73.1097 133.491 73.1968 133.854 73.3709C134.22 73.5426 134.512 73.7861 134.729 74.1015C134.946 74.4145 135.069 74.7804 135.1 75.1993H133.79C133.737 74.9192 133.611 74.6858 133.411 74.499C133.214 74.3098 132.951 74.2151 132.62 74.2151C132.34 74.2151 132.094 74.2908 131.882 74.4422C131.67 74.5911 131.505 74.8057 131.386 75.0858C131.27 75.3659 131.212 75.7016 131.212 76.0927C131.212 76.4889 131.27 76.8296 131.386 77.1148C131.502 77.3975 131.665 77.6158 131.874 77.7697C132.086 77.9211 132.335 77.9968 132.62 77.9968C132.822 77.9968 133.002 77.959 133.161 77.8833C133.323 77.805 133.458 77.6927 133.566 77.5464C133.675 77.4 133.749 77.2221 133.79 77.0126H135.1C135.067 77.424 134.946 77.7886 134.736 78.1066C134.527 78.4221 134.242 78.6694 133.881 78.8486C133.52 79.0252 133.096 79.1136 132.609 79.1136ZM138.761 79.1136C138.193 79.1136 137.701 78.9886 137.285 78.7388C136.868 78.489 136.545 78.1394 136.316 77.6902C136.089 77.241 135.975 76.7161 135.975 76.1154C135.975 75.5148 136.089 74.9886 136.316 74.5369C136.545 74.0851 136.868 73.7344 137.285 73.4845C137.701 73.2347 138.193 73.1097 138.761 73.1097C139.329 73.1097 139.821 73.2347 140.237 73.4845C140.654 73.7344 140.976 74.0851 141.203 74.5369C141.432 74.9886 141.547 75.5148 141.547 76.1154C141.547 76.7161 141.432 77.241 141.203 77.6902C140.976 78.1394 140.654 78.489 140.237 78.7388C139.821 78.9886 139.329 79.1136 138.761 79.1136ZM138.769 78.0158C139.077 78.0158 139.334 77.9312 139.541 77.7621C139.748 77.5905 139.902 77.3609 140.003 77.0732C140.106 76.7855 140.158 76.465 140.158 76.1117C140.158 75.7558 140.106 75.434 140.003 75.1463C139.902 74.8561 139.748 74.6252 139.541 74.4536C139.334 74.282 139.077 74.1962 138.769 74.1962C138.453 74.1962 138.191 74.282 137.981 74.4536C137.774 74.6252 137.619 74.8561 137.516 75.1463C137.415 75.434 137.364 75.7558 137.364 76.1117C137.364 76.465 137.415 76.7855 137.516 77.0732C137.619 77.3609 137.774 77.5905 137.981 77.7621C138.191 77.9312 138.453 78.0158 138.769 78.0158ZM144.081 75.593V79H142.71V73.1855H144.02V74.1735H144.088C144.222 73.8479 144.435 73.5892 144.728 73.3974C145.023 73.2056 145.388 73.1097 145.822 73.1097C146.223 73.1097 146.573 73.1955 146.871 73.3672C147.171 73.5388 147.403 73.7874 147.567 74.1129C147.734 74.4385 147.816 74.8334 147.813 75.2978V79H146.443V75.5098C146.443 75.1211 146.342 74.817 146.14 74.5975C145.941 74.3779 145.664 74.2681 145.311 74.2681C145.071 74.2681 144.858 74.3211 144.671 74.4271C144.487 74.5306 144.342 74.6807 144.236 74.8776C144.132 75.0744 144.081 75.3129 144.081 75.593ZM152.11 73.1855V74.2454H148.767V73.1855H152.11ZM149.592 71.7924H150.963V77.2511C150.963 77.4353 150.991 77.5766 151.046 77.6751C151.104 77.771 151.18 77.8366 151.273 77.8719C151.367 77.9072 151.47 77.9249 151.584 77.9249C151.669 77.9249 151.748 77.9186 151.818 77.906C151.891 77.8934 151.947 77.882 151.985 77.8719L152.216 78.9432C152.143 78.9685 152.038 78.9962 151.902 79.0265C151.768 79.0568 151.604 79.0744 151.409 79.0795C151.066 79.0896 150.757 79.0379 150.482 78.9243C150.207 78.8082 149.989 78.629 149.827 78.3867C149.668 78.1445 149.59 77.8416 149.592 77.4782V71.7924ZM153.256 79V73.1855H154.626V79H153.256ZM153.945 72.3602C153.728 72.3602 153.541 72.2883 153.385 72.1444C153.228 71.9981 153.15 71.8227 153.15 71.6183C153.15 71.4113 153.228 71.2359 153.385 71.0921C153.541 70.9457 153.728 70.8725 153.945 70.8725C154.164 70.8725 154.351 70.9457 154.505 71.0921C154.662 71.2359 154.74 71.4113 154.74 71.6183C154.74 71.8227 154.662 71.9981 154.505 72.1444C154.351 72.2883 154.164 72.3602 153.945 72.3602ZM157.406 75.593V79H156.035V73.1855H157.345V74.1735H157.413C157.547 73.8479 157.76 73.5892 158.053 73.3974C158.348 73.2056 158.713 73.1097 159.147 73.1097C159.548 73.1097 159.898 73.1955 160.196 73.3672C160.496 73.5388 160.728 73.7874 160.892 74.1129C161.059 74.4385 161.141 74.8334 161.138 75.2978V79H159.768V75.5098C159.768 75.1211 159.667 74.817 159.465 74.5975C159.266 74.3779 158.989 74.2681 158.636 74.2681C158.396 74.2681 158.183 74.3211 157.996 74.4271C157.812 74.5306 157.667 74.6807 157.561 74.8776C157.457 75.0744 157.406 75.3129 157.406 75.593ZM166.237 76.5546V73.1855H167.608V79H166.279V77.9666H166.218C166.087 78.2921 165.871 78.5584 165.571 78.7653C165.273 78.9722 164.906 79.0757 164.469 79.0757C164.088 79.0757 163.751 78.9912 163.459 78.8221C163.169 78.6505 162.941 78.4019 162.777 78.0763C162.613 77.7483 162.531 77.352 162.531 76.8877V73.1855H163.902V76.6757C163.902 77.0442 164.003 77.3369 164.204 77.5539C164.406 77.771 164.671 77.8795 164.999 77.8795C165.201 77.8795 165.397 77.8303 165.586 77.7319C165.775 77.6334 165.931 77.4871 166.052 77.2927C166.175 77.0959 166.237 76.8498 166.237 76.5546ZM171.591 79.1136C171.008 79.1136 170.505 78.9924 170.081 78.7502C169.659 78.5054 169.335 78.1596 169.108 77.7129C168.881 77.2637 168.767 76.735 168.767 76.1268C168.767 75.5287 168.881 75.0038 169.108 74.552C169.337 74.0978 169.658 73.7444 170.069 73.4921C170.481 73.2372 170.964 73.1097 171.519 73.1097C171.877 73.1097 172.216 73.1678 172.534 73.2839C172.854 73.3974 173.137 73.5741 173.382 73.8138C173.629 74.0536 173.823 74.359 173.964 74.7299C174.106 75.0984 174.176 75.5375 174.176 76.0473V76.4675H169.411V75.5438H172.863C172.86 75.2814 172.804 75.0479 172.693 74.8435C172.582 74.6366 172.426 74.4738 172.227 74.3552C172.03 74.2366 171.8 74.1773 171.538 74.1773C171.258 74.1773 171.012 74.2454 170.8 74.3817C170.588 74.5154 170.423 74.6921 170.304 74.9116C170.188 75.1287 170.128 75.3672 170.126 75.6271V76.4334C170.126 76.7716 170.188 77.0618 170.311 77.3041C170.435 77.5438 170.608 77.7281 170.83 77.8568C171.052 77.983 171.312 78.0461 171.61 78.0461C171.809 78.0461 171.99 78.0183 172.151 77.9628C172.313 77.9047 172.453 77.8202 172.571 77.7091C172.69 77.5981 172.78 77.4606 172.84 77.2965L174.12 77.4404C174.039 77.7785 173.885 78.0738 173.658 78.3262C173.433 78.576 173.146 78.7703 172.795 78.9091C172.444 79.0454 172.043 79.1136 171.591 79.1136Z" fill="#1E757B"/>
<rect x="376.5" y="0.5" width="60" height="31" rx="7.5" fill="#F7FFF5"/>
<rect x="376.5" y="0.5" width="60" height="31" rx="7.5" stroke="#1E757B"/>
<path d="M389.378 20.1136C388.81 20.1136 388.318 19.9886 387.902 19.7388C387.485 19.489 387.162 19.1394 386.933 18.6902C386.706 18.241 386.592 17.7161 386.592 17.1154C386.592 16.5148 386.706 15.9886 386.933 15.5369C387.162 15.0851 387.485 14.7344 387.902 14.4845C388.318 14.2347 388.81 14.1097 389.378 14.1097C389.946 14.1097 390.438 14.2347 390.854 14.4845C391.271 14.7344 391.593 15.0851 391.82 15.5369C392.049 15.9886 392.164 16.5148 392.164 17.1154C392.164 17.7161 392.049 18.241 391.82 18.6902C391.593 19.1394 391.271 19.489 390.854 19.7388C390.438 19.9886 389.946 20.1136 389.378 20.1136ZM389.386 19.0158C389.694 19.0158 389.951 18.9312 390.158 18.7621C390.365 18.5905 390.519 18.3609 390.62 18.0732C390.723 17.7855 390.775 17.465 390.775 17.1117C390.775 16.7558 390.723 16.434 390.62 16.1463C390.519 15.8561 390.365 15.6252 390.158 15.4536C389.951 15.282 389.694 15.1962 389.386 15.1962C389.07 15.1962 388.808 15.282 388.598 15.4536C388.391 15.6252 388.236 15.8561 388.133 16.1463C388.032 16.434 387.981 16.7558 387.981 17.1117C387.981 17.465 388.032 17.7855 388.133 18.0732C388.236 18.3609 388.391 18.5905 388.598 18.7621C388.808 18.9312 389.07 19.0158 389.386 19.0158ZM393.327 22.1805V14.1855H394.675V15.147H394.755C394.825 15.0056 394.925 14.8555 395.054 14.6965C395.182 14.535 395.356 14.3974 395.576 14.2839C395.796 14.1678 396.076 14.1097 396.416 14.1097C396.866 14.1097 397.271 14.2246 397.631 14.4542C397.995 14.6814 398.283 15.0183 398.495 15.465C398.709 15.9091 398.816 16.4542 398.816 17.1003C398.816 17.7388 398.712 18.2814 398.502 18.7281C398.293 19.1748 398.008 19.5155 397.647 19.7502C397.286 19.9849 396.877 20.1022 396.42 20.1022C396.087 20.1022 395.811 20.0467 395.591 19.9356C395.372 19.8246 395.195 19.6908 395.061 19.5344C394.93 19.3754 394.828 19.2252 394.755 19.0839H394.698V22.1805H393.327ZM394.671 17.0927C394.671 17.4688 394.724 17.7981 394.83 18.0807C394.939 18.3634 395.094 18.5842 395.296 18.7432C395.5 18.8997 395.748 18.9779 396.038 18.9779C396.341 18.9779 396.594 18.8972 396.799 18.7356C397.003 18.5716 397.157 18.3483 397.261 18.0656C397.367 17.7804 397.42 17.4561 397.42 17.0927C397.42 16.7318 397.368 16.4113 397.264 16.1312C397.161 15.8511 397.007 15.6315 396.802 15.4725C396.598 15.3135 396.343 15.234 396.038 15.234C395.745 15.234 395.496 15.311 395.292 15.465C395.088 15.6189 394.932 15.8347 394.826 16.1123C394.723 16.3899 394.671 16.7167 394.671 17.0927ZM402.893 14.1855V15.2454H399.551V14.1855H402.893ZM400.376 12.7924H401.746V18.2511C401.746 18.4353 401.774 18.5766 401.83 18.6751C401.888 18.771 401.963 18.8366 402.057 18.8719C402.15 18.9072 402.254 18.9249 402.367 18.9249C402.453 18.9249 402.531 18.9186 402.602 18.906C402.675 18.8934 402.731 18.882 402.768 18.8719L402.999 19.9432C402.926 19.9685 402.821 19.9962 402.685 20.0265C402.551 20.0568 402.387 20.0744 402.193 20.0795C401.85 20.0896 401.541 20.0379 401.266 19.9243C400.991 19.8082 400.772 19.629 400.611 19.3867C400.452 19.1445 400.373 18.8416 400.376 18.4782V12.7924ZM404.039 20V14.1855H405.41V20H404.039ZM404.728 13.3602C404.511 13.3602 404.325 13.2883 404.168 13.1444C404.012 12.9981 403.933 12.8227 403.933 12.6183C403.933 12.4113 404.012 12.2359 404.168 12.0921C404.325 11.9457 404.511 11.8725 404.728 11.8725C404.948 11.8725 405.135 11.9457 405.289 12.0921C405.445 12.2359 405.523 12.4113 405.523 12.6183C405.523 12.8227 405.445 12.9981 405.289 13.1444C405.135 13.2883 404.948 13.3602 404.728 13.3602ZM409.355 20.1136C408.787 20.1136 408.295 19.9886 407.879 19.7388C407.462 19.489 407.139 19.1394 406.91 18.6902C406.683 18.241 406.569 17.7161 406.569 17.1154C406.569 16.5148 406.683 15.9886 406.91 15.5369C407.139 15.0851 407.462 14.7344 407.879 14.4845C408.295 14.2347 408.787 14.1097 409.355 14.1097C409.923 14.1097 410.415 14.2347 410.832 14.4845C411.248 14.7344 411.57 15.0851 411.797 15.5369C412.027 15.9886 412.141 16.5148 412.141 17.1154C412.141 17.7161 412.027 18.241 411.797 18.6902C411.57 19.1394 411.248 19.489 410.832 19.7388C410.415 19.9886 409.923 20.1136 409.355 20.1136ZM409.363 19.0158C409.671 19.0158 409.928 18.9312 410.135 18.7621C410.342 18.5905 410.496 18.3609 410.597 18.0732C410.7 17.7855 410.752 17.465 410.752 17.1117C410.752 16.7558 410.7 16.434 410.597 16.1463C410.496 15.8561 410.342 15.6252 410.135 15.4536C409.928 15.282 409.671 15.1962 409.363 15.1962C409.047 15.1962 408.785 15.282 408.575 15.4536C408.368 15.6252 408.213 15.8561 408.11 16.1463C408.009 16.434 407.958 16.7558 407.958 17.1117C407.958 17.465 408.009 17.7855 408.11 18.0732C408.213 18.3609 408.368 18.5905 408.575 18.7621C408.785 18.9312 409.047 19.0158 409.363 19.0158ZM414.675 16.593V20H413.304V14.1855H414.614V15.1735H414.682C414.816 14.8479 415.029 14.5892 415.322 14.3974C415.617 14.2056 415.982 14.1097 416.416 14.1097C416.817 14.1097 417.167 14.1955 417.465 14.3672C417.765 14.5388 417.997 14.7874 418.161 15.1129C418.328 15.4385 418.41 15.8334 418.407 16.2978V20H417.037V16.5098C417.037 16.1211 416.936 15.817 416.734 15.5975C416.535 15.3779 416.258 15.2681 415.905 15.2681C415.665 15.2681 415.452 15.3211 415.265 15.4271C415.081 15.5306 414.936 15.6807 414.83 15.8776C414.727 16.0744 414.675 16.3129 414.675 16.593ZM425.583 12.2473V20H424.178V13.6138H424.133L422.32 14.7722V13.4851L424.246 12.2473H425.583Z" fill="#1E757B"/>
<rect x="376.5" y="59.5" width="62" height="31" rx="7.5" fill="#F7FFF5"/>
<rect x="376.5" y="59.5" width="62" height="31" rx="7.5" stroke="#1E757B"/>
<path d="M389.629 79.1136C389.061 79.1136 388.569 78.9886 388.152 78.7388C387.736 78.489 387.413 78.1394 387.183 77.6902C386.956 77.241 386.842 76.7161 386.842 76.1154C386.842 75.5148 386.956 74.9886 387.183 74.5369C387.413 74.0851 387.736 73.7344 388.152 73.4845C388.569 73.2347 389.061 73.1097 389.629 73.1097C390.196 73.1097 390.689 73.2347 391.105 73.4845C391.521 73.7344 391.843 74.0851 392.07 74.5369C392.3 74.9886 392.415 75.5148 392.415 76.1154C392.415 76.7161 392.3 77.241 392.07 77.6902C391.843 78.1394 391.521 78.489 391.105 78.7388C390.689 78.9886 390.196 79.1136 389.629 79.1136ZM389.636 78.0158C389.944 78.0158 390.201 77.9312 390.408 77.7621C390.615 77.5905 390.769 77.3609 390.87 77.0732C390.974 76.7855 391.025 76.465 391.025 76.1117C391.025 75.7558 390.974 75.434 390.87 75.1463C390.769 74.8561 390.615 74.6252 390.408 74.4536C390.201 74.282 389.944 74.1962 389.636 74.1962C389.321 74.1962 389.058 74.282 388.849 74.4536C388.642 74.6252 388.487 74.8561 388.383 75.1463C388.282 75.434 388.232 75.7558 388.232 76.1117C388.232 76.465 388.282 76.7855 388.383 77.0732C388.487 77.3609 388.642 77.5905 388.849 77.7621C389.058 77.9312 389.321 78.0158 389.636 78.0158ZM393.578 81.1805V73.1855H394.925V74.147H395.005C395.076 74.0056 395.175 73.8555 395.304 73.6965C395.433 73.535 395.607 73.3974 395.826 73.2839C396.046 73.1678 396.326 73.1097 396.667 73.1097C397.116 73.1097 397.521 73.2246 397.882 73.4542C398.245 73.6814 398.533 74.0183 398.745 74.465C398.96 74.9091 399.067 75.4542 399.067 76.1003C399.067 76.7388 398.962 77.2814 398.753 77.7281C398.543 78.1748 398.258 78.5155 397.897 78.7502C397.536 78.9849 397.127 79.1022 396.671 79.1022C396.337 79.1022 396.061 79.0467 395.842 78.9356C395.622 78.8246 395.445 78.6908 395.312 78.5344C395.18 78.3754 395.078 78.2252 395.005 78.0839H394.948V81.1805H393.578ZM394.922 76.0927C394.922 76.4688 394.975 76.7981 395.081 77.0807C395.189 77.3634 395.344 77.5842 395.546 77.7432C395.751 77.8997 395.998 77.9779 396.288 77.9779C396.591 77.9779 396.845 77.8972 397.049 77.7356C397.254 77.5716 397.408 77.3483 397.511 77.0656C397.617 76.7804 397.67 76.4561 397.67 76.0927C397.67 75.7318 397.618 75.4113 397.515 75.1312C397.411 74.8511 397.257 74.6315 397.053 74.4725C396.849 74.3135 396.594 74.234 396.288 74.234C395.996 74.234 395.747 74.311 395.543 74.465C395.338 74.6189 395.183 74.8347 395.077 75.1123C394.973 75.3899 394.922 75.7167 394.922 76.0927ZM403.144 73.1855V74.2454H399.801V73.1855H403.144ZM400.626 71.7924H401.997V77.2511C401.997 77.4353 402.025 77.5766 402.08 77.6751C402.138 77.771 402.214 77.8366 402.307 77.8719C402.401 77.9072 402.504 77.9249 402.618 77.9249C402.703 77.9249 402.782 77.9186 402.852 77.906C402.926 77.8934 402.981 77.882 403.019 77.8719L403.25 78.9432C403.177 78.9685 403.072 78.9962 402.936 79.0265C402.802 79.0568 402.638 79.0744 402.444 79.0795C402.1 79.0896 401.791 79.0379 401.516 78.9243C401.241 78.8082 401.023 78.629 400.861 78.3867C400.702 78.1445 400.624 77.8416 400.626 77.4782V71.7924ZM404.29 79V73.1855H405.66V79H404.29ZM404.979 72.3602C404.762 72.3602 404.575 72.2883 404.419 72.1444C404.262 71.9981 404.184 71.8227 404.184 71.6183C404.184 71.4113 404.262 71.2359 404.419 71.0921C404.575 70.9457 404.762 70.8725 404.979 70.8725C405.198 70.8725 405.385 70.9457 405.539 71.0921C405.696 71.2359 405.774 71.4113 405.774 71.6183C405.774 71.8227 405.696 71.9981 405.539 72.1444C405.385 72.2883 405.198 72.3602 404.979 72.3602ZM409.606 79.1136C409.038 79.1136 408.546 78.9886 408.129 78.7388C407.713 78.489 407.39 78.1394 407.16 77.6902C406.933 77.241 406.82 76.7161 406.82 76.1154C406.82 75.5148 406.933 74.9886 407.16 74.5369C407.39 74.0851 407.713 73.7344 408.129 73.4845C408.546 73.2347 409.038 73.1097 409.606 73.1097C410.174 73.1097 410.666 73.2347 411.082 73.4845C411.498 73.7344 411.82 74.0851 412.047 74.5369C412.277 74.9886 412.392 75.5148 412.392 76.1154C412.392 76.7161 412.277 77.241 412.047 77.6902C411.82 78.1394 411.498 78.489 411.082 78.7388C410.666 78.9886 410.174 79.1136 409.606 79.1136ZM409.613 78.0158C409.921 78.0158 410.179 77.9312 410.386 77.7621C410.592 77.5905 410.746 77.3609 410.847 77.0732C410.951 76.7855 411.003 76.465 411.003 76.1117C411.003 75.7558 410.951 75.434 410.847 75.1463C410.746 74.8561 410.592 74.6252 410.386 74.4536C410.179 74.282 409.921 74.1962 409.613 74.1962C409.298 74.1962 409.035 74.282 408.826 74.4536C408.619 74.6252 408.464 74.8561 408.36 75.1463C408.259 75.434 408.209 75.7558 408.209 76.1117C408.209 76.465 408.259 76.7855 408.36 77.0732C408.464 77.3609 408.619 77.5905 408.826 77.7621C409.035 77.9312 409.298 78.0158 409.613 78.0158ZM414.925 75.593V79H413.555V73.1855H414.865V74.1735H414.933C415.067 73.8479 415.28 73.5892 415.573 73.3974C415.868 73.2056 416.233 73.1097 416.667 73.1097C417.068 73.1097 417.417 73.1955 417.715 73.3672C418.016 73.5388 418.248 73.7874 418.412 74.1129C418.578 74.4385 418.66 74.8334 418.658 75.2978V79H417.287V75.5098C417.287 75.1211 417.186 74.817 416.985 74.5975C416.785 74.3779 416.509 74.2681 416.156 74.2681C415.916 74.2681 415.703 74.3211 415.516 74.4271C415.332 74.5306 415.186 74.6807 415.08 74.8776C414.977 75.0744 414.925 75.3129 414.925 75.593ZM422.68 79V77.9855L425.371 75.347C425.629 75.087 425.843 74.8561 426.015 74.6542C426.187 74.4523 426.315 74.2568 426.401 74.0675C426.487 73.8782 426.53 73.6763 426.53 73.4618C426.53 73.217 426.474 73.0075 426.363 72.8334C426.252 72.6567 426.099 72.5205 425.905 72.4246C425.711 72.3287 425.49 72.2807 425.243 72.2807C424.988 72.2807 424.764 72.3337 424.573 72.4397C424.381 72.5432 424.232 72.6908 424.126 72.8826C424.022 73.0744 423.971 73.3028 423.971 73.5678H422.634C422.634 73.0757 422.747 72.6479 422.971 72.2845C423.196 71.9211 423.505 71.6397 423.899 71.4403C424.295 71.241 424.749 71.1413 425.262 71.1413C425.781 71.1413 426.238 71.2384 426.632 71.4328C427.026 71.6271 427.331 71.8933 427.548 72.2315C427.768 72.5697 427.877 72.9558 427.877 73.3899C427.877 73.6801 427.822 73.9653 427.711 74.2454C427.6 74.5255 427.404 74.8359 427.124 75.1766C426.846 75.5173 426.457 75.93 425.954 76.4145L424.618 77.7735V77.8265H427.995V79H422.68Z" fill="#1E757B"/>
<rect x="376.5" y="118.5" width="62" height="31" rx="7.5" fill="#F7FFF5"/>
<rect x="376.5" y="118.5" width="62" height="31" rx="7.5" stroke="#1E757B"/>
<path d="M389.467 138.114C388.899 138.114 388.407 137.989 387.991 137.739C387.574 137.489 387.251 137.139 387.022 136.69C386.795 136.241 386.681 135.716 386.681 135.115C386.681 134.515 386.795 133.989 387.022 133.537C387.251 133.085 387.574 132.734 387.991 132.485C388.407 132.235 388.899 132.11 389.467 132.11C390.035 132.11 390.527 132.235 390.944 132.485C391.36 132.734 391.682 133.085 391.909 133.537C392.139 133.989 392.253 134.515 392.253 135.115C392.253 135.716 392.139 136.241 391.909 136.69C391.682 137.139 391.36 137.489 390.944 137.739C390.527 137.989 390.035 138.114 389.467 138.114ZM389.475 137.016C389.783 137.016 390.04 136.931 390.247 136.762C390.454 136.591 390.608 136.361 390.709 136.073C390.812 135.785 390.864 135.465 390.864 135.112C390.864 134.756 390.812 134.434 390.709 134.146C390.608 133.856 390.454 133.625 390.247 133.454C390.04 133.282 389.783 133.196 389.475 133.196C389.159 133.196 388.897 133.282 388.687 133.454C388.48 133.625 388.325 133.856 388.222 134.146C388.121 134.434 388.07 134.756 388.07 135.112C388.07 135.465 388.121 135.785 388.222 136.073C388.325 136.361 388.48 136.591 388.687 136.762C388.897 136.931 389.159 137.016 389.475 137.016ZM393.416 140.18V132.185H394.764V133.147H394.844C394.914 133.006 395.014 132.855 395.143 132.696C395.271 132.535 395.446 132.397 395.665 132.284C395.885 132.168 396.165 132.11 396.505 132.11C396.955 132.11 397.36 132.225 397.721 132.454C398.084 132.681 398.372 133.018 398.584 133.465C398.798 133.909 398.905 134.454 398.905 135.1C398.905 135.739 398.801 136.281 398.591 136.728C398.382 137.175 398.097 137.515 397.736 137.75C397.375 137.985 396.966 138.102 396.509 138.102C396.176 138.102 395.9 138.047 395.68 137.936C395.461 137.825 395.284 137.691 395.15 137.534C395.019 137.375 394.917 137.225 394.844 137.084H394.787V140.18H393.416ZM394.76 135.093C394.76 135.469 394.813 135.798 394.919 136.081C395.028 136.363 395.183 136.584 395.385 136.743C395.589 136.9 395.837 136.978 396.127 136.978C396.43 136.978 396.683 136.897 396.888 136.736C397.092 136.572 397.246 136.348 397.35 136.066C397.456 135.78 397.509 135.456 397.509 135.093C397.509 134.732 397.457 134.411 397.353 134.131C397.25 133.851 397.096 133.632 396.892 133.473C396.687 133.314 396.432 133.234 396.127 133.234C395.834 133.234 395.586 133.311 395.381 133.465C395.177 133.619 395.022 133.835 394.916 134.112C394.812 134.39 394.76 134.717 394.76 135.093ZM402.982 132.185V133.245H399.64V132.185H402.982ZM400.465 130.792H401.835V136.251C401.835 136.435 401.863 136.577 401.919 136.675C401.977 136.771 402.052 136.837 402.146 136.872C402.239 136.907 402.343 136.925 402.456 136.925C402.542 136.925 402.62 136.919 402.691 136.906C402.764 136.893 402.82 136.882 402.858 136.872L403.088 137.943C403.015 137.968 402.911 137.996 402.774 138.026C402.641 138.057 402.476 138.074 402.282 138.079C401.939 138.09 401.63 138.038 401.355 137.924C401.08 137.808 400.861 137.629 400.7 137.387C400.541 137.144 400.463 136.842 400.465 136.478V130.792ZM404.129 138V132.185H405.499V138H404.129ZM404.817 131.36C404.6 131.36 404.414 131.288 404.257 131.144C404.101 130.998 404.023 130.823 404.023 130.618C404.023 130.411 404.101 130.236 404.257 130.092C404.414 129.946 404.6 129.873 404.817 129.873C405.037 129.873 405.224 129.946 405.378 130.092C405.534 130.236 405.612 130.411 405.612 130.618C405.612 130.823 405.534 130.998 405.378 131.144C405.224 131.288 405.037 131.36 404.817 131.36ZM409.444 138.114C408.877 138.114 408.384 137.989 407.968 137.739C407.552 137.489 407.229 137.139 406.999 136.69C406.772 136.241 406.658 135.716 406.658 135.115C406.658 134.515 406.772 133.989 406.999 133.537C407.229 133.085 407.552 132.734 407.968 132.485C408.384 132.235 408.877 132.11 409.444 132.11C410.012 132.11 410.504 132.235 410.921 132.485C411.337 132.734 411.659 133.085 411.886 133.537C412.116 133.989 412.23 134.515 412.23 135.115C412.23 135.716 412.116 136.241 411.886 136.69C411.659 137.139 411.337 137.489 410.921 137.739C410.504 137.989 410.012 138.114 409.444 138.114ZM409.452 137.016C409.76 137.016 410.017 136.931 410.224 136.762C410.431 136.591 410.585 136.361 410.686 136.073C410.789 135.785 410.841 135.465 410.841 135.112C410.841 134.756 410.789 134.434 410.686 134.146C410.585 133.856 410.431 133.625 410.224 133.454C410.017 133.282 409.76 133.196 409.452 133.196C409.136 133.196 408.874 133.282 408.665 133.454C408.458 133.625 408.302 133.856 408.199 134.146C408.098 134.434 408.047 134.756 408.047 135.112C408.047 135.465 408.098 135.785 408.199 136.073C408.302 136.361 408.458 136.591 408.665 136.762C408.874 136.931 409.136 137.016 409.452 137.016ZM414.764 134.593V138H413.394V132.185H414.703V133.173H414.771C414.905 132.848 415.118 132.589 415.411 132.397C415.707 132.206 416.071 132.11 416.505 132.11C416.907 132.11 417.256 132.196 417.554 132.367C417.854 132.539 418.086 132.787 418.25 133.113C418.417 133.438 418.499 133.833 418.496 134.298V138H417.126V134.51C417.126 134.121 417.025 133.817 416.823 133.597C416.624 133.378 416.348 133.268 415.994 133.268C415.754 133.268 415.541 133.321 415.354 133.427C415.17 133.531 415.025 133.681 414.919 133.878C414.816 134.074 414.764 134.313 414.764 134.593ZM425.301 138.106C424.756 138.106 424.271 138.013 423.847 137.826C423.426 137.639 423.093 137.379 422.848 137.046C422.603 136.713 422.473 136.328 422.458 135.891H423.881C423.894 136.101 423.963 136.284 424.09 136.44C424.216 136.594 424.384 136.714 424.593 136.8C424.802 136.886 425.037 136.929 425.297 136.929C425.575 136.929 425.821 136.881 426.035 136.785C426.25 136.686 426.418 136.55 426.539 136.376C426.66 136.202 426.719 136.001 426.717 135.774C426.719 135.539 426.659 135.332 426.535 135.153C426.411 134.974 426.232 134.834 425.997 134.733C425.765 134.632 425.485 134.582 425.157 134.582H424.472V133.499H425.157C425.427 133.499 425.663 133.452 425.865 133.359C426.069 133.266 426.23 133.134 426.346 132.965C426.462 132.794 426.519 132.596 426.516 132.371C426.519 132.151 426.469 131.961 426.368 131.799C426.27 131.635 426.13 131.508 425.948 131.417C425.769 131.326 425.558 131.281 425.316 131.281C425.079 131.281 424.859 131.324 424.657 131.409C424.455 131.495 424.293 131.618 424.169 131.777C424.045 131.933 423.98 132.12 423.972 132.337H422.621C422.631 131.903 422.756 131.522 422.996 131.194C423.238 130.863 423.561 130.606 423.965 130.421C424.368 130.235 424.821 130.141 425.324 130.141C425.841 130.141 426.29 130.238 426.671 130.433C427.055 130.625 427.351 130.883 427.561 131.209C427.77 131.534 427.875 131.894 427.875 132.288C427.878 132.724 427.749 133.09 427.489 133.385C427.232 133.681 426.893 133.874 426.474 133.965V134.025C427.02 134.101 427.437 134.303 427.727 134.631C428.02 134.956 428.165 135.361 428.163 135.846C428.163 136.28 428.039 136.669 427.792 137.012C427.547 137.353 427.209 137.62 426.777 137.815C426.348 138.009 425.856 138.106 425.301 138.106Z" fill="#1E757B"/>
<rect x="232.707" y="75.4264" width="59" height="59" rx="7.5" transform="rotate(-45 232.707 75.4264)" fill="#F7FFF5" stroke="#1E757B"/>
<path d="M255.308 79.1136C254.725 79.1136 254.221 78.9924 253.797 78.7502C253.376 78.5054 253.051 78.1596 252.824 77.7129C252.597 77.2637 252.484 76.735 252.484 76.1268C252.484 75.5287 252.597 75.0038 252.824 74.552C253.054 74.0978 253.374 73.7444 253.786 73.4921C254.197 73.2372 254.68 73.1097 255.236 73.1097C255.594 73.1097 255.932 73.1678 256.25 73.2839C256.571 73.3974 256.853 73.5741 257.098 73.8138C257.345 74.0536 257.54 74.359 257.681 74.7299C257.822 75.0984 257.893 75.5375 257.893 76.0473V76.4675H253.127V75.5438H256.58C256.577 75.2814 256.52 75.0479 256.409 74.8435C256.298 74.6366 256.143 74.4738 255.944 74.3552C255.747 74.2366 255.517 74.1773 255.255 74.1773C254.974 74.1773 254.728 74.2454 254.516 74.3817C254.304 74.5154 254.139 74.6921 254.021 74.9116C253.904 75.1287 253.845 75.3672 253.843 75.6271V76.4334C253.843 76.7716 253.904 77.0618 254.028 77.3041C254.152 77.5438 254.325 77.7281 254.547 77.8568C254.769 77.983 255.029 78.0461 255.327 78.0461C255.526 78.0461 255.706 78.0183 255.868 77.9628C256.029 77.9047 256.169 77.8202 256.288 77.7091C256.407 77.5981 256.496 77.4606 256.557 77.2965L257.836 77.4404C257.756 77.7785 257.602 78.0738 257.375 78.3262C257.15 78.576 256.862 78.7703 256.511 78.9091C256.161 79.0454 255.759 79.1136 255.308 79.1136ZM264.08 73.1855L262.009 79H260.495L258.424 73.1855H259.885L261.222 77.5047H261.282L262.622 73.1855H264.08ZM266.534 79.1174C266.166 79.1174 265.834 79.0517 265.539 78.9205C265.246 78.7867 265.014 78.5899 264.842 78.33C264.673 78.07 264.589 77.7495 264.589 77.3684C264.589 77.0404 264.649 76.7691 264.77 76.5546C264.892 76.34 265.057 76.1684 265.266 76.0397C265.476 75.911 265.712 75.8139 265.974 75.7482C266.239 75.6801 266.513 75.6309 266.796 75.6006C267.136 75.5653 267.413 75.5337 267.625 75.506C267.837 75.4757 267.991 75.4303 268.087 75.3697C268.185 75.3066 268.234 75.2094 268.234 75.0782V75.0555C268.234 74.7703 268.15 74.5495 267.981 74.393C267.811 74.2366 267.568 74.1583 267.25 74.1583C266.914 74.1583 266.648 74.2315 266.451 74.3779C266.257 74.5243 266.126 74.6971 266.058 74.8965L264.778 74.7148C264.879 74.3615 265.046 74.0662 265.278 73.829C265.51 73.5892 265.794 73.4101 266.129 73.2914C266.465 73.1703 266.836 73.1097 267.242 73.1097C267.523 73.1097 267.801 73.1426 268.079 73.2082C268.357 73.2738 268.61 73.3823 268.84 73.5337C269.07 73.6826 269.254 73.8858 269.393 74.1432C269.534 74.4006 269.605 74.7224 269.605 75.1085V79H268.287V78.2013H268.242C268.158 78.3628 268.041 78.5142 267.89 78.6555C267.741 78.7943 267.553 78.9066 267.326 78.9924C267.101 79.0757 266.837 79.1174 266.534 79.1174ZM266.89 78.1104C267.165 78.1104 267.404 78.0561 267.606 77.9476C267.808 77.8366 267.963 77.6902 268.071 77.5085C268.182 77.3268 268.238 77.1287 268.238 76.9142V76.229C268.195 76.2643 268.122 76.2971 268.018 76.3274C267.917 76.3577 267.804 76.3842 267.678 76.4069C267.552 76.4296 267.427 76.4498 267.303 76.4675C267.179 76.4852 267.072 76.5003 266.981 76.5129C266.777 76.5407 266.594 76.5861 266.432 76.6492C266.271 76.7123 266.143 76.8006 266.05 76.9142C265.957 77.0252 265.91 77.1691 265.91 77.3457C265.91 77.5981 266.002 77.7886 266.186 77.9173C266.37 78.0461 266.605 78.1104 266.89 78.1104ZM272.353 71.2473V79H270.982V71.2473H272.353ZM277.468 76.5546V73.1855H278.838V79H277.51V77.9666H277.449C277.318 78.2921 277.102 78.5584 276.802 78.7653C276.504 78.9722 276.137 79.0757 275.7 79.0757C275.319 79.0757 274.982 78.9912 274.689 78.8221C274.399 78.6505 274.172 78.4019 274.008 78.0763C273.844 77.7483 273.762 77.352 273.762 76.8877V73.1855H275.132V76.6757C275.132 77.0442 275.233 77.3369 275.435 77.5539C275.637 77.771 275.902 77.8795 276.23 77.8795C276.432 77.8795 276.628 77.8303 276.817 77.7319C277.006 77.6334 277.161 77.4871 277.283 77.2927C277.406 77.0959 277.468 76.8498 277.468 76.5546ZM281.921 79.1174C281.552 79.1174 281.22 79.0517 280.925 78.9205C280.632 78.7867 280.4 78.5899 280.229 78.33C280.059 78.07 279.975 77.7495 279.975 77.3684C279.975 77.0404 280.036 76.7691 280.157 76.5546C280.278 76.34 280.443 76.1684 280.653 76.0397C280.862 75.911 281.098 75.8139 281.36 75.7482C281.625 75.6801 281.899 75.6309 282.182 75.6006C282.523 75.5653 282.799 75.5337 283.011 75.506C283.223 75.4757 283.377 75.4303 283.473 75.3697C283.571 75.3066 283.62 75.2094 283.62 75.0782V75.0555C283.62 74.7703 283.536 74.5495 283.367 74.393C283.198 74.2366 282.954 74.1583 282.636 74.1583C282.301 74.1583 282.034 74.2315 281.837 74.3779C281.643 74.5243 281.512 74.6971 281.444 74.8965L280.164 74.7148C280.265 74.3615 280.432 74.0662 280.664 73.829C280.896 73.5892 281.18 73.4101 281.516 73.2914C281.851 73.1703 282.222 73.1097 282.629 73.1097C282.909 73.1097 283.188 73.1426 283.465 73.2082C283.743 73.2738 283.996 73.3823 284.226 73.5337C284.456 73.6826 284.64 73.8858 284.779 74.1432C284.92 74.4006 284.991 74.7224 284.991 75.1085V79H283.673V78.2013H283.628C283.545 78.3628 283.427 78.5142 283.276 78.6555C283.127 78.7943 282.939 78.9066 282.712 78.9924C282.487 79.0757 282.224 79.1174 281.921 79.1174ZM282.277 78.1104C282.552 78.1104 282.79 78.0561 282.992 77.9476C283.194 77.8366 283.349 77.6902 283.458 77.5085C283.569 77.3268 283.624 77.1287 283.624 76.9142V76.229C283.581 76.2643 283.508 76.2971 283.405 76.3274C283.304 76.3577 283.19 76.3842 283.064 76.4069C282.938 76.4296 282.813 76.4498 282.689 76.4675C282.566 76.4852 282.458 76.5003 282.367 76.5129C282.163 76.5407 281.98 76.5861 281.818 76.6492C281.657 76.7123 281.53 76.8006 281.436 76.9142C281.343 77.0252 281.296 77.1691 281.296 77.3457C281.296 77.5981 281.388 77.7886 281.572 77.9173C281.757 78.0461 281.991 78.1104 282.277 78.1104ZM289.272 73.1855V74.2454H285.93V73.1855H289.272ZM286.755 71.7924H288.125V77.2511C288.125 77.4353 288.153 77.5766 288.208 77.6751C288.266 77.771 288.342 77.8366 288.436 77.8719C288.529 77.9072 288.632 77.9249 288.746 77.9249C288.832 77.9249 288.91 77.9186 288.981 77.906C289.054 77.8934 289.109 77.882 289.147 77.8719L289.378 78.9432C289.305 78.9685 289.2 78.9962 289.064 79.0265C288.93 79.0568 288.766 79.0744 288.572 79.0795C288.229 79.0896 287.919 79.0379 287.644 78.9243C287.369 78.8082 287.151 78.629 286.99 78.3867C286.831 78.1445 286.752 77.8416 286.755 77.4782V71.7924ZM292.93 79.1136C292.347 79.1136 291.843 78.9924 291.42 78.7502C290.998 78.5054 290.674 78.1596 290.447 77.7129C290.219 77.2637 290.106 76.735 290.106 76.1268C290.106 75.5287 290.219 75.0038 290.447 74.552C290.676 74.0978 290.997 73.7444 291.408 73.4921C291.82 73.2372 292.303 73.1097 292.858 73.1097C293.216 73.1097 293.555 73.1678 293.873 73.2839C294.193 73.3974 294.476 73.5741 294.72 73.8138C294.968 74.0536 295.162 74.359 295.303 74.7299C295.445 75.0984 295.515 75.5375 295.515 76.0473V76.4675H290.749V75.5438H294.202C294.199 75.2814 294.143 75.0479 294.032 74.8435C293.92 74.6366 293.765 74.4738 293.566 74.3552C293.369 74.2366 293.139 74.1773 292.877 74.1773C292.597 74.1773 292.351 74.2454 292.139 74.3817C291.927 74.5154 291.761 74.6921 291.643 74.9116C291.527 75.1287 291.467 75.3672 291.465 75.6271V76.4334C291.465 76.7716 291.527 77.0618 291.65 77.3041C291.774 77.5438 291.947 77.7281 292.169 77.8568C292.391 77.983 292.651 78.0461 292.949 78.0461C293.148 78.0461 293.329 78.0183 293.49 77.9628C293.652 77.9047 293.792 77.8202 293.91 77.7091C294.029 77.5981 294.119 77.4606 294.179 77.2965L295.459 77.4404C295.378 77.7785 295.224 78.0738 294.997 78.3262C294.772 78.576 294.485 78.7703 294.134 78.9091C293.783 79.0454 293.382 79.1136 292.93 79.1136Z" fill="#1E757B"/>
<mask id="mask0_471_254" style="mask-type:alpha" maskUnits="userSpaceOnUse" x="292" y="11" width="86" height="42">
<path d="M377.357 15.35C377.55 15.1527 377.547 14.8362 377.35 14.6429L374.136 11.4932C373.939 11.2999 373.622 11.3031 373.429 11.5003C373.236 11.6975 373.239 12.0141 373.436 12.2074L376.293 15.0071L373.493 17.8639C373.3 18.0612 373.303 18.3777 373.5 18.571C373.698 18.7643 374.014 18.7611 374.207 18.5639L377.357 15.35ZM293.364 52.3431C304.787 40.2344 337.536 15.8981 377.005 15.5L376.995 14.5C337.159 14.9019 304.169 39.4323 292.636 51.6569L293.364 52.3431Z" fill="#1E757B"/>
</mask>
<g mask="url(#mask0_471_254)">
<path d="M295.5 53.5L292 50L317.5 29L323 35.5L295.5 53.5Z" fill="#1E757B"/>
<path d="M344 25L338 18.5L347.5 9.5L376 8V18.5L344 25Z" fill="#1E757B"/>
</g>
<mask id="mask1_471_254" style="mask-type:alpha" maskUnits="userSpaceOnUse" x="292" y="99" width="86" height="42">
<path d="M377.357 136.65C377.55 136.847 377.547 137.164 377.35 137.357L374.136 140.507C373.939 140.7 373.622 140.697 373.429 140.5C373.236 140.302 373.239 139.986 373.436 139.793L376.293 136.993L373.493 134.136C373.3 133.939 373.303 133.622 373.5 133.429C373.698 133.236 374.014 133.239 374.207 133.436L377.357 136.65ZM293.364 99.6569C304.787 111.766 337.536 136.102 377.005 136.5L376.995 137.5C337.159 137.098 304.169 112.568 292.636 100.343L293.364 99.6569Z" fill="#1E757B"/>
</mask>
<g mask="url(#mask1_471_254)">
<path d="M293.161 98L290 101.286L313.032 121L318 114.898L293.161 98Z" fill="#1E757B"/>
<path d="M342.789 126L336 132.5L346.75 141.5L379 143V132.5L342.789 126Z" fill="#1E757B"/>
</g>
<mask id="mask2_471_254" style="mask-type:alpha" maskUnits="userSpaceOnUse" x="314" y="71" width="63" height="8">
<path d="M376.354 75.3536C376.549 75.1583 376.549 74.8417 376.354 74.6464L373.172 71.4645C372.976 71.2692 372.66 71.2692 372.464 71.4645C372.269 71.6597 372.269 71.9763 372.464 72.1716L375.293 75L372.464 77.8284C372.269 78.0237 372.269 78.3403 372.464 78.5355C372.66 78.7308 372.976 78.7308 373.172 78.5355L376.354 75.3536ZM314 75.5L376 75.5V74.5L314 74.5V75.5Z" fill="#1E757B"/>
</mask>
<g mask="url(#mask2_471_254)">
<rect x="314" y="67" width="17" height="15" fill="#1E757B"/>
<rect x="354" y="67" width="22" height="15" fill="#1E757B"/>
</g>
<path d="M235.354 75.3536C235.549 75.1583 235.549 74.8417 235.354 74.6464L232.172 71.4645C231.976 71.2692 231.66 71.2692 231.464 71.4645C231.269 71.6597 231.269 71.9763 231.464 72.1716L234.293 75L231.464 77.8284C231.269 78.0237 231.269 78.3403 231.464 78.5355C231.66 78.7308 231.976 78.7308 232.172 78.5355L235.354 75.3536ZM185 75.5L235 75.5V74.5L185 74.5V75.5Z" fill="#1E757B"/>
<mask id="mask3_471_254" style="mask-type:alpha" maskUnits="userSpaceOnUse" x="45" y="71" width="75" height="8">
<path d="M119.354 75.3536C119.549 75.1583 119.549 74.8417 119.354 74.6464L116.172 71.4645C115.976 71.2692 115.66 71.2692 115.464 71.4645C115.269 71.6597 115.269 71.9763 115.464 72.1716L118.293 75L115.464 77.8284C115.269 78.0237 115.269 78.3403 115.464 78.5355C115.66 78.7308 115.976 78.7308 116.172 78.5355L119.354 75.3536ZM45 75.5L119 75.5V74.5L45 74.5V75.5Z" fill="#1E757B"/>
</mask>
<g mask="url(#mask3_471_254)">
<rect width="13" height="12" transform="translate(45 69)" fill="#1E757B"/>
<rect width="15" height="12" transform="translate(105 69)" fill="#1E757B"/>
</g>
<path d="M64.609 74.1903L63.9315 74.3821C63.8888 74.2692 63.826 74.1594 63.7429 74.0529C63.6619 73.9442 63.5511 73.8548 63.4105 73.7844C63.2699 73.7141 63.0898 73.679 62.8704 73.679C62.57 73.679 62.3196 73.7482 62.1193 73.8867C61.9212 74.0231 61.8221 74.1967 61.8221 74.4077C61.8221 74.5952 61.8903 74.7433 62.0266 74.8519C62.163 74.9606 62.3761 75.0511 62.6658 75.1236L63.3945 75.3026C63.8335 75.4091 64.1605 75.5721 64.3757 75.7915C64.5909 76.0089 64.6985 76.2891 64.6985 76.6321C64.6985 76.9134 64.6175 77.1648 64.4556 77.3864C64.2958 77.608 64.0721 77.7827 63.7844 77.9105C63.4968 78.0384 63.1623 78.1023 62.7809 78.1023C62.2802 78.1023 61.8658 77.9936 61.5376 77.7763C61.2095 77.5589 61.0018 77.2415 60.9144 76.8239L61.6303 76.6449C61.6985 76.9091 61.8274 77.1072 62.017 77.2393C62.2088 77.3714 62.4592 77.4375 62.7681 77.4375C63.1197 77.4375 63.3988 77.3629 63.6055 77.2138C63.8143 77.0625 63.9187 76.8814 63.9187 76.6705C63.9187 76.5 63.859 76.3572 63.7397 76.2422C63.6204 76.125 63.4371 76.0376 63.19 75.9801L62.3718 75.7884C61.9222 75.6818 61.592 75.5167 61.381 75.293C61.1722 75.0671 61.0678 74.7848 61.0678 74.446C61.0678 74.169 61.1456 73.924 61.3011 73.7109C61.4588 73.4979 61.6729 73.3306 61.9435 73.2092C62.2163 73.0877 62.5252 73.027 62.8704 73.027C63.3562 73.027 63.7376 73.1335 64.0146 73.3466C64.2937 73.5597 64.4918 73.8409 64.609 74.1903ZM67.8282 78.1023C67.385 78.1023 66.9962 77.9968 66.6617 77.7859C66.3293 77.5749 66.0693 77.2798 65.8818 76.9006C65.6965 76.5213 65.6038 76.0781 65.6038 75.571C65.6038 75.0597 65.6965 74.6133 65.8818 74.2319C66.0693 73.8505 66.3293 73.5543 66.6617 73.3434C66.9962 73.1325 67.385 73.027 67.8282 73.027C68.2714 73.027 68.6592 73.1325 68.9916 73.3434C69.3261 73.5543 69.586 73.8505 69.7714 74.2319C69.9589 74.6133 70.0526 75.0597 70.0526 75.571C70.0526 76.0781 69.9589 76.5213 69.7714 76.9006C69.586 77.2798 69.3261 77.5749 68.9916 77.7859C68.6592 77.9968 68.2714 78.1023 67.8282 78.1023ZM67.8282 77.4247C68.1649 77.4247 68.4419 77.3384 68.6592 77.1658C68.8765 76.9933 69.0374 76.7663 69.1418 76.4851C69.2462 76.2038 69.2984 75.8991 69.2984 75.571C69.2984 75.2429 69.2462 74.9371 69.1418 74.6538C69.0374 74.3704 68.8765 74.1413 68.6592 73.9666C68.4419 73.7919 68.1649 73.7045 67.8282 73.7045C67.4916 73.7045 67.2146 73.7919 66.9972 73.9666C66.7799 74.1413 66.6191 74.3704 66.5146 74.6538C66.4102 74.9371 66.358 75.2429 66.358 75.571C66.358 75.8991 66.4102 76.2038 66.5146 76.4851C66.6191 76.7663 66.7799 76.9933 66.9972 77.1658C67.2146 77.3384 67.4916 77.4247 67.8282 77.4247ZM71.204 78V73.0909H71.9327V73.858H71.9966C72.0989 73.5959 72.264 73.3924 72.492 73.2475C72.72 73.1005 72.9938 73.027 73.3134 73.027C73.6373 73.027 73.9068 73.1005 74.122 73.2475C74.3393 73.3924 74.5087 73.5959 74.6301 73.858H74.6813C74.807 73.6044 74.9956 73.4031 75.247 73.2539C75.4984 73.1026 75.7999 73.027 76.1515 73.027C76.5904 73.027 76.9494 73.1644 77.2285 73.4393C77.5076 73.712 77.6472 74.1371 77.6472 74.7145V78H76.8929V74.7145C76.8929 74.3523 76.7939 74.0934 76.5957 73.9379C76.3975 73.7823 76.1642 73.7045 75.8958 73.7045C75.5506 73.7045 75.2832 73.8089 75.0936 74.0178C74.9039 74.2244 74.8091 74.4865 74.8091 74.804V78H74.0421V74.6378C74.0421 74.3587 73.9515 74.1339 73.7704 73.9634C73.5893 73.7908 73.356 73.7045 73.0705 73.7045C72.8745 73.7045 72.6912 73.7567 72.5208 73.8612C72.3525 73.9656 72.2161 74.1104 72.1117 74.2958C72.0094 74.479 71.9583 74.6911 71.9583 74.9318V78H71.204ZM81.0845 78.1023C80.6115 78.1023 80.2035 77.9979 79.8604 77.7891C79.5195 77.5781 79.2564 77.2841 79.071 76.907C78.8878 76.5277 78.7962 76.0866 78.7962 75.5838C78.7962 75.081 78.8878 74.6378 79.071 74.2543C79.2564 73.8686 79.5142 73.5682 79.8445 73.353C80.1768 73.1357 80.5646 73.027 81.0078 73.027C81.2635 73.027 81.516 73.0696 81.7653 73.1548C82.0146 73.2401 82.2415 73.3786 82.446 73.5703C82.6506 73.7599 82.8136 74.0114 82.935 74.3246C83.0565 74.6378 83.1172 75.0234 83.1172 75.4815V75.8011H79.3331V75.1491H82.3501C82.3501 74.8722 82.2947 74.625 82.1839 74.4077C82.0753 74.1903 81.9197 74.0188 81.7173 73.8931C81.517 73.7674 81.2805 73.7045 81.0078 73.7045C80.7074 73.7045 80.4474 73.7791 80.228 73.9283C80.0107 74.0753 79.8434 74.267 79.7262 74.5036C79.609 74.7401 79.5504 74.9936 79.5504 75.2642V75.6989C79.5504 76.0696 79.6143 76.3839 79.7422 76.6417C79.8722 76.8974 80.0522 77.0923 80.2823 77.2266C80.5124 77.3587 80.7798 77.4247 81.0845 77.4247C81.2827 77.4247 81.4616 77.397 81.6214 77.3416C81.7834 77.2841 81.9229 77.1989 82.0401 77.0859C82.1573 76.9709 82.2479 76.8281 82.3118 76.6577L83.0405 76.8622C82.9638 77.1094 82.8349 77.3267 82.6538 77.5142C82.4727 77.6996 82.2489 77.8445 81.9826 77.9489C81.7163 78.0511 81.4169 78.1023 81.0845 78.1023ZM88.9308 73.0909V73.7301H86.3867V73.0909H88.9308ZM87.1282 71.9148H87.8825V76.5938C87.8825 76.8068 87.9134 76.9666 87.9751 77.0732C88.0391 77.1776 88.12 77.2479 88.218 77.2841C88.3182 77.3182 88.4237 77.3352 88.5344 77.3352C88.6175 77.3352 88.6857 77.331 88.739 77.3224C88.7923 77.3118 88.8349 77.3033 88.8668 77.2969L89.0202 77.9744C88.9691 77.9936 88.8977 78.0128 88.8061 78.032C88.7145 78.0533 88.5984 78.0639 88.4577 78.0639C88.2447 78.0639 88.0359 78.0181 87.8313 77.9265C87.6289 77.8349 87.4606 77.6953 87.3263 77.5078C87.1942 77.3203 87.1282 77.0838 87.1282 76.7983V71.9148ZM92.0708 78.1023C91.5978 78.1023 91.1898 77.9979 90.8468 77.7891C90.5059 77.5781 90.2427 77.2841 90.0574 76.907C89.8741 76.5277 89.7825 76.0866 89.7825 75.5838C89.7825 75.081 89.8741 74.6378 90.0574 74.2543C90.2427 73.8686 90.5005 73.5682 90.8308 73.353C91.1632 73.1357 91.551 73.027 91.9941 73.027C92.2498 73.027 92.5023 73.0696 92.7516 73.1548C93.0009 73.2401 93.2278 73.3786 93.4324 73.5703C93.6369 73.7599 93.7999 74.0114 93.9213 74.3246C94.0428 74.6378 94.1035 75.0234 94.1035 75.4815V75.8011H90.3194V75.1491H93.3365C93.3365 74.8722 93.2811 74.625 93.1703 74.4077C93.0616 74.1903 92.9061 74.0188 92.7037 73.8931C92.5034 73.7674 92.2669 73.7045 91.9941 73.7045C91.6937 73.7045 91.4338 73.7791 91.2143 73.9283C90.997 74.0753 90.8297 74.267 90.7125 74.5036C90.5953 74.7401 90.5368 74.9936 90.5368 75.2642V75.6989C90.5368 76.0696 90.6007 76.3839 90.7285 76.6417C90.8585 76.8974 91.0385 77.0923 91.2686 77.2266C91.4988 77.3587 91.7662 77.4247 92.0708 77.4247C92.269 77.4247 92.448 77.397 92.6078 77.3416C92.7697 77.2841 92.9093 77.1989 93.0265 77.0859C93.1436 76.9709 93.2342 76.8281 93.2981 76.6577L94.0268 76.8622C93.9501 77.1094 93.8212 77.3267 93.6401 77.5142C93.459 77.6996 93.2353 77.8445 92.9689 77.9489C92.7026 78.0511 92.4032 78.1023 92.0708 78.1023ZM95.6816 73.0909L96.8577 75.098L98.0338 73.0909H98.9031L97.3179 75.5455L98.9031 78H98.0338L96.8577 76.0952L95.6816 78H94.8122L96.3719 75.5455L94.8122 73.0909H95.6816ZM102.114 73.0909V73.7301H99.5703V73.0909H102.114ZM100.312 71.9148H101.066V76.5938C101.066 76.8068 101.097 76.9666 101.159 77.0732C101.223 77.1776 101.304 77.2479 101.402 77.2841C101.502 77.3182 101.607 77.3352 101.718 77.3352C101.801 77.3352 101.869 77.331 101.923 77.3224C101.976 77.3118 102.018 77.3033 102.05 77.2969L102.204 77.9744C102.153 77.9936 102.081 78.0128 101.99 78.032C101.898 78.0533 101.782 78.0639 101.641 78.0639C101.428 78.0639 101.219 78.0181 101.015 77.9265C100.813 77.8349 100.644 77.6953 100.51 77.5078C100.378 77.3203 100.312 77.0838 100.312 76.7983V71.9148Z" fill="#1E757B"/>
<path d="M324.748 30.1023C324.305 30.1023 323.916 29.9968 323.582 29.7859C323.249 29.5749 322.989 29.2798 322.802 28.9006C322.616 28.5213 322.524 28.0781 322.524 27.571C322.524 27.0597 322.616 26.6133 322.802 26.2319C322.989 25.8505 323.249 25.5543 323.582 25.3434C323.916 25.1325 324.305 25.027 324.748 25.027C325.191 25.027 325.579 25.1325 325.911 25.3434C326.246 25.5543 326.506 25.8505 326.691 26.2319C326.879 26.6133 326.973 27.0597 326.973 27.571C326.973 28.0781 326.879 28.5213 326.691 28.9006C326.506 29.2798 326.246 29.5749 325.911 29.7859C325.579 29.9968 325.191 30.1023 324.748 30.1023ZM324.748 29.4247C325.085 29.4247 325.362 29.3384 325.579 29.1658C325.796 28.9933 325.957 28.7663 326.062 28.4851C326.166 28.2038 326.218 27.8991 326.218 27.571C326.218 27.2429 326.166 26.9371 326.062 26.6538C325.957 26.3704 325.796 26.1413 325.579 25.9666C325.362 25.7919 325.085 25.7045 324.748 25.7045C324.411 25.7045 324.134 25.7919 323.917 25.9666C323.7 26.1413 323.539 26.3704 323.435 26.6538C323.33 26.9371 323.278 27.2429 323.278 27.571C323.278 27.8991 323.33 28.2038 323.435 28.4851C323.539 28.7663 323.7 28.9933 323.917 29.1658C324.134 29.3384 324.411 29.4247 324.748 29.4247ZM328.878 27.0469V30H328.124V25.0909H328.853V25.858H328.917C329.032 25.6087 329.206 25.4084 329.441 25.2571C329.675 25.1037 329.978 25.027 330.348 25.027C330.681 25.027 330.972 25.0952 331.221 25.2315C331.47 25.3658 331.664 25.5703 331.803 25.8452C331.941 26.1179 332.01 26.4631 332.01 26.8807V30H331.256V26.9318C331.256 26.5462 331.156 26.2457 330.956 26.0305C330.755 25.8132 330.48 25.7045 330.131 25.7045C329.89 25.7045 329.675 25.7567 329.485 25.8612C329.298 25.9656 329.15 26.1179 329.041 26.3182C328.933 26.5185 328.878 26.7614 328.878 27.0469ZM335.447 30.1023C334.974 30.1023 334.566 29.9979 334.223 29.7891C333.882 29.5781 333.619 29.2841 333.433 28.907C333.25 28.5277 333.158 28.0866 333.158 27.5838C333.158 27.081 333.25 26.6378 333.433 26.2543C333.619 25.8686 333.877 25.5682 334.207 25.353C334.539 25.1357 334.927 25.027 335.37 25.027C335.626 25.027 335.878 25.0696 336.128 25.1548C336.377 25.2401 336.604 25.3786 336.808 25.5703C337.013 25.7599 337.176 26.0114 337.297 26.3246C337.419 26.6378 337.479 27.0234 337.479 27.4815V27.8011H333.695V27.1491H336.712C336.712 26.8722 336.657 26.625 336.546 26.4077C336.438 26.1903 336.282 26.0188 336.08 25.8931C335.879 25.7674 335.643 25.7045 335.37 25.7045C335.07 25.7045 334.81 25.7791 334.59 25.9283C334.373 26.0753 334.206 26.267 334.089 26.5036C333.971 26.7401 333.913 26.9936 333.913 27.2642V27.6989C333.913 28.0696 333.977 28.3839 334.104 28.6417C334.234 28.8974 334.415 29.0923 334.645 29.2266C334.875 29.3587 335.142 29.4247 335.447 29.4247C335.645 29.4247 335.824 29.397 335.984 29.3416C336.146 29.2841 336.285 29.1989 336.402 29.0859C336.52 28.9709 336.61 28.8281 336.674 28.6577L337.403 28.8622C337.326 29.1094 337.197 29.3267 337.016 29.5142C336.835 29.6996 336.611 29.8445 336.345 29.9489C336.079 30.0511 335.779 30.1023 335.447 30.1023Z" fill="#1E757B"/>
<path d="M337.933 73.0909V73.7301H335.389V73.0909H337.933ZM336.13 71.9148H336.884V76.5938C336.884 76.8068 336.915 76.9666 336.977 77.0732C337.041 77.1776 337.122 77.2479 337.22 77.2841C337.32 77.3182 337.426 77.3352 337.536 77.3352C337.619 77.3352 337.688 77.331 337.741 77.3224C337.794 77.3118 337.837 77.3033 337.869 77.2969L338.022 77.9744C337.971 77.9936 337.9 78.0128 337.808 78.032C337.716 78.0533 337.6 78.0639 337.46 78.0639C337.247 78.0639 337.038 78.0181 336.833 77.9265C336.631 77.8349 336.463 77.6953 336.328 77.5078C336.196 77.3203 336.13 77.0838 336.13 76.7983V71.9148ZM340.18 78L338.684 73.0909H339.476L340.537 76.8494H340.589L341.637 73.0909H342.442L343.478 76.8366H343.529L344.59 73.0909H345.383L343.887 78H343.145L342.072 74.2287H341.995L340.921 78H340.18ZM348.207 78.1023C347.764 78.1023 347.375 77.9968 347.041 77.7859C346.708 77.5749 346.448 77.2798 346.261 76.9006C346.075 76.5213 345.983 76.0781 345.983 75.571C345.983 75.0597 346.075 74.6133 346.261 74.2319C346.448 73.8505 346.708 73.5543 347.041 73.3434C347.375 73.1325 347.764 73.027 348.207 73.027C348.65 73.027 349.038 73.1325 349.37 73.3434C349.705 73.5543 349.965 73.8505 350.15 74.2319C350.338 74.6133 350.432 75.0597 350.432 75.571C350.432 76.0781 350.338 76.5213 350.15 76.9006C349.965 77.2798 349.705 77.5749 349.37 77.7859C349.038 77.9968 348.65 78.1023 348.207 78.1023ZM348.207 77.4247C348.544 77.4247 348.821 77.3384 349.038 77.1658C349.255 76.9933 349.416 76.7663 349.521 76.4851C349.625 76.2038 349.677 75.8991 349.677 75.571C349.677 75.2429 349.625 74.9371 349.521 74.6538C349.416 74.3704 349.255 74.1413 349.038 73.9666C348.821 73.7919 348.544 73.7045 348.207 73.7045C347.87 73.7045 347.593 73.7919 347.376 73.9666C347.159 74.1413 346.998 74.3704 346.894 74.6538C346.789 74.9371 346.737 75.2429 346.737 75.571C346.737 75.8991 346.789 76.2038 346.894 76.4851C346.998 76.7663 347.159 76.9933 347.376 77.1658C347.593 77.3384 347.87 77.4247 348.207 77.4247Z" fill="#1E757B"/>
<path d="M319.141 122.091V122.73H316.597V122.091H319.141ZM317.339 120.915H318.093V125.594C318.093 125.807 318.124 125.967 318.186 126.073C318.25 126.178 318.33 126.248 318.428 126.284C318.529 126.318 318.634 126.335 318.745 126.335C318.828 126.335 318.896 126.331 318.949 126.322C319.003 126.312 319.045 126.303 319.077 126.297L319.231 126.974C319.18 126.994 319.108 127.013 319.017 127.032C318.925 127.053 318.809 127.064 318.668 127.064C318.455 127.064 318.246 127.018 318.042 126.926C317.839 126.835 317.671 126.695 317.537 126.508C317.405 126.32 317.339 126.084 317.339 125.798V120.915ZM321.136 124.047V127H320.381V120.455H321.136V122.858H321.199C321.314 122.604 321.487 122.403 321.717 122.254C321.949 122.103 322.258 122.027 322.644 122.027C322.979 122.027 323.272 122.094 323.523 122.228C323.774 122.36 323.969 122.564 324.108 122.839C324.248 123.112 324.319 123.459 324.319 123.881V127H323.564V123.932C323.564 123.542 323.463 123.24 323.261 123.027C323.061 122.812 322.783 122.705 322.427 122.705C322.18 122.705 321.958 122.757 321.762 122.861C321.568 122.966 321.415 123.118 321.302 123.318C321.191 123.518 321.136 123.761 321.136 124.047ZM325.699 127V122.091H326.427V122.832H326.478C326.568 122.589 326.73 122.392 326.964 122.241C327.199 122.09 327.463 122.014 327.757 122.014C327.812 122.014 327.882 122.015 327.965 122.017C328.048 122.02 328.111 122.023 328.153 122.027V122.794C328.128 122.788 328.069 122.778 327.977 122.765C327.888 122.75 327.793 122.743 327.693 122.743C327.454 122.743 327.241 122.793 327.054 122.893C326.868 122.991 326.721 123.127 326.613 123.302C326.506 123.475 326.453 123.672 326.453 123.893V127H325.699ZM330.956 127.102C330.483 127.102 330.075 126.998 329.732 126.789C329.391 126.578 329.128 126.284 328.943 125.907C328.759 125.528 328.668 125.087 328.668 124.584C328.668 124.081 328.759 123.638 328.943 123.254C329.128 122.869 329.386 122.568 329.716 122.353C330.048 122.136 330.436 122.027 330.879 122.027C331.135 122.027 331.388 122.07 331.637 122.155C331.886 122.24 332.113 122.379 332.318 122.57C332.522 122.76 332.685 123.011 332.807 123.325C332.928 123.638 332.989 124.023 332.989 124.482V124.801H329.205V124.149H332.222C332.222 123.872 332.166 123.625 332.056 123.408C331.947 123.19 331.791 123.019 331.589 122.893C331.389 122.767 331.152 122.705 330.879 122.705C330.579 122.705 330.319 122.779 330.1 122.928C329.882 123.075 329.715 123.267 329.598 123.504C329.481 123.74 329.422 123.994 329.422 124.264V124.699C329.422 125.07 329.486 125.384 329.614 125.642C329.744 125.897 329.924 126.092 330.154 126.227C330.384 126.359 330.651 126.425 330.956 126.425C331.154 126.425 331.333 126.397 331.493 126.342C331.655 126.284 331.795 126.199 331.912 126.086C332.029 125.971 332.119 125.828 332.183 125.658L332.912 125.862C332.835 126.109 332.706 126.327 332.525 126.514C332.344 126.7 332.121 126.844 331.854 126.949C331.588 127.051 331.288 127.102 330.956 127.102ZM336.194 127.102C335.721 127.102 335.313 126.998 334.97 126.789C334.629 126.578 334.366 126.284 334.181 125.907C333.998 125.528 333.906 125.087 333.906 124.584C333.906 124.081 333.998 123.638 334.181 123.254C334.366 122.869 334.624 122.568 334.954 122.353C335.287 122.136 335.674 122.027 336.118 122.027C336.373 122.027 336.626 122.07 336.875 122.155C337.124 122.24 337.351 122.379 337.556 122.57C337.76 122.76 337.923 123.011 338.045 123.325C338.166 123.638 338.227 124.023 338.227 124.482V124.801H334.443V124.149H337.46C337.46 123.872 337.405 123.625 337.294 123.408C337.185 123.19 337.03 123.019 336.827 122.893C336.627 122.767 336.39 122.705 336.118 122.705C335.817 122.705 335.557 122.779 335.338 122.928C335.121 123.075 334.953 123.267 334.836 123.504C334.719 123.74 334.66 123.994 334.66 124.264V124.699C334.66 125.07 334.724 125.384 334.852 125.642C334.982 125.897 335.162 126.092 335.392 126.227C335.622 126.359 335.89 126.425 336.194 126.425C336.393 126.425 336.572 126.397 336.731 126.342C336.893 126.284 337.033 126.199 337.15 126.086C337.267 125.971 337.358 125.828 337.422 125.658L338.15 125.862C338.074 126.109 337.945 126.327 337.764 126.514C337.583 126.7 337.359 126.844 337.092 126.949C336.826 127.051 336.527 127.102 336.194 127.102Z" fill="#1E757B"/>
</svg>
