<svg width="205" height="163" viewBox="0 0 205 163" fill="none" xmlns="http://www.w3.org/2000/svg">
<rect x="0.5" y="0.5" width="38" height="31" rx="7.5" fill="#F7FFF5"/>
<rect x="0.5" y="0.5" width="38" height="31" rx="7.5" stroke="#1E757B"/>
<path d="M10.8279 20V12.2473H13.7351C14.3307 12.2473 14.8304 12.3583 15.2342 12.5804C15.6405 12.8025 15.9471 13.1078 16.1541 13.4965C16.3635 13.8826 16.4683 14.3217 16.4683 14.8138C16.4683 15.311 16.3635 15.7527 16.1541 16.1388C15.9446 16.5249 15.6355 16.829 15.2266 17.0511C14.8178 17.2706 14.3143 17.3804 13.7162 17.3804H11.7894V16.2258H13.5269C13.8752 16.2258 14.1604 16.1653 14.3825 16.0441C14.6045 15.923 14.7686 15.7564 14.8746 15.5445C14.9831 15.3325 15.0374 15.0889 15.0374 14.8138C15.0374 14.5388 14.9831 14.2965 14.8746 14.087C14.7686 13.8776 14.6033 13.7148 14.3787 13.5987C14.1566 13.4801 13.8702 13.4208 13.5194 13.4208H12.2323V20H10.8279ZM19.1967 20.1174C18.8282 20.1174 18.4964 20.0517 18.2011 19.9205C17.9084 19.7867 17.6762 19.5899 17.5046 19.33C17.3355 19.07 17.2509 18.7495 17.2509 18.3684C17.2509 18.0404 17.3115 17.7691 17.4326 17.5546C17.5538 17.34 17.7191 17.1684 17.9285 17.0397C18.138 16.911 18.374 16.8139 18.6364 16.7482C18.9014 16.6801 19.1752 16.6309 19.4579 16.6006C19.7986 16.5653 20.0749 16.5337 20.2869 16.506C20.4989 16.4757 20.6528 16.4303 20.7487 16.3697C20.8472 16.3066 20.8964 16.2094 20.8964 16.0782V16.0555C20.8964 15.7703 20.8118 15.5495 20.6428 15.393C20.4737 15.2366 20.2301 15.1583 19.9121 15.1583C19.5765 15.1583 19.3103 15.2315 19.1134 15.3779C18.9191 15.5243 18.7879 15.6971 18.7197 15.8965L17.4402 15.7148C17.5412 15.3615 17.7077 15.0662 17.9399 14.829C18.1721 14.5892 18.456 14.4101 18.7916 14.2914C19.1273 14.1703 19.4983 14.1097 19.9046 14.1097C20.1847 14.1097 20.4636 14.1426 20.7412 14.2082C21.0188 14.2738 21.2724 14.3823 21.5021 14.5337C21.7317 14.6826 21.9159 14.8858 22.0547 15.1432C22.1961 15.4006 22.2667 15.7224 22.2667 16.1085V20H20.9494V19.2013H20.904C20.8207 19.3628 20.7033 19.5142 20.5519 19.6555C20.403 19.7943 20.215 19.9066 19.9879 19.9924C19.7633 20.0757 19.4995 20.1174 19.1967 20.1174ZM19.5525 19.1104C19.8276 19.1104 20.0661 19.0561 20.268 18.9476C20.4699 18.8366 20.6251 18.6902 20.7336 18.5085C20.8446 18.3268 20.9002 18.1287 20.9002 17.9142V17.229C20.8573 17.2643 20.7841 17.2971 20.6806 17.3274C20.5797 17.3577 20.4661 17.3842 20.3399 17.4069C20.2137 17.4296 20.0888 17.4498 19.9651 17.4675C19.8415 17.4852 19.7342 17.5003 19.6434 17.5129C19.439 17.5407 19.256 17.5861 19.0945 17.6492C18.933 17.7123 18.8055 17.8006 18.7121 17.9142C18.6188 18.0252 18.5721 18.1691 18.5721 18.3457C18.5721 18.5981 18.6642 18.7886 18.8484 18.9173C19.0326 19.0461 19.2673 19.1104 19.5525 19.1104ZM24.7652 14.1855L25.9387 16.3318L27.1311 14.1855H28.581L26.8283 17.0927L28.6113 20H27.169L25.9387 17.9066L24.7197 20H23.2661L25.0377 17.0927L23.3115 14.1855H24.7652Z" fill="#1E757B"/>
<rect x="0.5" y="131.5" width="38" height="31" rx="7.5" fill="#F7FFF5"/>
<rect x="0.5" y="131.5" width="38" height="31" rx="7.5" stroke="#1E757B"/>
<path d="M10.8279 151V143.247H13.7351C14.3307 143.247 14.8304 143.358 15.2342 143.58C15.6405 143.802 15.9471 144.108 16.1541 144.496C16.3635 144.883 16.4683 145.322 16.4683 145.814C16.4683 146.311 16.3635 146.753 16.1541 147.139C15.9446 147.525 15.6355 147.829 15.2266 148.051C14.8178 148.271 14.3143 148.38 13.7162 148.38H11.7894V147.226H13.5269C13.8752 147.226 14.1604 147.165 14.3825 147.044C14.6045 146.923 14.7686 146.756 14.8746 146.544C14.9831 146.332 15.0374 146.089 15.0374 145.814C15.0374 145.539 14.9831 145.296 14.8746 145.087C14.7686 144.878 14.6033 144.715 14.3787 144.599C14.1566 144.48 13.8702 144.421 13.5194 144.421H12.2323V151H10.8279ZM19.1967 151.117C18.8282 151.117 18.4964 151.052 18.2011 150.921C17.9084 150.787 17.6762 150.59 17.5046 150.33C17.3355 150.07 17.2509 149.75 17.2509 149.368C17.2509 149.04 17.3115 148.769 17.4326 148.555C17.5538 148.34 17.7191 148.168 17.9285 148.04C18.138 147.911 18.374 147.814 18.6364 147.748C18.9014 147.68 19.1752 147.631 19.4579 147.601C19.7986 147.565 20.0749 147.534 20.2869 147.506C20.4989 147.476 20.6528 147.43 20.7487 147.37C20.8472 147.307 20.8964 147.209 20.8964 147.078V147.055C20.8964 146.77 20.8118 146.55 20.6428 146.393C20.4737 146.237 20.2301 146.158 19.9121 146.158C19.5765 146.158 19.3103 146.232 19.1134 146.378C18.9191 146.524 18.7879 146.697 18.7197 146.897L17.4402 146.715C17.5412 146.361 17.7077 146.066 17.9399 145.829C18.1721 145.589 18.456 145.41 18.7916 145.291C19.1273 145.17 19.4983 145.11 19.9046 145.11C20.1847 145.11 20.4636 145.143 20.7412 145.208C21.0188 145.274 21.2724 145.382 21.5021 145.534C21.7317 145.683 21.9159 145.886 22.0547 146.143C22.1961 146.401 22.2667 146.722 22.2667 147.108V151H20.9494V150.201H20.904C20.8207 150.363 20.7033 150.514 20.5519 150.656C20.403 150.794 20.215 150.907 19.9879 150.992C19.7633 151.076 19.4995 151.117 19.1967 151.117ZM19.5525 150.11C19.8276 150.11 20.0661 150.056 20.268 149.948C20.4699 149.837 20.6251 149.69 20.7336 149.509C20.8446 149.327 20.9002 149.129 20.9002 148.914V148.229C20.8573 148.264 20.7841 148.297 20.6806 148.327C20.5797 148.358 20.4661 148.384 20.3399 148.407C20.2137 148.43 20.0888 148.45 19.9651 148.467C19.8415 148.485 19.7342 148.5 19.6434 148.513C19.439 148.541 19.256 148.586 19.0945 148.649C18.933 148.712 18.8055 148.801 18.7121 148.914C18.6188 149.025 18.5721 149.169 18.5721 149.346C18.5721 149.598 18.6642 149.789 18.8484 149.917C19.0326 150.046 19.2673 150.11 19.5525 150.11ZM24.7652 145.185L25.9387 147.332L27.1311 145.185H28.581L26.8283 148.093L28.6113 151H27.169L25.9387 148.907L24.7197 151H23.2661L25.0377 148.093L23.3115 145.185H24.7652Z" fill="#1E757B"/>
<rect x="166.507" y="131.5" width="38" height="31" rx="7.5" fill="#F7FFF5"/>
<rect x="166.507" y="131.5" width="38" height="31" rx="7.5" stroke="#1E757B"/>
<path d="M176.835 151V143.247H179.742C180.338 143.247 180.837 143.358 181.241 143.58C181.647 143.802 181.954 144.108 182.161 144.496C182.37 144.883 182.475 145.322 182.475 145.814C182.475 146.311 182.37 146.753 182.161 147.139C181.951 147.525 181.642 147.829 181.233 148.051C180.825 148.271 180.321 148.38 179.723 148.38H177.796V147.226H179.534C179.882 147.226 180.167 147.165 180.389 147.044C180.611 146.923 180.775 146.756 180.881 146.544C180.99 146.332 181.044 146.089 181.044 145.814C181.044 145.539 180.99 145.296 180.881 145.087C180.775 144.878 180.61 144.715 180.386 144.599C180.163 144.48 179.877 144.421 179.526 144.421H178.239V151H176.835ZM185.204 151.117C184.835 151.117 184.503 151.052 184.208 150.921C183.915 150.787 183.683 150.59 183.511 150.33C183.342 150.07 183.258 149.75 183.258 149.368C183.258 149.04 183.318 148.769 183.439 148.555C183.561 148.34 183.726 148.168 183.935 148.04C184.145 147.911 184.381 147.814 184.643 147.748C184.908 147.68 185.182 147.631 185.465 147.601C185.805 147.565 186.082 147.534 186.294 147.506C186.506 147.476 186.66 147.43 186.756 147.37C186.854 147.307 186.903 147.209 186.903 147.078V147.055C186.903 146.77 186.819 146.55 186.65 146.393C186.481 146.237 186.237 146.158 185.919 146.158C185.583 146.158 185.317 146.232 185.12 146.378C184.926 146.524 184.795 146.697 184.727 146.897L183.447 146.715C183.548 146.361 183.715 146.066 183.947 145.829C184.179 145.589 184.463 145.41 184.798 145.291C185.134 145.17 185.505 145.11 185.911 145.11C186.192 145.11 186.47 145.143 186.748 145.208C187.026 145.274 187.279 145.382 187.509 145.534C187.739 145.683 187.923 145.886 188.062 146.143C188.203 146.401 188.274 146.722 188.274 147.108V151H186.956V150.201H186.911C186.828 150.363 186.71 150.514 186.559 150.656C186.41 150.794 186.222 150.907 185.995 150.992C185.77 151.076 185.506 151.117 185.204 151.117ZM185.559 150.11C185.834 150.11 186.073 150.056 186.275 149.948C186.477 149.837 186.632 149.69 186.74 149.509C186.851 149.327 186.907 149.129 186.907 148.914V148.229C186.864 148.264 186.791 148.297 186.687 148.327C186.586 148.358 186.473 148.384 186.347 148.407C186.221 148.43 186.096 148.45 185.972 148.467C185.848 148.485 185.741 148.5 185.65 148.513C185.446 148.541 185.263 148.586 185.101 148.649C184.94 148.712 184.812 148.801 184.719 148.914C184.626 149.025 184.579 149.169 184.579 149.346C184.579 149.598 184.671 149.789 184.855 149.917C185.039 150.046 185.274 150.11 185.559 150.11ZM190.772 145.185L191.946 147.332L193.138 145.185H194.588L192.835 148.093L194.618 151H193.176L191.946 148.907L190.727 151H189.273L191.045 148.093L189.318 145.185H190.772Z" fill="#1E757B"/>
<rect x="168.507" y="0.5" width="36" height="31" rx="7.5" fill="#F7FFF5"/>
<rect x="168.507" y="0.5" width="36" height="31" rx="7.5" stroke="#1E757B"/>
<path d="M178.774 13.4246V12.2473H184.96V13.4246H182.564V20H181.171V13.4246H178.774ZM186.092 20V14.1855H187.462V20H186.092ZM186.781 13.3602C186.564 13.3602 186.377 13.2883 186.221 13.1444C186.064 12.9981 185.986 12.8227 185.986 12.6183C185.986 12.4113 186.064 12.2359 186.221 12.0921C186.377 11.9457 186.564 11.8725 186.781 11.8725C187 11.8725 187.187 11.9457 187.341 12.0921C187.498 12.2359 187.576 12.4113 187.576 12.6183C187.576 12.8227 187.498 12.9981 187.341 13.1444C187.187 13.2883 187 13.3602 186.781 13.3602ZM190.242 16.593V20H188.871V14.1855H190.181V15.1735H190.249C190.383 14.8479 190.596 14.5892 190.889 14.3974C191.184 14.2056 191.549 14.1097 191.983 14.1097C192.384 14.1097 192.734 14.1955 193.032 14.3672C193.332 14.5388 193.564 14.7874 193.728 15.1129C193.895 15.4385 193.977 15.8334 193.974 16.2978V20H192.604V16.5098C192.604 16.1211 192.503 15.817 192.301 15.5975C192.102 15.3779 191.825 15.2681 191.472 15.2681C191.232 15.2681 191.019 15.3211 190.832 15.4271C190.648 15.5306 190.503 15.6807 190.397 15.8776C190.293 16.0744 190.242 16.3129 190.242 16.593Z" fill="#1E757B"/>
<line x1="20.5" y1="32" x2="20.5" y2="131" stroke="#1E757B"/>
<line x1="187.507" y1="32" x2="187.507" y2="131" stroke="#1E757B"/>
<path d="M187.354 57.3536C187.549 57.1583 187.549 56.8417 187.354 56.6464L184.172 53.4645C183.976 53.2692 183.66 53.2692 183.464 53.4645C183.269 53.6597 183.269 53.9763 183.464 54.1716L186.293 57L183.464 59.8284C183.269 60.0237 183.269 60.3403 183.464 60.5355C183.66 60.7308 183.976 60.7308 184.172 60.5355L187.354 57.3536ZM20 57.5L187 57.5V56.5L20 56.5V57.5Z" fill="#1F2937"/>
<path d="M187.354 75.3536C187.549 75.1583 187.549 74.8417 187.354 74.6464L184.172 71.4645C183.976 71.2692 183.66 71.2692 183.464 71.4645C183.269 71.6597 183.269 71.9763 183.464 72.1716L186.293 75L183.464 77.8284C183.269 78.0237 183.269 78.3403 183.464 78.5355C183.66 78.7308 183.976 78.7308 184.172 78.5355L187.354 75.3536ZM20 75.5H187V74.5H20V75.5Z" fill="#1F2937"/>
<path d="M60.8141 53V46.4545H61.6067V49.3693H65.0968V46.4545H65.8894V53H65.0968V50.0724H61.6067V53H60.8141ZM67.3739 53V48.0909H68.1282V53H67.3739ZM67.7575 47.2727C67.6104 47.2727 67.4837 47.2227 67.3771 47.1225C67.2727 47.0224 67.2205 46.902 67.2205 46.7614C67.2205 46.6207 67.2727 46.5004 67.3771 46.4002C67.4837 46.3001 67.6104 46.25 67.7575 46.25C67.9045 46.25 68.0302 46.3001 68.1346 46.4002C68.2411 46.5004 68.2944 46.6207 68.2944 46.7614C68.2944 46.902 68.2411 47.0224 68.1346 47.1225C68.0302 47.2227 67.9045 47.2727 67.7575 47.2727ZM71.7852 47.1577V46.4545H76.6943V47.1577H74.6361V53H73.8435V47.1577H71.7852ZM77.8153 53V48.0909H78.5696V53H77.8153ZM78.1989 47.2727C78.0518 47.2727 77.9251 47.2227 77.8185 47.1225C77.7141 47.0224 77.6619 46.902 77.6619 46.7614C77.6619 46.6207 77.7141 46.5004 77.8185 46.4002C77.9251 46.3001 78.0518 46.25 78.1989 46.25C78.3459 46.25 78.4716 46.3001 78.576 46.4002C78.6825 46.5004 78.7358 46.6207 78.7358 46.7614C78.7358 46.902 78.6825 47.0224 78.576 47.1225C78.4716 47.2227 78.3459 47.2727 78.1989 47.2727ZM80.7053 50.0469V53H79.9511V48.0909H80.6798V48.858H80.7437C80.8588 48.6087 81.0335 48.4084 81.2678 48.2571C81.5022 48.1037 81.8048 48.027 82.1755 48.027C82.5079 48.027 82.7987 48.0952 83.048 48.2315C83.2973 48.3658 83.4912 48.5703 83.6297 48.8452C83.7682 49.1179 83.8374 49.4631 83.8374 49.8807V53H83.0832V49.9318C83.0832 49.5462 82.983 49.2457 82.7828 49.0305C82.5825 48.8132 82.3076 48.7045 81.9582 48.7045C81.7174 48.7045 81.5022 48.7567 81.3126 48.8612C81.1251 48.9656 80.977 49.1179 80.8683 49.3182C80.7597 49.5185 80.7053 49.7614 80.7053 50.0469ZM86.3407 52.1051L86.2896 52.4503C86.2534 52.6932 86.198 52.9531 86.1234 53.2301C86.051 53.5071 85.9753 53.7681 85.8965 54.0131C85.8176 54.2582 85.7527 54.4531 85.7015 54.598H85.1262C85.1539 54.4616 85.1902 54.2816 85.2349 54.0579C85.2797 53.8342 85.3244 53.5838 85.3691 53.3068C85.416 53.032 85.4544 52.7507 85.4842 52.4631L85.5225 52.1051H86.3407ZM91.0237 50.0469V53H90.2694V46.4545H91.0237V48.858H91.0876C91.2027 48.6044 91.3753 48.4031 91.6054 48.2539C91.8376 48.1026 92.1466 48.027 92.5322 48.027C92.8667 48.027 93.1597 48.0941 93.4111 48.2283C93.6626 48.3604 93.8575 48.5639 93.996 48.8388C94.1366 49.1115 94.2069 49.4588 94.2069 49.8807V53H93.4527V49.9318C93.4527 49.5419 93.3515 49.2404 93.1491 49.0273C92.9488 48.8121 92.6707 48.7045 92.3149 48.7045C92.0677 48.7045 91.8461 48.7567 91.6501 48.8612C91.4562 48.9656 91.3028 49.1179 91.1899 49.3182C91.0791 49.5185 91.0237 49.7614 91.0237 50.0469ZM97.5811 53.1023C97.138 53.1023 96.7491 52.9968 96.4146 52.7859C96.0822 52.5749 95.8223 52.2798 95.6348 51.9006C95.4494 51.5213 95.3567 51.0781 95.3567 50.571C95.3567 50.0597 95.4494 49.6133 95.6348 49.2319C95.8223 48.8505 96.0822 48.5543 96.4146 48.3434C96.7491 48.1325 97.138 48.027 97.5811 48.027C98.0243 48.027 98.4121 48.1325 98.7445 48.3434C99.079 48.5543 99.339 48.8505 99.5243 49.2319C99.7118 49.6133 99.8056 50.0597 99.8056 50.571C99.8056 51.0781 99.7118 51.5213 99.5243 51.9006C99.339 52.2798 99.079 52.5749 98.7445 52.7859C98.4121 52.9968 98.0243 53.1023 97.5811 53.1023ZM97.5811 52.4247C97.9178 52.4247 98.1948 52.3384 98.4121 52.1658C98.6294 51.9933 98.7903 51.7663 98.8947 51.4851C98.9991 51.2038 99.0513 50.8991 99.0513 50.571C99.0513 50.2429 98.9991 49.9371 98.8947 49.6538C98.7903 49.3704 98.6294 49.1413 98.4121 48.9666C98.1948 48.7919 97.9178 48.7045 97.5811 48.7045C97.2445 48.7045 96.9675 48.7919 96.7502 48.9666C96.5328 49.1413 96.372 49.3704 96.2676 49.6538C96.1632 49.9371 96.111 50.2429 96.111 50.571C96.111 50.8991 96.1632 51.2038 96.2676 51.4851C96.372 51.7663 96.5328 51.9933 96.7502 52.1658C96.9675 52.3384 97.2445 52.4247 97.5811 52.4247ZM101.902 53L100.406 48.0909H101.199L102.26 51.8494H102.311L103.36 48.0909H104.165L105.2 51.8366H105.252L106.313 48.0909H107.105L105.61 53H104.868L103.794 49.2287H103.718L102.644 53H101.902ZM112.078 53.1151C111.767 53.1151 111.485 53.0565 111.231 52.9393C110.978 52.82 110.776 52.6484 110.627 52.4247C110.478 52.1989 110.404 51.9261 110.404 51.6065C110.404 51.3253 110.459 51.0973 110.57 50.9226C110.681 50.7457 110.829 50.6072 111.014 50.5071C111.199 50.407 111.404 50.3324 111.628 50.2834C111.854 50.2322 112.08 50.1918 112.308 50.1619C112.607 50.1236 112.849 50.0948 113.034 50.0756C113.221 50.0543 113.358 50.0192 113.443 49.9702C113.53 49.9212 113.574 49.8359 113.574 49.7145V49.6889C113.574 49.3736 113.488 49.1286 113.315 48.9538C113.145 48.7791 112.886 48.6918 112.539 48.6918C112.178 48.6918 111.896 48.7706 111.692 48.9283C111.487 49.0859 111.343 49.2543 111.26 49.4332L110.544 49.1776C110.672 48.8793 110.843 48.647 111.056 48.4808C111.271 48.3125 111.505 48.1953 111.759 48.1293C112.014 48.0611 112.266 48.027 112.513 48.027C112.671 48.027 112.852 48.0462 113.056 48.0845C113.263 48.1207 113.462 48.1964 113.654 48.3114C113.848 48.4265 114.009 48.6001 114.137 48.8324C114.264 49.0646 114.328 49.3757 114.328 49.7656V53H113.574V52.3352H113.536C113.485 52.4418 113.399 52.5558 113.28 52.6772C113.161 52.7987 113.002 52.902 112.804 52.9872C112.606 53.0724 112.364 53.1151 112.078 53.1151ZM112.193 52.4375C112.492 52.4375 112.743 52.3789 112.948 52.2617C113.154 52.1445 113.31 51.9933 113.414 51.8079C113.521 51.6225 113.574 51.4276 113.574 51.223V50.5327C113.542 50.571 113.472 50.6062 113.363 50.6381C113.257 50.668 113.133 50.6946 112.992 50.718C112.854 50.7393 112.719 50.7585 112.586 50.7756C112.456 50.7905 112.351 50.8033 112.27 50.8139C112.074 50.8395 111.891 50.881 111.72 50.9386C111.552 50.994 111.416 51.0781 111.311 51.1911C111.209 51.3018 111.158 51.4531 111.158 51.6449C111.158 51.907 111.255 52.1051 111.449 52.2393C111.645 52.3714 111.893 52.4375 112.193 52.4375ZM115.705 53V48.0909H116.434V48.8324H116.485C116.574 48.5895 116.736 48.3924 116.971 48.2411C117.205 48.0898 117.469 48.0142 117.763 48.0142C117.819 48.0142 117.888 48.0153 117.971 48.0174C118.054 48.0195 118.117 48.0227 118.16 48.027V48.794C118.134 48.7876 118.075 48.7781 117.984 48.7653C117.894 48.7504 117.799 48.7429 117.699 48.7429C117.461 48.7429 117.248 48.793 117.06 48.8931C116.875 48.9911 116.728 49.1275 116.619 49.3022C116.513 49.4748 116.459 49.6719 116.459 49.8935V53H115.705ZM120.962 53.1023C120.489 53.1023 120.081 52.9979 119.738 52.7891C119.397 52.5781 119.134 52.2841 118.949 51.907C118.766 51.5277 118.674 51.0866 118.674 50.5838C118.674 50.081 118.766 49.6378 118.949 49.2543C119.134 48.8686 119.392 48.5682 119.722 48.353C120.055 48.1357 120.443 48.027 120.886 48.027C121.141 48.027 121.394 48.0696 121.643 48.1548C121.892 48.2401 122.119 48.3786 122.324 48.5703C122.528 48.7599 122.691 49.0114 122.813 49.3246C122.934 49.6378 122.995 50.0234 122.995 50.4815V50.8011H119.211V50.1491H122.228C122.228 49.8722 122.173 49.625 122.062 49.4077C121.953 49.1903 121.798 49.0188 121.595 48.8931C121.395 48.7674 121.158 48.7045 120.886 48.7045C120.585 48.7045 120.325 48.7791 120.106 48.9283C119.889 49.0753 119.721 49.267 119.604 49.5036C119.487 49.7401 119.428 49.9936 119.428 50.2642V50.6989C119.428 51.0696 119.492 51.3839 119.62 51.6417C119.75 51.8974 119.93 52.0923 120.16 52.2266C120.39 52.3587 120.658 52.4247 120.962 52.4247C121.161 52.4247 121.34 52.397 121.499 52.3416C121.661 52.2841 121.801 52.1989 121.918 52.0859C122.035 51.9709 122.126 51.8281 122.19 51.6577L122.918 51.8622C122.842 52.1094 122.713 52.3267 122.532 52.5142C122.351 52.6996 122.127 52.8445 121.861 52.9489C121.594 53.0511 121.295 53.1023 120.962 53.1023ZM127.16 54.8409C127.032 54.8409 126.918 54.8303 126.818 54.8089C126.717 54.7898 126.648 54.7706 126.61 54.7514L126.802 54.0866C126.985 54.1335 127.147 54.1506 127.287 54.1378C127.428 54.125 127.553 54.0621 127.661 53.9492C127.772 53.8384 127.873 53.6584 127.965 53.4091L128.106 53.0256L126.29 48.0909H127.108L128.464 52.0028H128.515L129.87 48.0909H130.688L128.604 53.7159C128.51 53.9695 128.394 54.1793 128.256 54.3455C128.117 54.5138 127.956 54.6385 127.773 54.7195C127.592 54.8004 127.388 54.8409 127.16 54.8409ZM133.502 53.1023C133.059 53.1023 132.67 52.9968 132.335 52.7859C132.003 52.5749 131.743 52.2798 131.556 51.9006C131.37 51.5213 131.278 51.0781 131.278 50.571C131.278 50.0597 131.37 49.6133 131.556 49.2319C131.743 48.8505 132.003 48.5543 132.335 48.3434C132.67 48.1325 133.059 48.027 133.502 48.027C133.945 48.027 134.333 48.1325 134.665 48.3434C135 48.5543 135.26 48.8505 135.445 49.2319C135.633 49.6133 135.726 50.0597 135.726 50.571C135.726 51.0781 135.633 51.5213 135.445 51.9006C135.26 52.2798 135 52.5749 134.665 52.7859C134.333 52.9968 133.945 53.1023 133.502 53.1023ZM133.502 52.4247C133.839 52.4247 134.116 52.3384 134.333 52.1658C134.55 51.9933 134.711 51.7663 134.816 51.4851C134.92 51.2038 134.972 50.8991 134.972 50.571C134.972 50.2429 134.92 49.9371 134.816 49.6538C134.711 49.3704 134.55 49.1413 134.333 48.9666C134.116 48.7919 133.839 48.7045 133.502 48.7045C133.165 48.7045 132.888 48.7919 132.671 48.9666C132.454 49.1413 132.293 49.3704 132.188 49.6538C132.084 49.9371 132.032 50.2429 132.032 50.571C132.032 50.8991 132.084 51.2038 132.188 51.4851C132.293 51.7663 132.454 51.9933 132.671 52.1658C132.888 52.3384 133.165 52.4247 133.502 52.4247ZM139.972 50.9929V48.0909H140.726V53H139.972V52.169H139.92C139.805 52.4183 139.626 52.6303 139.384 52.805C139.141 52.9776 138.834 53.0639 138.463 53.0639C138.156 53.0639 137.884 52.9968 137.645 52.8626C137.406 52.7262 137.219 52.5217 137.082 52.2489C136.946 51.9741 136.878 51.6278 136.878 51.2102V48.0909H137.632V51.1591C137.632 51.517 137.732 51.8026 137.933 52.0156C138.135 52.2287 138.393 52.3352 138.706 52.3352C138.893 52.3352 139.084 52.2873 139.278 52.1914C139.474 52.0955 139.638 51.9485 139.77 51.7504C139.904 51.5522 139.972 51.2997 139.972 50.9929ZM143.092 51.1591V51.1207C143.096 50.7138 143.139 50.3899 143.22 50.1491C143.301 49.9084 143.416 49.7134 143.565 49.5643C143.714 49.4151 143.893 49.2777 144.102 49.152C144.227 49.0753 144.34 48.9847 144.44 48.8803C144.541 48.7738 144.619 48.6513 144.677 48.5128C144.737 48.3743 144.766 48.2209 144.766 48.0526C144.766 47.8437 144.717 47.6626 144.619 47.5092C144.521 47.3558 144.39 47.2376 144.226 47.1545C144.062 47.0714 143.88 47.0298 143.68 47.0298C143.505 47.0298 143.337 47.0661 143.175 47.1385C143.013 47.2109 142.878 47.3249 142.769 47.4805C142.66 47.636 142.597 47.8395 142.58 48.0909H141.775C141.792 47.7287 141.886 47.4187 142.056 47.1609C142.229 46.9031 142.456 46.706 142.737 46.5696C143.02 46.4332 143.335 46.3651 143.68 46.3651C144.055 46.3651 144.381 46.4396 144.658 46.5888C144.937 46.7379 145.152 46.9425 145.303 47.2024C145.457 47.4624 145.533 47.7585 145.533 48.0909C145.533 48.3253 145.497 48.5373 145.425 48.7269C145.354 48.9165 145.252 49.0859 145.118 49.2351C144.986 49.3842 144.826 49.5163 144.639 49.6314C144.451 49.7486 144.301 49.8722 144.188 50.0021C144.075 50.13 143.993 50.2823 143.942 50.4592C143.891 50.636 143.863 50.8565 143.859 51.1207V51.1591H143.092ZM143.501 53.0511C143.343 53.0511 143.208 52.9947 143.095 52.8817C142.982 52.7688 142.926 52.6335 142.926 52.4759C142.926 52.3182 142.982 52.1829 143.095 52.07C143.208 51.957 143.343 51.9006 143.501 51.9006C143.658 51.9006 143.794 51.957 143.907 52.07C144.02 52.1829 144.076 52.3182 144.076 52.4759C144.076 52.5803 144.049 52.6761 143.996 52.7635C143.945 52.8509 143.876 52.9212 143.788 52.9744C143.703 53.0256 143.607 53.0511 143.501 53.0511Z" fill="#1F2937"/>
<path d="M56.8263 65.1577V64.4545H61.7354V65.1577H59.6771V71H58.8845V65.1577H56.8263ZM62.8564 71V66.0909H63.6106V71H62.8564ZM63.2399 65.2727C63.0929 65.2727 62.9661 65.2227 62.8596 65.1225C62.7551 65.0224 62.7029 64.902 62.7029 64.7614C62.7029 64.6207 62.7551 64.5004 62.8596 64.4002C62.9661 64.3001 63.0929 64.25 63.2399 64.25C63.3869 64.25 63.5126 64.3001 63.617 64.4002C63.7235 64.5004 63.7768 64.6207 63.7768 64.7614C63.7768 64.902 63.7235 65.0224 63.617 65.1225C63.5126 65.2227 63.3869 65.2727 63.2399 65.2727ZM65.7464 68.0469V71H64.9921V66.0909H65.7208V66.858H65.7847C65.8998 66.6087 66.0745 66.4084 66.3089 66.2571C66.5432 66.1037 66.8458 66.027 67.2165 66.027C67.5489 66.027 67.8398 66.0952 68.089 66.2315C68.3383 66.3658 68.5322 66.5703 68.6707 66.8452C68.8092 67.1179 68.8785 67.4631 68.8785 67.8807V71H68.1242V67.9318C68.1242 67.5462 68.0241 67.2457 67.8238 67.0305C67.6235 66.8132 67.3486 66.7045 66.9992 66.7045C66.7584 66.7045 66.5432 66.7567 66.3536 66.8612C66.1661 66.9656 66.018 67.1179 65.9094 67.3182C65.8007 67.5185 65.7464 67.7614 65.7464 68.0469ZM71.3817 70.1051L71.3306 70.4503C71.2944 70.6932 71.239 70.9531 71.1644 71.2301C71.092 71.5071 71.0163 71.7681 70.9375 72.0131C70.8587 72.2582 70.7937 72.4531 70.7425 72.598H70.1673C70.195 72.4616 70.2312 72.2816 70.2759 72.0579C70.3207 71.8342 70.3654 71.5838 70.4102 71.3068C70.457 71.032 70.4954 70.7507 70.5252 70.4631L70.5636 70.1051H71.3817ZM77.3048 71.1023C76.8445 71.1023 76.4482 70.9936 76.1159 70.7763C75.7835 70.5589 75.5278 70.2596 75.3488 69.8782C75.1698 69.4968 75.0803 69.0611 75.0803 68.571C75.0803 68.0724 75.172 67.6325 75.3552 67.2511C75.5406 66.8675 75.7984 66.5682 76.1286 66.353C76.461 66.1357 76.8488 66.027 77.292 66.027C77.6372 66.027 77.9482 66.0909 78.2252 66.2188C78.5022 66.3466 78.7291 66.5256 78.906 66.7557C79.0828 66.9858 79.1926 67.2543 79.2352 67.5611H78.4809C78.4234 67.3374 78.2955 67.1392 78.0974 66.9666C77.9014 66.7919 77.6372 66.7045 77.3048 66.7045C77.0107 66.7045 76.7529 66.7812 76.5313 66.9347C76.3119 67.0859 76.1404 67.3001 76.0168 67.5771C75.8953 67.8519 75.8346 68.1747 75.8346 68.5455C75.8346 68.9247 75.8943 69.255 76.0136 69.5362C76.135 69.8175 76.3055 70.0359 76.5249 70.1914C76.7465 70.3469 77.0065 70.4247 77.3048 70.4247C77.5008 70.4247 77.6787 70.3906 77.8385 70.3224C77.9983 70.2543 78.1336 70.1562 78.2444 70.0284C78.3552 69.9006 78.434 69.7472 78.4809 69.5682H79.2352C79.1926 69.858 79.0871 70.119 78.9188 70.3512C78.7526 70.5813 78.532 70.7646 78.2572 70.9009C77.9845 71.0352 77.667 71.1023 77.3048 71.1023ZM81.7824 71.1151C81.4713 71.1151 81.189 71.0565 80.9355 70.9393C80.6819 70.82 80.4806 70.6484 80.3314 70.4247C80.1823 70.1989 80.1077 69.9261 80.1077 69.6065C80.1077 69.3253 80.1631 69.0973 80.2739 68.9226C80.3847 68.7457 80.5328 68.6072 80.7181 68.5071C80.9035 68.407 81.108 68.3324 81.3318 68.2834C81.5576 68.2322 81.7845 68.1918 82.0125 68.1619C82.3108 68.1236 82.5526 68.0948 82.738 68.0756C82.9255 68.0543 83.0619 68.0192 83.1471 67.9702C83.2345 67.9212 83.2781 67.8359 83.2781 67.7145V67.6889C83.2781 67.3736 83.1919 67.1286 83.0193 66.9538C82.8488 66.7791 82.5899 66.6918 82.2426 66.6918C81.8825 66.6918 81.6002 66.7706 81.3957 66.9283C81.1911 67.0859 81.0473 67.2543 80.9642 67.4332L80.2483 67.1776C80.3762 66.8793 80.5466 66.647 80.7597 66.4808C80.9749 66.3125 81.2093 66.1953 81.4628 66.1293C81.7185 66.0611 81.9699 66.027 82.2171 66.027C82.3747 66.027 82.5558 66.0462 82.7604 66.0845C82.9671 66.1207 83.1663 66.1964 83.358 66.3114C83.5519 66.4265 83.7128 66.6001 83.8406 66.8324C83.9685 67.0646 84.0324 67.3757 84.0324 67.7656V71H83.2781V70.3352H83.2398C83.1887 70.4418 83.1034 70.5558 82.9841 70.6772C82.8648 70.7987 82.7061 70.902 82.5079 70.9872C82.3097 71.0724 82.0679 71.1151 81.7824 71.1151ZM81.8975 70.4375C82.1958 70.4375 82.4472 70.3789 82.6517 70.2617C82.8584 70.1445 83.0139 69.9933 83.1183 69.8079C83.2249 69.6225 83.2781 69.4276 83.2781 69.223V68.5327C83.2462 68.571 83.1759 68.6062 83.0672 68.6381C82.9607 68.668 82.8371 68.6946 82.6965 68.718C82.558 68.7393 82.4227 68.7585 82.2906 68.7756C82.1606 68.7905 82.0551 68.8033 81.9742 68.8139C81.7781 68.8395 81.5949 68.881 81.4244 68.9386C81.2561 68.994 81.1198 69.0781 81.0154 69.1911C80.9131 69.3018 80.8619 69.4531 80.8619 69.6449C80.8619 69.907 80.9589 70.1051 81.1528 70.2393C81.3488 70.3714 81.597 70.4375 81.8975 70.4375ZM86.1634 68.0469V71H85.4091V66.0909H86.1378V66.858H86.2017C86.3168 66.6087 86.4915 66.4084 86.7259 66.2571C86.9602 66.1037 87.2628 66.027 87.6335 66.027C87.9659 66.027 88.2567 66.0952 88.506 66.2315C88.7553 66.3658 88.9492 66.5703 89.0877 66.8452C89.2262 67.1179 89.2955 67.4631 89.2955 67.8807V71H88.5412V67.9318C88.5412 67.5462 88.4411 67.2457 88.2408 67.0305C88.0405 66.8132 87.7656 66.7045 87.4162 66.7045C87.1754 66.7045 86.9602 66.7567 86.7706 66.8612C86.5831 66.9656 86.435 67.1179 86.3263 67.3182C86.2177 67.5185 86.1634 67.7614 86.1634 68.0469ZM93.6908 72.8409C93.5629 72.8409 93.449 72.8303 93.3488 72.8089C93.2487 72.7898 93.1794 72.7706 93.1411 72.7514L93.3328 72.0866C93.5161 72.1335 93.678 72.1506 93.8186 72.1378C93.9593 72.125 94.0839 72.0621 94.1926 71.9492C94.3034 71.8384 94.4046 71.6584 94.4962 71.4091L94.6368 71.0256L92.8215 66.0909H93.6396L94.9948 70.0028H95.0459L96.401 66.0909H97.2192L95.1354 71.7159C95.0416 71.9695 94.9255 72.1793 94.787 72.3455C94.6485 72.5138 94.4877 72.6385 94.3044 72.7195C94.1233 72.8004 93.9188 72.8409 93.6908 72.8409ZM100.033 71.1023C99.5901 71.1023 99.2013 70.9968 98.8667 70.7859C98.5344 70.5749 98.2744 70.2798 98.0869 69.9006C97.9015 69.5213 97.8089 69.0781 97.8089 68.571C97.8089 68.0597 97.9015 67.6133 98.0869 67.2319C98.2744 66.8505 98.5344 66.5543 98.8667 66.3434C99.2013 66.1325 99.5901 66.027 100.033 66.027C100.476 66.027 100.864 66.1325 101.197 66.3434C101.531 66.5543 101.791 66.8505 101.976 67.2319C102.164 67.6133 102.258 68.0597 102.258 68.571C102.258 69.0781 102.164 69.5213 101.976 69.9006C101.791 70.2798 101.531 70.5749 101.197 70.7859C100.864 70.9968 100.476 71.1023 100.033 71.1023ZM100.033 70.4247C100.37 70.4247 100.647 70.3384 100.864 70.1658C101.082 69.9933 101.242 69.7663 101.347 69.4851C101.451 69.2038 101.503 68.8991 101.503 68.571C101.503 68.2429 101.451 67.9371 101.347 67.6538C101.242 67.3704 101.082 67.1413 100.864 66.9666C100.647 66.7919 100.37 66.7045 100.033 66.7045C99.6966 66.7045 99.4197 66.7919 99.2023 66.9666C98.985 67.1413 98.8241 67.3704 98.7197 67.6538C98.6153 67.9371 98.5631 68.2429 98.5631 68.571C98.5631 68.8991 98.6153 69.2038 98.7197 69.4851C98.8241 69.7663 98.985 69.9933 99.2023 70.1658C99.4197 70.3384 99.6966 70.4247 100.033 70.4247ZM106.503 68.9929V66.0909H107.257V71H106.503V70.169H106.452C106.337 70.4183 106.158 70.6303 105.915 70.805C105.672 70.9776 105.365 71.0639 104.994 71.0639C104.688 71.0639 104.415 70.9968 104.176 70.8626C103.938 70.7262 103.75 70.5217 103.614 70.2489C103.477 69.9741 103.409 69.6278 103.409 69.2102V66.0909H104.163V69.1591C104.163 69.517 104.263 69.8026 104.464 70.0156C104.666 70.2287 104.924 70.3352 105.237 70.3352C105.425 70.3352 105.615 70.2873 105.809 70.1914C106.005 70.0955 106.169 69.9485 106.301 69.7504C106.436 69.5522 106.503 69.2997 106.503 68.9929ZM111.924 68.0469V71H111.17V64.4545H111.924V66.858H111.988C112.103 66.6044 112.276 66.4031 112.506 66.2539C112.738 66.1026 113.047 66.027 113.433 66.027C113.767 66.027 114.06 66.0941 114.312 66.2283C114.563 66.3604 114.758 66.5639 114.896 66.8388C115.037 67.1115 115.107 67.4588 115.107 67.8807V71H114.353V67.9318C114.353 67.5419 114.252 67.2404 114.049 67.0273C113.849 66.8121 113.571 66.7045 113.215 66.7045C112.968 66.7045 112.747 66.7567 112.551 66.8612C112.357 66.9656 112.203 67.1179 112.09 67.3182C111.979 67.5185 111.924 67.7614 111.924 68.0469ZM118.545 71.1023C118.072 71.1023 117.664 70.9979 117.321 70.7891C116.98 70.5781 116.717 70.2841 116.532 69.907C116.349 69.5277 116.257 69.0866 116.257 68.5838C116.257 68.081 116.349 67.6378 116.532 67.2543C116.717 66.8686 116.975 66.5682 117.305 66.353C117.638 66.1357 118.026 66.027 118.469 66.027C118.724 66.027 118.977 66.0696 119.226 66.1548C119.475 66.2401 119.702 66.3786 119.907 66.5703C120.112 66.7599 120.275 67.0114 120.396 67.3246C120.517 67.6378 120.578 68.0234 120.578 68.4815V68.8011H116.794V68.1491H119.811C119.811 67.8722 119.756 67.625 119.645 67.4077C119.536 67.1903 119.381 67.0188 119.178 66.8931C118.978 66.7674 118.741 66.7045 118.469 66.7045C118.168 66.7045 117.908 66.7791 117.689 66.9283C117.472 67.0753 117.304 67.267 117.187 67.5036C117.07 67.7401 117.011 67.9936 117.011 68.2642V68.6989C117.011 69.0696 117.075 69.3839 117.203 69.6417C117.333 69.8974 117.513 70.0923 117.743 70.2266C117.973 70.3587 118.241 70.4247 118.545 70.4247C118.744 70.4247 118.923 70.397 119.082 70.3416C119.244 70.2841 119.384 70.1989 119.501 70.0859C119.618 69.9709 119.709 69.8281 119.773 69.6577L120.501 69.8622C120.425 70.1094 120.296 70.3267 120.115 70.5142C119.934 70.6996 119.71 70.8445 119.444 70.9489C119.177 71.0511 118.878 71.1023 118.545 71.1023ZM123.17 71.1151C122.859 71.1151 122.577 71.0565 122.323 70.9393C122.07 70.82 121.868 70.6484 121.719 70.4247C121.57 70.1989 121.495 69.9261 121.495 69.6065C121.495 69.3253 121.551 69.0973 121.662 68.9226C121.772 68.7457 121.92 68.6072 122.106 68.5071C122.291 68.407 122.496 68.3324 122.719 68.2834C122.945 68.2322 123.172 68.1918 123.4 68.1619C123.699 68.1236 123.94 68.0948 124.126 68.0756C124.313 68.0543 124.45 68.0192 124.535 67.9702C124.622 67.9212 124.666 67.8359 124.666 67.7145V67.6889C124.666 67.3736 124.58 67.1286 124.407 66.9538C124.237 66.7791 123.978 66.6918 123.63 66.6918C123.27 66.6918 122.988 66.7706 122.783 66.9283C122.579 67.0859 122.435 67.2543 122.352 67.4332L121.636 67.1776C121.764 66.8793 121.934 66.647 122.147 66.4808C122.363 66.3125 122.597 66.1953 122.85 66.1293C123.106 66.0611 123.358 66.027 123.605 66.027C123.762 66.027 123.944 66.0462 124.148 66.0845C124.355 66.1207 124.554 66.1964 124.746 66.3114C124.94 66.4265 125.1 66.6001 125.228 66.8324C125.356 67.0646 125.42 67.3757 125.42 67.7656V71H124.666V70.3352H124.627C124.576 70.4418 124.491 70.5558 124.372 70.6772C124.252 70.7987 124.094 70.902 123.896 70.9872C123.697 71.0724 123.456 71.1151 123.17 71.1151ZM123.285 70.4375C123.583 70.4375 123.835 70.3789 124.039 70.2617C124.246 70.1445 124.402 69.9933 124.506 69.8079C124.613 69.6225 124.666 69.4276 124.666 69.223V68.5327C124.634 68.571 124.564 68.6062 124.455 68.6381C124.348 68.668 124.225 68.6946 124.084 68.718C123.946 68.7393 123.81 68.7585 123.678 68.7756C123.548 68.7905 123.443 68.8033 123.362 68.8139C123.166 68.8395 122.983 68.881 122.812 68.9386C122.644 68.994 122.507 69.0781 122.403 69.1911C122.301 69.3018 122.25 69.4531 122.25 69.6449C122.25 69.907 122.347 70.1051 122.54 70.2393C122.737 70.3714 122.985 70.4375 123.285 70.4375ZM126.797 71V66.0909H127.525V66.8324H127.577C127.666 66.5895 127.828 66.3924 128.062 66.2411C128.297 66.0898 128.561 66.0142 128.855 66.0142C128.91 66.0142 128.98 66.0153 129.063 66.0174C129.146 66.0195 129.209 66.0227 129.251 66.027V66.794C129.226 66.7876 129.167 66.7781 129.076 66.7653C128.986 66.7504 128.891 66.7429 128.791 66.7429C128.552 66.7429 128.339 66.793 128.152 66.8931C127.967 66.9911 127.82 67.1275 127.711 67.3022C127.604 67.4748 127.551 67.6719 127.551 67.8935V71H126.797ZM132.677 71V66.0909H133.405V66.858H133.469C133.572 66.5959 133.737 66.3924 133.965 66.2475C134.193 66.1005 134.466 66.027 134.786 66.027C135.11 66.027 135.379 66.1005 135.595 66.2475C135.812 66.3924 135.981 66.5959 136.103 66.858H136.154C136.28 66.6044 136.468 66.4031 136.72 66.2539C136.971 66.1026 137.273 66.027 137.624 66.027C138.063 66.027 138.422 66.1644 138.701 66.4393C138.98 66.712 139.12 67.1371 139.12 67.7145V71H138.366V67.7145C138.366 67.3523 138.267 67.0934 138.068 66.9379C137.87 66.7823 137.637 66.7045 137.368 66.7045C137.023 66.7045 136.756 66.8089 136.566 67.0178C136.377 67.2244 136.282 67.4865 136.282 67.804V71H135.515V67.6378C135.515 67.3587 135.424 67.1339 135.243 66.9634C135.062 66.7908 134.829 66.7045 134.543 66.7045C134.347 66.7045 134.164 66.7567 133.993 66.8612C133.825 66.9656 133.689 67.1104 133.584 67.2958C133.482 67.479 133.431 67.6911 133.431 67.9318V71H132.677ZM142.557 71.1023C142.084 71.1023 141.676 70.9979 141.333 70.7891C140.992 70.5781 140.729 70.2841 140.544 69.907C140.36 69.5277 140.269 69.0866 140.269 68.5838C140.269 68.081 140.36 67.6378 140.544 67.2543C140.729 66.8686 140.987 66.5682 141.317 66.353C141.65 66.1357 142.037 66.027 142.48 66.027C142.736 66.027 142.989 66.0696 143.238 66.1548C143.487 66.2401 143.714 66.3786 143.919 66.5703C144.123 66.7599 144.286 67.0114 144.408 67.3246C144.529 67.6378 144.59 68.0234 144.59 68.4815V68.8011H140.806V68.1491H143.823C143.823 67.8722 143.767 67.625 143.657 67.4077C143.548 67.1903 143.392 67.0188 143.19 66.8931C142.99 66.7674 142.753 66.7045 142.48 66.7045C142.18 66.7045 141.92 66.7791 141.701 66.9283C141.483 67.0753 141.316 67.267 141.199 67.5036C141.082 67.7401 141.023 67.9936 141.023 68.2642V68.6989C141.023 69.0696 141.087 69.3839 141.215 69.6417C141.345 69.8974 141.525 70.0923 141.755 70.2266C141.985 70.3587 142.252 70.4247 142.557 70.4247C142.755 70.4247 142.934 70.397 143.094 70.3416C143.256 70.2841 143.396 70.1989 143.513 70.0859C143.63 69.9709 143.721 69.8281 143.784 69.6577L144.513 69.8622C144.436 70.1094 144.308 70.3267 144.126 70.5142C143.945 70.6996 143.722 70.8445 143.455 70.9489C143.189 71.0511 142.89 71.1023 142.557 71.1023ZM146.722 69.1591V69.1207C146.726 68.7138 146.768 68.3899 146.849 68.1491C146.93 67.9084 147.045 67.7134 147.195 67.5643C147.344 67.4151 147.523 67.2777 147.732 67.152C147.857 67.0753 147.97 66.9847 148.07 66.8803C148.17 66.7738 148.249 66.6513 148.307 66.5128C148.366 66.3743 148.396 66.2209 148.396 66.0526C148.396 65.8437 148.347 65.6626 148.249 65.5092C148.151 65.3558 148.02 65.2376 147.856 65.1545C147.692 65.0714 147.51 65.0298 147.31 65.0298C147.135 65.0298 146.967 65.0661 146.805 65.1385C146.643 65.2109 146.507 65.3249 146.399 65.4805C146.29 65.636 146.227 65.8395 146.21 66.0909H145.405C145.422 65.7287 145.516 65.4187 145.686 65.1609C145.859 64.9031 146.086 64.706 146.367 64.5696C146.65 64.4332 146.964 64.3651 147.31 64.3651C147.685 64.3651 148.011 64.4396 148.288 64.5888C148.567 64.7379 148.782 64.9425 148.933 65.2024C149.087 65.4624 149.163 65.7585 149.163 66.0909C149.163 66.3253 149.127 66.5373 149.055 66.7269C148.984 66.9165 148.882 67.0859 148.748 67.2351C148.616 67.3842 148.456 67.5163 148.268 67.6314C148.081 67.7486 147.931 67.8722 147.818 68.0021C147.705 68.13 147.623 68.2823 147.572 68.4592C147.521 68.636 147.493 68.8565 147.489 69.1207V69.1591H146.722ZM147.131 71.0511C146.973 71.0511 146.838 70.9947 146.725 70.8817C146.612 70.7688 146.555 70.6335 146.555 70.4759C146.555 70.3182 146.612 70.1829 146.725 70.07C146.838 69.957 146.973 69.9006 147.131 69.9006C147.288 69.9006 147.424 69.957 147.537 70.07C147.65 70.1829 147.706 70.3182 147.706 70.4759C147.706 70.5803 147.679 70.6761 147.626 70.7635C147.575 70.8509 147.506 70.9212 147.418 70.9744C147.333 71.0256 147.237 71.0511 147.131 71.0511Z" fill="#1F2937"/>
<path d="M19.6464 96.6464C19.4512 96.8417 19.4512 97.1583 19.6464 97.3536L22.8284 100.536C23.0237 100.731 23.3403 100.731 23.5355 100.536C23.7308 100.34 23.7308 100.024 23.5355 99.8284L20.7071 97L23.5355 94.1716C23.7308 93.9763 23.7308 93.6597 23.5355 93.4645C23.3403 93.2692 23.0237 93.2692 22.8284 93.4645L19.6464 96.6464ZM20 97.5H20.994V96.5H20V97.5ZM22.9821 97.5H24.9702V96.5H22.9821V97.5ZM26.9583 97.5H28.9464V96.5H26.9583V97.5ZM30.9345 97.5H32.9226V96.5H30.9345V97.5ZM34.9107 97.5H36.8988V96.5H34.9107V97.5ZM38.8869 97.5H40.875V96.5H38.8869V97.5ZM42.8631 97.5H44.8512V96.5H42.8631V97.5ZM46.8393 97.5H48.8274V96.5H46.8393V97.5ZM50.8155 97.5H52.8036V96.5H50.8155V97.5ZM54.7917 97.5H56.7798V96.5H54.7917V97.5ZM58.7678 97.5H60.7559V96.5H58.7678V97.5ZM62.744 97.5H64.7321V96.5H62.744V97.5ZM66.7202 97.5H68.7083V96.5H66.7202V97.5ZM70.6964 97.5H72.6845V96.5H70.6964V97.5ZM74.6726 97.5H76.6607V96.5H74.6726V97.5ZM78.6488 97.5H80.6369V96.5H78.6488V97.5ZM82.625 97.5H84.6131V96.5H82.625V97.5ZM86.6012 97.5H88.5893V96.5H86.6012V97.5ZM90.5774 97.5H92.5655V96.5H90.5774V97.5ZM94.5536 97.5H96.5417V96.5H94.5536V97.5ZM98.5298 97.5H100.518V96.5H98.5298V97.5ZM102.506 97.5H104.494V96.5H102.506V97.5ZM106.482 97.5H108.47V96.5H106.482V97.5ZM110.458 97.5H112.446V96.5H110.458V97.5ZM114.435 97.5H116.423V96.5H114.435V97.5ZM118.411 97.5H120.399V96.5H118.411V97.5ZM122.387 97.5H124.375V96.5H122.387V97.5ZM126.363 97.5H128.351V96.5H126.363V97.5ZM130.339 97.5H132.327V96.5H130.339V97.5ZM134.316 97.5H136.304V96.5H134.316V97.5ZM138.292 97.5H140.28V96.5H138.292V97.5ZM142.268 97.5H144.256V96.5H142.268V97.5ZM146.244 97.5H148.232V96.5H146.244V97.5ZM150.22 97.5H152.208V96.5H150.22V97.5ZM154.197 97.5H156.185V96.5H154.197V97.5ZM158.173 97.5H160.161V96.5H158.173V97.5ZM162.149 97.5H164.137V96.5H162.149V97.5ZM166.125 97.5H168.113V96.5H166.125V97.5ZM170.101 97.5H172.089V96.5H170.101V97.5ZM174.077 97.5H176.066V96.5H174.077V97.5ZM178.054 97.5H180.042V96.5H178.054V97.5ZM182.03 97.5H184.018V96.5H182.03V97.5ZM186.006 97.5H187V96.5H186.006V97.5ZM19.6464 96.6464C19.4512 96.8417 19.4512 97.1583 19.6464 97.3536L22.8284 100.536C23.0237 100.731 23.3403 100.731 23.5355 100.536C23.7308 100.34 23.7308 100.024 23.5355 99.8284L20.7071 97L23.5355 94.1716C23.7308 93.9763 23.7308 93.6597 23.5355 93.4645C23.3403 93.2692 23.0237 93.2692 22.8284 93.4645L19.6464 96.6464ZM20 97.5H20.994V96.5H20V97.5ZM22.9821 97.5H24.9702V96.5H22.9821V97.5ZM26.9583 97.5H28.9464V96.5H26.9583V97.5ZM30.9345 97.5H32.9226V96.5H30.9345V97.5ZM34.9107 97.5H36.8988V96.5H34.9107V97.5ZM38.8869 97.5H40.875V96.5H38.8869V97.5ZM42.8631 97.5H44.8512V96.5H42.8631V97.5ZM46.8393 97.5H48.8274V96.5H46.8393V97.5ZM50.8155 97.5H52.8036V96.5H50.8155V97.5ZM54.7917 97.5H56.7798V96.5H54.7917V97.5ZM58.7678 97.5H60.7559V96.5H58.7678V97.5ZM62.744 97.5H64.7321V96.5H62.744V97.5ZM66.7202 97.5H68.7083V96.5H66.7202V97.5ZM70.6964 97.5H72.6845V96.5H70.6964V97.5ZM74.6726 97.5H76.6607V96.5H74.6726V97.5ZM78.6488 97.5H80.6369V96.5H78.6488V97.5ZM82.625 97.5H84.6131V96.5H82.625V97.5ZM86.6012 97.5H88.5893V96.5H86.6012V97.5ZM90.5774 97.5H92.5655V96.5H90.5774V97.5ZM94.5536 97.5H96.5417V96.5H94.5536V97.5ZM98.5298 97.5H100.518V96.5H98.5298V97.5ZM102.506 97.5H104.494V96.5H102.506V97.5ZM106.482 97.5H108.47V96.5H106.482V97.5ZM110.458 97.5H112.446V96.5H110.458V97.5ZM114.435 97.5H116.423V96.5H114.435V97.5ZM118.411 97.5H120.399V96.5H118.411V97.5ZM122.387 97.5H124.375V96.5H122.387V97.5ZM126.363 97.5H128.351V96.5H126.363V97.5ZM130.339 97.5H132.327V96.5H130.339V97.5ZM134.316 97.5H136.304V96.5H134.316V97.5ZM138.292 97.5H140.28V96.5H138.292V97.5ZM142.268 97.5H144.256V96.5H142.268V97.5ZM146.244 97.5H148.232V96.5H146.244V97.5ZM150.22 97.5H152.208V96.5H150.22V97.5ZM154.197 97.5H156.185V96.5H154.197V97.5ZM158.173 97.5H160.161V96.5H158.173V97.5ZM162.149 97.5H164.137V96.5H162.149V97.5ZM166.125 97.5H168.113V96.5H166.125V97.5ZM170.101 97.5H172.089V96.5H170.101V97.5ZM174.077 97.5H176.066V96.5H174.077V97.5ZM178.054 97.5H180.042V96.5H178.054V97.5ZM182.03 97.5H184.018V96.5H182.03V97.5ZM186.006 97.5H187V96.5H186.006V97.5Z" fill="#1F2937"/>
<path d="M19.6464 114.646C19.4512 114.842 19.4512 115.158 19.6464 115.354L22.8284 118.536C23.0237 118.731 23.3403 118.731 23.5355 118.536C23.7308 118.34 23.7308 118.024 23.5355 117.828L20.7071 115L23.5355 112.172C23.7308 111.976 23.7308 111.66 23.5355 111.464C23.3403 111.269 23.0237 111.269 22.8284 111.464L19.6464 114.646ZM20 115.5H20.994V114.5H20V115.5ZM22.9821 115.5H24.9702V114.5H22.9821V115.5ZM26.9583 115.5H28.9464V114.5H26.9583V115.5ZM30.9345 115.5H32.9226V114.5H30.9345V115.5ZM34.9107 115.5H36.8988V114.5H34.9107V115.5ZM38.8869 115.5H40.875V114.5H38.8869V115.5ZM42.8631 115.5H44.8512V114.5H42.8631V115.5ZM46.8393 115.5H48.8274V114.5H46.8393V115.5ZM50.8155 115.5H52.8036V114.5H50.8155V115.5ZM54.7917 115.5H56.7798V114.5H54.7917V115.5ZM58.7678 115.5H60.7559V114.5H58.7678V115.5ZM62.744 115.5H64.7321V114.5H62.744V115.5ZM66.7202 115.5H68.7083V114.5H66.7202V115.5ZM70.6964 115.5H72.6845V114.5H70.6964V115.5ZM74.6726 115.5H76.6607V114.5H74.6726V115.5ZM78.6488 115.5H80.6369V114.5H78.6488V115.5ZM82.625 115.5H84.6131V114.5H82.625V115.5ZM86.6012 115.5H88.5893V114.5H86.6012V115.5ZM90.5774 115.5H92.5655V114.5H90.5774V115.5ZM94.5536 115.5H96.5417V114.5H94.5536V115.5ZM98.5298 115.5H100.518V114.5H98.5298V115.5ZM102.506 115.5H104.494V114.5H102.506V115.5ZM106.482 115.5H108.47V114.5H106.482V115.5ZM110.458 115.5H112.446V114.5H110.458V115.5ZM114.435 115.5H116.423V114.5H114.435V115.5ZM118.411 115.5H120.399V114.5H118.411V115.5ZM122.387 115.5H124.375V114.5H122.387V115.5ZM126.363 115.5H128.351V114.5H126.363V115.5ZM130.339 115.5H132.327V114.5H130.339V115.5ZM134.316 115.5H136.304V114.5H134.316V115.5ZM138.292 115.5H140.28V114.5H138.292V115.5ZM142.268 115.5H144.256V114.5H142.268V115.5ZM146.244 115.5H148.232V114.5H146.244V115.5ZM150.22 115.5H152.208V114.5H150.22V115.5ZM154.197 115.5H156.185V114.5H154.197V115.5ZM158.173 115.5H160.161V114.5H158.173V115.5ZM162.149 115.5H164.137V114.5H162.149V115.5ZM166.125 115.5H168.113V114.5H166.125V115.5ZM170.101 115.5H172.089V114.5H170.101V115.5ZM174.077 115.5H176.066V114.5H174.077V115.5ZM178.054 115.5H180.042V114.5H178.054V115.5ZM182.03 115.5H184.018V114.5H182.03V115.5ZM186.006 115.5H187V114.5H186.006V115.5ZM19.6464 114.646C19.4512 114.842 19.4512 115.158 19.6464 115.354L22.8284 118.536C23.0237 118.731 23.3403 118.731 23.5355 118.536C23.7308 118.34 23.7308 118.024 23.5355 117.828L20.7071 115L23.5355 112.172C23.7308 111.976 23.7308 111.66 23.5355 111.464C23.3403 111.269 23.0237 111.269 22.8284 111.464L19.6464 114.646ZM20 115.5H20.994V114.5H20V115.5ZM22.9821 115.5H24.9702V114.5H22.9821V115.5ZM26.9583 115.5H28.9464V114.5H26.9583V115.5ZM30.9345 115.5H32.9226V114.5H30.9345V115.5ZM34.9107 115.5H36.8988V114.5H34.9107V115.5ZM38.8869 115.5H40.875V114.5H38.8869V115.5ZM42.8631 115.5H44.8512V114.5H42.8631V115.5ZM46.8393 115.5H48.8274V114.5H46.8393V115.5ZM50.8155 115.5H52.8036V114.5H50.8155V115.5ZM54.7917 115.5H56.7798V114.5H54.7917V115.5ZM58.7678 115.5H60.7559V114.5H58.7678V115.5ZM62.744 115.5H64.7321V114.5H62.744V115.5ZM66.7202 115.5H68.7083V114.5H66.7202V115.5ZM70.6964 115.5H72.6845V114.5H70.6964V115.5ZM74.6726 115.5H76.6607V114.5H74.6726V115.5ZM78.6488 115.5H80.6369V114.5H78.6488V115.5ZM82.625 115.5H84.6131V114.5H82.625V115.5ZM86.6012 115.5H88.5893V114.5H86.6012V115.5ZM90.5774 115.5H92.5655V114.5H90.5774V115.5ZM94.5536 115.5H96.5417V114.5H94.5536V115.5ZM98.5298 115.5H100.518V114.5H98.5298V115.5ZM102.506 115.5H104.494V114.5H102.506V115.5ZM106.482 115.5H108.47V114.5H106.482V115.5ZM110.458 115.5H112.446V114.5H110.458V115.5ZM114.435 115.5H116.423V114.5H114.435V115.5ZM118.411 115.5H120.399V114.5H118.411V115.5ZM122.387 115.5H124.375V114.5H122.387V115.5ZM126.363 115.5H128.351V114.5H126.363V115.5ZM130.339 115.5H132.327V114.5H130.339V115.5ZM134.316 115.5H136.304V114.5H134.316V115.5ZM138.292 115.5H140.28V114.5H138.292V115.5ZM142.268 115.5H144.256V114.5H142.268V115.5ZM146.244 115.5H148.232V114.5H146.244V115.5ZM150.22 115.5H152.208V114.5H150.22V115.5ZM154.197 115.5H156.185V114.5H154.197V115.5ZM158.173 115.5H160.161V114.5H158.173V115.5ZM162.149 115.5H164.137V114.5H162.149V115.5ZM166.125 115.5H168.113V114.5H166.125V115.5ZM170.101 115.5H172.089V114.5H170.101V115.5ZM174.077 115.5H176.066V114.5H174.077V115.5ZM178.054 115.5H180.042V114.5H178.054V115.5ZM182.03 115.5H184.018V114.5H182.03V115.5ZM186.006 115.5H187V114.5H186.006V115.5Z" fill="#1F2937"/>
<path d="M57.1525 93V86.4545H57.9451V89.3693H61.4351V86.4545H62.2278V93H61.4351V90.0724H57.9451V93H57.1525ZM63.7123 93V88.0909H64.4666V93H63.7123ZM64.0958 87.2727C63.9488 87.2727 63.822 87.2227 63.7155 87.1225C63.6111 87.0224 63.5589 86.902 63.5589 86.7614C63.5589 86.6207 63.6111 86.5004 63.7155 86.4002C63.822 86.3001 63.9488 86.25 64.0958 86.25C64.2429 86.25 64.3686 86.3001 64.473 86.4002C64.5795 86.5004 64.6328 86.6207 64.6328 86.7614C64.6328 86.902 64.5795 87.0224 64.473 87.1225C64.3686 87.2227 64.2429 87.2727 64.0958 87.2727ZM68.4816 93V86.4545H70.6932C71.2067 86.4545 71.6265 86.5472 71.9525 86.7326C72.2806 86.9158 72.5235 87.1641 72.6812 87.4773C72.8388 87.7905 72.9177 88.1399 72.9177 88.5256C72.9177 88.9112 72.8388 89.2617 72.6812 89.5771C72.5256 89.8924 72.2848 90.1438 71.9589 90.3313C71.6329 90.5167 71.2152 90.6094 70.706 90.6094H69.1208V89.9062H70.6804C71.032 89.9062 71.3143 89.8455 71.5274 89.7241C71.7405 89.6026 71.8949 89.4386 71.9908 89.2319C72.0888 89.0231 72.1378 88.7876 72.1378 88.5256C72.1378 88.2635 72.0888 88.0291 71.9908 87.8224C71.8949 87.6158 71.7394 87.4538 71.5242 87.3366C71.309 87.2173 71.0235 87.1577 70.6677 87.1577H69.2742V93H68.4816ZM75.5368 93.1151C75.2257 93.1151 74.9434 93.0565 74.6899 92.9393C74.4363 92.82 74.235 92.6484 74.0858 92.4247C73.9367 92.1989 73.8621 91.9261 73.8621 91.6065C73.8621 91.3253 73.9175 91.0973 74.0283 90.9226C74.1391 90.7457 74.2872 90.6072 74.4725 90.5071C74.6579 90.407 74.8624 90.3324 75.0862 90.2834C75.312 90.2322 75.5389 90.1918 75.7669 90.1619C76.0652 90.1236 76.307 90.0948 76.4924 90.0756C76.6799 90.0543 76.8163 90.0192 76.9015 89.9702C76.9889 89.9212 77.0325 89.8359 77.0325 89.7145V89.6889C77.0325 89.3736 76.9462 89.1286 76.7737 88.9538C76.6032 88.7791 76.3443 88.6918 75.997 88.6918C75.6369 88.6918 75.3546 88.7706 75.1501 88.9283C74.9455 89.0859 74.8017 89.2543 74.7186 89.4332L74.0027 89.1776C74.1305 88.8793 74.301 88.647 74.5141 88.4808C74.7293 88.3125 74.9636 88.1953 75.2172 88.1293C75.4729 88.0611 75.7243 88.027 75.9715 88.027C76.1291 88.027 76.3102 88.0462 76.5148 88.0845C76.7215 88.1207 76.9207 88.1964 77.1124 88.3114C77.3063 88.4265 77.4672 88.6001 77.595 88.8324C77.7229 89.0646 77.7868 89.3757 77.7868 89.7656V93H77.0325V92.3352H76.9942C76.943 92.4418 76.8578 92.5558 76.7385 92.6772C76.6192 92.7987 76.4604 92.902 76.2623 92.9872C76.0641 93.0724 75.8223 93.1151 75.5368 93.1151ZM75.6519 92.4375C75.9502 92.4375 76.2016 92.3789 76.4061 92.2617C76.6128 92.1445 76.7683 91.9933 76.8727 91.8079C76.9793 91.6225 77.0325 91.4276 77.0325 91.223V90.5327C77.0006 90.571 76.9303 90.6062 76.8216 90.6381C76.7151 90.668 76.5915 90.6946 76.4509 90.718C76.3124 90.7393 76.1771 90.7585 76.045 90.7756C75.915 90.7905 75.8095 90.8033 75.7286 90.8139C75.5325 90.8395 75.3493 90.881 75.1788 90.9386C75.0105 90.994 74.8742 91.0781 74.7698 91.1911C74.6675 91.3018 74.6163 91.4531 74.6163 91.6449C74.6163 91.907 74.7133 92.1051 74.9072 92.2393C75.1032 92.3714 75.3514 92.4375 75.6519 92.4375ZM79.726 88.0909L80.9021 90.098L82.0783 88.0909H82.9476L81.3623 90.5455L82.9476 93H82.0783L80.9021 91.0952L79.726 93H78.8567L80.4163 90.5455L78.8567 88.0909H79.726ZM85.1488 92.1051L85.0977 92.4503C85.0615 92.6932 85.0061 92.9531 84.9315 93.2301C84.8591 93.5071 84.7834 93.7681 84.7046 94.0131C84.6258 94.2582 84.5608 94.4531 84.5096 94.598H83.9343C83.962 94.4616 83.9983 94.2816 84.043 94.0579C84.0878 93.8342 84.1325 93.5838 84.1772 93.3068C84.2241 93.032 84.2625 92.7507 84.2923 92.4631L84.3307 92.1051H85.1488ZM89.9724 86.4545V93H89.1798V86.4545H89.9724ZM95.985 93.1023C95.5247 93.1023 95.1284 92.9936 94.796 92.7763C94.4636 92.5589 94.208 92.2596 94.029 91.8782C93.85 91.4968 93.7605 91.0611 93.7605 90.571C93.7605 90.0724 93.8521 89.6325 94.0354 89.2511C94.2207 88.8675 94.4786 88.5682 94.8088 88.353C95.1412 88.1357 95.529 88.027 95.9722 88.027C96.3173 88.027 96.6284 88.0909 96.9054 88.2188C97.1824 88.3466 97.4093 88.5256 97.5862 88.7557C97.763 88.9858 97.8727 89.2543 97.9154 89.5611H97.1611C97.1036 89.3374 96.9757 89.1392 96.7776 88.9666C96.5815 88.7919 96.3173 88.7045 95.985 88.7045C95.6909 88.7045 95.4331 88.7812 95.2115 88.9347C94.9921 89.0859 94.8205 89.3001 94.697 89.5771C94.5755 89.8519 94.5148 90.1747 94.5148 90.5455C94.5148 90.9247 94.5744 91.255 94.6938 91.5362C94.8152 91.8175 94.9857 92.0359 95.2051 92.1914C95.4267 92.3469 95.6867 92.4247 95.985 92.4247C96.181 92.4247 96.3589 92.3906 96.5187 92.3224C96.6785 92.2543 96.8138 92.1562 96.9246 92.0284C97.0354 91.9006 97.1142 91.7472 97.1611 91.5682H97.9154C97.8727 91.858 97.7673 92.119 97.5989 92.3512C97.4328 92.5813 97.2122 92.7646 96.9374 92.9009C96.6646 93.0352 96.3472 93.1023 95.985 93.1023ZM100.463 93.1151C100.152 93.1151 99.8692 93.0565 99.6156 92.9393C99.3621 92.82 99.1607 92.6484 99.0116 92.4247C98.8624 92.1989 98.7879 91.9261 98.7879 91.6065C98.7879 91.3253 98.8433 91.0973 98.9541 90.9226C99.0649 90.7457 99.2129 90.6072 99.3983 90.5071C99.5837 90.407 99.7882 90.3324 100.012 90.2834C100.238 90.2322 100.465 90.1918 100.693 90.1619C100.991 90.1236 101.233 90.0948 101.418 90.0756C101.606 90.0543 101.742 90.0192 101.827 89.9702C101.915 89.9212 101.958 89.8359 101.958 89.7145V89.6889C101.958 89.3736 101.872 89.1286 101.699 88.9538C101.529 88.7791 101.27 88.6918 100.923 88.6918C100.563 88.6918 100.28 88.7706 100.076 88.9283C99.8713 89.0859 99.7275 89.2543 99.6444 89.4332L98.9285 89.1776C99.0563 88.8793 99.2268 88.647 99.4399 88.4808C99.6551 88.3125 99.8894 88.1953 100.143 88.1293C100.399 88.0611 100.65 88.027 100.897 88.027C101.055 88.027 101.236 88.0462 101.441 88.0845C101.647 88.1207 101.846 88.1964 102.038 88.3114C102.232 88.4265 102.393 88.6001 102.521 88.8324C102.649 89.0646 102.713 89.3757 102.713 89.7656V93H101.958V92.3352H101.92C101.869 92.4418 101.784 92.5558 101.664 92.6772C101.545 92.7987 101.386 92.902 101.188 92.9872C100.99 93.0724 100.748 93.1151 100.463 93.1151ZM100.578 92.4375C100.876 92.4375 101.127 92.3789 101.332 92.2617C101.539 92.1445 101.694 91.9933 101.799 91.8079C101.905 91.6225 101.958 91.4276 101.958 91.223V90.5327C101.926 90.571 101.856 90.6062 101.747 90.6381C101.641 90.668 101.517 90.6946 101.377 90.718C101.238 90.7393 101.103 90.7585 100.971 90.7756C100.841 90.7905 100.735 90.8033 100.654 90.8139C100.458 90.8395 100.275 90.881 100.105 90.9386C99.9363 90.994 99.7999 91.0781 99.6955 91.1911C99.5933 91.3018 99.5421 91.4531 99.5421 91.6449C99.5421 91.907 99.6391 92.1051 99.833 92.2393C100.029 92.3714 100.277 92.4375 100.578 92.4375ZM104.844 90.0469V93H104.089V88.0909H104.818V88.858H104.882C104.997 88.6087 105.172 88.4084 105.406 88.2571C105.64 88.1037 105.943 88.027 106.314 88.027C106.646 88.027 106.937 88.0952 107.186 88.2315C107.436 88.3658 107.629 88.5703 107.768 88.8452C107.906 89.1179 107.976 89.4631 107.976 89.8807V93H107.221V89.9318C107.221 89.5462 107.121 89.2457 106.921 89.0305C106.721 88.8132 106.446 88.7045 106.096 88.7045C105.856 88.7045 105.64 88.7567 105.451 88.8612C105.263 88.9656 105.115 89.1179 105.007 89.3182C104.898 89.5185 104.844 89.7614 104.844 90.0469ZM112.639 90.0469V93H111.885V86.4545H112.639V88.858H112.703C112.818 88.6044 112.991 88.4031 113.221 88.2539C113.453 88.1026 113.762 88.027 114.148 88.027C114.482 88.027 114.775 88.0941 115.027 88.2283C115.278 88.3604 115.473 88.5639 115.612 88.8388C115.752 89.1115 115.823 89.4588 115.823 89.8807V93H115.068V89.9318C115.068 89.5419 114.967 89.2404 114.765 89.0273C114.564 88.8121 114.286 88.7045 113.931 88.7045C113.683 88.7045 113.462 88.7567 113.266 88.8612C113.072 88.9656 112.919 89.1179 112.806 89.3182C112.695 89.5185 112.639 89.7614 112.639 90.0469ZM119.261 93.1023C118.788 93.1023 118.38 92.9979 118.037 92.7891C117.696 92.5781 117.433 92.2841 117.247 91.907C117.064 91.5277 116.972 91.0866 116.972 90.5838C116.972 90.081 117.064 89.6378 117.247 89.2543C117.433 88.8686 117.69 88.5682 118.021 88.353C118.353 88.1357 118.741 88.027 119.184 88.027C119.44 88.027 119.692 88.0696 119.942 88.1548C120.191 88.2401 120.418 88.3786 120.622 88.5703C120.827 88.7599 120.99 89.0114 121.111 89.3246C121.233 89.6378 121.293 90.0234 121.293 90.4815V90.8011H117.509V90.1491H120.526C120.526 89.8722 120.471 89.625 120.36 89.4077C120.252 89.1903 120.096 89.0188 119.894 88.8931C119.693 88.7674 119.457 88.7045 119.184 88.7045C118.884 88.7045 118.624 88.7791 118.404 88.9283C118.187 89.0753 118.02 89.267 117.902 89.5036C117.785 89.7401 117.727 89.9936 117.727 90.2642V90.6989C117.727 91.0696 117.791 91.3839 117.918 91.6417C118.048 91.8974 118.228 92.0923 118.459 92.2266C118.689 92.3587 118.956 92.4247 119.261 92.4247C119.459 92.4247 119.638 92.397 119.798 92.3416C119.96 92.2841 120.099 92.1989 120.216 92.0859C120.334 91.9709 120.424 91.8281 120.488 91.6577L121.217 91.8622C121.14 92.1094 121.011 92.3267 120.83 92.5142C120.649 92.6996 120.425 92.8445 120.159 92.9489C119.893 93.0511 119.593 93.1023 119.261 93.1023ZM123.885 93.1151C123.574 93.1151 123.292 93.0565 123.038 92.9393C122.785 92.82 122.584 92.6484 122.434 92.4247C122.285 92.1989 122.211 91.9261 122.211 91.6065C122.211 91.3253 122.266 91.0973 122.377 90.9226C122.488 90.7457 122.636 90.6072 122.821 90.5071C123.007 90.407 123.211 90.3324 123.435 90.2834C123.661 90.2322 123.888 90.1918 124.116 90.1619C124.414 90.1236 124.656 90.0948 124.841 90.0756C125.029 90.0543 125.165 90.0192 125.25 89.9702C125.337 89.9212 125.381 89.8359 125.381 89.7145V89.6889C125.381 89.3736 125.295 89.1286 125.122 88.9538C124.952 88.7791 124.693 88.6918 124.346 88.6918C123.986 88.6918 123.703 88.7706 123.499 88.9283C123.294 89.0859 123.15 89.2543 123.067 89.4332L122.351 89.1776C122.479 88.8793 122.65 88.647 122.863 88.4808C123.078 88.3125 123.312 88.1953 123.566 88.1293C123.822 88.0611 124.073 88.027 124.32 88.027C124.478 88.027 124.659 88.0462 124.863 88.0845C125.07 88.1207 125.269 88.1964 125.461 88.3114C125.655 88.4265 125.816 88.6001 125.944 88.8324C126.072 89.0646 126.135 89.3757 126.135 89.7656V93H125.381V92.3352H125.343C125.292 92.4418 125.206 92.5558 125.087 92.6772C124.968 92.7987 124.809 92.902 124.611 92.9872C124.413 93.0724 124.171 93.1151 123.885 93.1151ZM124 92.4375C124.299 92.4375 124.55 92.3789 124.755 92.2617C124.961 92.1445 125.117 91.9933 125.221 91.8079C125.328 91.6225 125.381 91.4276 125.381 91.223V90.5327C125.349 90.571 125.279 90.6062 125.17 90.6381C125.064 90.668 124.94 90.6946 124.799 90.718C124.661 90.7393 124.526 90.7585 124.394 90.7756C124.264 90.7905 124.158 90.8033 124.077 90.8139C123.881 90.8395 123.698 90.881 123.527 90.9386C123.359 90.994 123.223 91.0781 123.118 91.1911C123.016 91.3018 122.965 91.4531 122.965 91.6449C122.965 91.907 123.062 92.1051 123.256 92.2393C123.452 92.3714 123.7 92.4375 124 92.4375ZM127.512 93V88.0909H128.241V88.8324H128.292C128.381 88.5895 128.543 88.3924 128.778 88.2411C129.012 88.0898 129.276 88.0142 129.57 88.0142C129.626 88.0142 129.695 88.0153 129.778 88.0174C129.861 88.0195 129.924 88.0227 129.967 88.027V88.794C129.941 88.7876 129.883 88.7781 129.791 88.7653C129.701 88.7504 129.607 88.7429 129.506 88.7429C129.268 88.7429 129.055 88.793 128.867 88.8931C128.682 88.9911 128.535 89.1275 128.426 89.3022C128.32 89.4748 128.266 89.6719 128.266 89.8935V93H127.512ZM133.878 94.8409C133.75 94.8409 133.636 94.8303 133.536 94.8089C133.436 94.7898 133.366 94.7706 133.328 94.7514L133.52 94.0866C133.703 94.1335 133.865 94.1506 134.006 94.1378C134.146 94.125 134.271 94.0621 134.38 93.9492C134.49 93.8384 134.592 93.6584 134.683 93.4091L134.824 93.0256L133.008 88.0909H133.827L135.182 92.0028H135.233L136.588 88.0909H137.406L135.322 93.7159C135.229 93.9695 135.113 94.1793 134.974 94.3455C134.836 94.5138 134.675 94.6385 134.491 94.7195C134.31 94.8004 134.106 94.8409 133.878 94.8409ZM140.22 93.1023C139.777 93.1023 139.388 92.9968 139.054 92.7859C138.721 92.5749 138.461 92.2798 138.274 91.9006C138.089 91.5213 137.996 91.0781 137.996 90.571C137.996 90.0597 138.089 89.6133 138.274 89.2319C138.461 88.8505 138.721 88.5543 139.054 88.3434C139.388 88.1325 139.777 88.027 140.22 88.027C140.663 88.027 141.051 88.1325 141.384 88.3434C141.718 88.5543 141.978 88.8505 142.163 89.2319C142.351 89.6133 142.445 90.0597 142.445 90.571C142.445 91.0781 142.351 91.5213 142.163 91.9006C141.978 92.2798 141.718 92.5749 141.384 92.7859C141.051 92.9968 140.663 93.1023 140.22 93.1023ZM140.22 92.4247C140.557 92.4247 140.834 92.3384 141.051 92.1658C141.269 91.9933 141.429 91.7663 141.534 91.4851C141.638 91.2038 141.69 90.8991 141.69 90.571C141.69 90.2429 141.638 89.9371 141.534 89.6538C141.429 89.3704 141.269 89.1413 141.051 88.9666C140.834 88.7919 140.557 88.7045 140.22 88.7045C139.884 88.7045 139.607 88.7919 139.389 88.9666C139.172 89.1413 139.011 89.3704 138.907 89.6538C138.802 89.9371 138.75 90.2429 138.75 90.571C138.75 90.8991 138.802 91.2038 138.907 91.4851C139.011 91.7663 139.172 91.9933 139.389 92.1658C139.607 92.3384 139.884 92.4247 140.22 92.4247ZM146.69 90.9929V88.0909H147.444V93H146.69V92.169H146.639C146.524 92.4183 146.345 92.6303 146.102 92.805C145.859 92.9776 145.552 93.0639 145.181 93.0639C144.875 93.0639 144.602 92.9968 144.363 92.8626C144.125 92.7262 143.937 92.5217 143.801 92.2489C143.664 91.9741 143.596 91.6278 143.596 91.2102V88.0909H144.35V91.1591C144.35 91.517 144.451 91.8026 144.651 92.0156C144.853 92.2287 145.111 92.3352 145.424 92.3352C145.612 92.3352 145.802 92.2873 145.996 92.1914C146.192 92.0955 146.356 91.9485 146.489 91.7504C146.623 91.5522 146.69 91.2997 146.69 90.9929ZM149.823 86.4545L149.759 91.1591H149.017L148.953 86.4545H149.823ZM149.388 93.0511C149.23 93.0511 149.095 92.9947 148.982 92.8817C148.869 92.7688 148.813 92.6335 148.813 92.4759C148.813 92.3182 148.869 92.1829 148.982 92.07C149.095 91.957 149.23 91.9006 149.388 91.9006C149.546 91.9006 149.681 91.957 149.794 92.07C149.907 92.1829 149.963 92.3182 149.963 92.4759C149.963 92.5803 149.937 92.6761 149.883 92.7635C149.832 92.8509 149.763 92.9212 149.676 92.9744C149.591 93.0256 149.495 93.0511 149.388 93.0511Z" fill="#1F2937"/>
<path d="M80.6526 104.455V111H79.86V104.455H80.6526ZM86.8569 106.091V106.73H84.2106V106.091H86.8569ZM85.0032 111V105.413C85.0032 105.132 85.0692 104.898 85.2013 104.71C85.3335 104.523 85.505 104.382 85.7159 104.288C85.9268 104.195 86.1495 104.148 86.3839 104.148C86.5692 104.148 86.7205 104.163 86.8377 104.192C86.9549 104.222 87.0423 104.25 87.0998 104.276L86.8825 104.928C86.8441 104.915 86.7908 104.899 86.7227 104.88C86.6566 104.86 86.5692 104.851 86.4606 104.851C86.2113 104.851 86.0313 104.914 85.9205 105.039C85.8118 105.165 85.7575 105.349 85.7575 105.592V111H85.0032ZM89.7701 111.102C89.2971 111.102 88.889 110.998 88.546 110.789C88.2051 110.578 87.9419 110.284 87.7566 109.907C87.5733 109.528 87.4817 109.087 87.4817 108.584C87.4817 108.081 87.5733 107.638 87.7566 107.254C87.9419 106.869 88.1998 106.568 88.53 106.353C88.8624 106.136 89.2502 106.027 89.6934 106.027C89.949 106.027 90.2015 106.07 90.4508 106.155C90.7001 106.24 90.927 106.379 91.1316 106.57C91.3361 106.76 91.4991 107.011 91.6206 107.325C91.742 107.638 91.8027 108.023 91.8027 108.482V108.801H88.0186V108.149H91.0357C91.0357 107.872 90.9803 107.625 90.8695 107.408C90.7608 107.19 90.6053 107.019 90.4029 106.893C90.2026 106.767 89.9661 106.705 89.6934 106.705C89.3929 106.705 89.133 106.779 88.9135 106.928C88.6962 107.075 88.5289 107.267 88.4118 107.504C88.2946 107.74 88.236 107.994 88.236 108.264V108.699C88.236 109.07 88.2999 109.384 88.4277 109.642C88.5577 109.897 88.7377 110.092 88.9679 110.227C89.198 110.359 89.4654 110.425 89.7701 110.425C89.9682 110.425 90.1472 110.397 90.307 110.342C90.4689 110.284 90.6085 110.199 90.7257 110.086C90.8429 109.971 90.9334 109.828 90.9973 109.658L91.726 109.862C91.6493 110.109 91.5204 110.327 91.3393 110.514C91.1582 110.7 90.9345 110.844 90.6681 110.949C90.4018 111.051 90.1025 111.102 89.7701 111.102ZM95.0083 111.102C94.5353 111.102 94.1273 110.998 93.7843 110.789C93.4434 110.578 93.1802 110.284 92.9949 109.907C92.8116 109.528 92.72 109.087 92.72 108.584C92.72 108.081 92.8116 107.638 92.9949 107.254C93.1802 106.869 93.438 106.568 93.7683 106.353C94.1007 106.136 94.4885 106.027 94.9316 106.027C95.1873 106.027 95.4398 106.07 95.6891 106.155C95.9384 106.24 96.1653 106.379 96.3699 106.57C96.5744 106.76 96.7374 107.011 96.8588 107.325C96.9803 107.638 97.041 108.023 97.041 108.482V108.801H93.2569V108.149H96.274C96.274 107.872 96.2186 107.625 96.1078 107.408C95.9991 107.19 95.8436 107.019 95.6412 106.893C95.4409 106.767 95.2044 106.705 94.9316 106.705C94.6312 106.705 94.3713 106.779 94.1518 106.928C93.9345 107.075 93.7672 107.267 93.65 107.504C93.5328 107.74 93.4743 107.994 93.4743 108.264V108.699C93.4743 109.07 93.5382 109.384 93.666 109.642C93.796 109.897 93.976 110.092 94.2061 110.227C94.4363 110.359 94.7037 110.425 95.0083 110.425C95.2065 110.425 95.3855 110.397 95.5453 110.342C95.7072 110.284 95.8468 110.199 95.964 110.086C96.0811 109.971 96.1717 109.828 96.2356 109.658L96.9643 109.862C96.8876 110.109 96.7587 110.327 96.5776 110.514C96.3965 110.7 96.1728 110.844 95.9064 110.949C95.6401 111.051 95.3407 111.102 95.0083 111.102ZM98.9426 104.455V111H98.1884V104.455H98.9426ZM104.837 112.943C104.473 112.943 104.159 112.896 103.897 112.803C103.635 112.711 103.417 112.589 103.242 112.438C103.07 112.289 102.932 112.129 102.83 111.959L103.431 111.537C103.499 111.626 103.585 111.729 103.69 111.844C103.794 111.961 103.937 112.062 104.118 112.147C104.301 112.235 104.541 112.278 104.837 112.278C105.233 112.278 105.56 112.183 105.818 111.991C106.076 111.799 106.205 111.499 106.205 111.089V110.092H106.141C106.085 110.182 106.007 110.293 105.904 110.425C105.804 110.555 105.659 110.671 105.47 110.773C105.282 110.873 105.029 110.923 104.709 110.923C104.313 110.923 103.957 110.83 103.642 110.642C103.328 110.455 103.08 110.182 102.897 109.824C102.716 109.466 102.625 109.031 102.625 108.52C102.625 108.017 102.714 107.579 102.891 107.206C103.067 106.831 103.313 106.542 103.629 106.337C103.944 106.13 104.309 106.027 104.722 106.027C105.041 106.027 105.295 106.08 105.483 106.187C105.672 106.291 105.817 106.411 105.917 106.545C106.019 106.677 106.098 106.786 106.154 106.871H106.23V106.091H106.959V111.141C106.959 111.562 106.863 111.906 106.671 112.17C106.482 112.436 106.226 112.631 105.904 112.755C105.585 112.88 105.229 112.943 104.837 112.943ZM104.811 110.246C105.114 110.246 105.37 110.176 105.578 110.038C105.787 109.9 105.946 109.7 106.055 109.44C106.163 109.18 106.218 108.869 106.218 108.507C106.218 108.153 106.164 107.841 106.058 107.571C105.951 107.3 105.794 107.088 105.585 106.935C105.376 106.781 105.118 106.705 104.811 106.705C104.492 106.705 104.225 106.786 104.012 106.947C103.801 107.109 103.643 107.327 103.536 107.599C103.432 107.872 103.38 108.175 103.38 108.507C103.38 108.848 103.433 109.15 103.539 109.412C103.648 109.672 103.808 109.876 104.019 110.025C104.232 110.172 104.496 110.246 104.811 110.246ZM108.34 111V106.091H109.068V106.832H109.12C109.209 106.589 109.371 106.392 109.605 106.241C109.84 106.09 110.104 106.014 110.398 106.014C110.453 106.014 110.523 106.015 110.606 106.017C110.689 106.02 110.752 106.023 110.794 106.027V106.794C110.769 106.788 110.71 106.778 110.619 106.765C110.529 106.75 110.434 106.743 110.334 106.743C110.095 106.743 109.882 106.793 109.695 106.893C109.509 106.991 109.362 107.127 109.254 107.302C109.147 107.475 109.094 107.672 109.094 107.893V111H108.34ZM113.597 111.102C113.124 111.102 112.716 110.998 112.373 110.789C112.032 110.578 111.769 110.284 111.584 109.907C111.4 109.528 111.309 109.087 111.309 108.584C111.309 108.081 111.4 107.638 111.584 107.254C111.769 106.869 112.027 106.568 112.357 106.353C112.69 106.136 113.077 106.027 113.521 106.027C113.776 106.027 114.029 106.07 114.278 106.155C114.527 106.24 114.754 106.379 114.959 106.57C115.163 106.76 115.326 107.011 115.448 107.325C115.569 107.638 115.63 108.023 115.63 108.482V108.801H111.846V108.149H114.863C114.863 107.872 114.807 107.625 114.697 107.408C114.588 107.19 114.432 107.019 114.23 106.893C114.03 106.767 113.793 106.705 113.521 106.705C113.22 106.705 112.96 106.779 112.741 106.928C112.523 107.075 112.356 107.267 112.239 107.504C112.122 107.74 112.063 107.994 112.063 108.264V108.699C112.063 109.07 112.127 109.384 112.255 109.642C112.385 109.897 112.565 110.092 112.795 110.227C113.025 110.359 113.293 110.425 113.597 110.425C113.795 110.425 113.974 110.397 114.134 110.342C114.296 110.284 114.436 110.199 114.553 110.086C114.67 109.971 114.761 109.828 114.824 109.658L115.553 109.862C115.476 110.109 115.348 110.327 115.166 110.514C114.985 110.7 114.762 110.844 114.495 110.949C114.229 111.051 113.93 111.102 113.597 111.102ZM118.222 111.115C117.911 111.115 117.628 111.056 117.375 110.939C117.121 110.82 116.92 110.648 116.771 110.425C116.622 110.199 116.547 109.926 116.547 109.607C116.547 109.325 116.603 109.097 116.713 108.923C116.824 108.746 116.972 108.607 117.158 108.507C117.343 108.407 117.547 108.332 117.771 108.283C117.997 108.232 118.224 108.192 118.452 108.162C118.75 108.124 118.992 108.095 119.177 108.076C119.365 108.054 119.501 108.019 119.587 107.97C119.674 107.921 119.718 107.836 119.718 107.714V107.689C119.718 107.374 119.631 107.129 119.459 106.954C119.288 106.779 119.029 106.692 118.682 106.692C118.322 106.692 118.04 106.771 117.835 106.928C117.631 107.086 117.487 107.254 117.404 107.433L116.688 107.178C116.816 106.879 116.986 106.647 117.199 106.481C117.414 106.312 117.649 106.195 117.902 106.129C118.158 106.061 118.409 106.027 118.657 106.027C118.814 106.027 118.995 106.046 119.2 106.085C119.407 106.121 119.606 106.196 119.797 106.311C119.991 106.426 120.152 106.6 120.28 106.832C120.408 107.065 120.472 107.376 120.472 107.766V111H119.718V110.335H119.679C119.628 110.442 119.543 110.556 119.424 110.677C119.304 110.799 119.146 110.902 118.947 110.987C118.749 111.072 118.507 111.115 118.222 111.115ZM118.337 110.438C118.635 110.438 118.887 110.379 119.091 110.262C119.298 110.145 119.453 109.993 119.558 109.808C119.664 109.623 119.718 109.428 119.718 109.223V108.533C119.686 108.571 119.615 108.606 119.507 108.638C119.4 108.668 119.277 108.695 119.136 108.718C118.997 108.739 118.862 108.759 118.73 108.776C118.6 108.79 118.495 108.803 118.414 108.814C118.218 108.839 118.034 108.881 117.864 108.939C117.696 108.994 117.559 109.078 117.455 109.191C117.353 109.302 117.301 109.453 117.301 109.645C117.301 109.907 117.398 110.105 117.592 110.239C117.788 110.371 118.036 110.438 118.337 110.438ZM123.983 106.091V106.73H121.439V106.091H123.983ZM122.181 104.915H122.935V109.594C122.935 109.807 122.966 109.967 123.028 110.073C123.092 110.178 123.173 110.248 123.271 110.284C123.371 110.318 123.476 110.335 123.587 110.335C123.67 110.335 123.738 110.331 123.792 110.322C123.845 110.312 123.888 110.303 123.92 110.297L124.073 110.974C124.022 110.994 123.95 111.013 123.859 111.032C123.767 111.053 123.651 111.064 123.51 111.064C123.297 111.064 123.089 111.018 122.884 110.926C122.682 110.835 122.513 110.695 122.379 110.508C122.247 110.32 122.181 110.084 122.181 109.798V104.915ZM126.115 104.455L126.051 109.159H125.31L125.246 104.455H126.115ZM125.681 111.051C125.523 111.051 125.388 110.995 125.275 110.882C125.162 110.769 125.105 110.634 125.105 110.476C125.105 110.318 125.162 110.183 125.275 110.07C125.388 109.957 125.523 109.901 125.681 109.901C125.838 109.901 125.974 109.957 126.086 110.07C126.199 110.183 126.256 110.318 126.256 110.476C126.256 110.58 126.229 110.676 126.176 110.763C126.125 110.851 126.056 110.921 125.968 110.974C125.883 111.026 125.787 111.051 125.681 111.051Z" fill="#1F2937"/>
</svg>
