<svg width="121" height="360" viewBox="0 0 121 360" fill="none" xmlns="http://www.w3.org/2000/svg">
<rect x="24.5" y="80.5" width="38" height="31" rx="7.5" fill="#F7FFF5"/>
<rect x="24.5" y="80.5" width="38" height="31" rx="7.5" stroke="#1E757B"/>
<path d="M39.6804 95.7224L38.4312 95.8587C38.3959 95.7325 38.334 95.6139 38.2457 95.5028C38.1599 95.3918 38.0438 95.3022 37.8974 95.234C37.7511 95.1659 37.5719 95.1318 37.3599 95.1318C37.0747 95.1318 36.835 95.1937 36.6407 95.3173C36.4489 95.441 36.3542 95.6012 36.3567 95.7981C36.3542 95.9672 36.416 96.1047 36.5422 96.2107C36.6709 96.3167 36.8829 96.4038 37.1782 96.4719L38.17 96.6839C38.7202 96.8025 39.129 96.9905 39.3965 97.2479C39.6665 97.5053 39.8028 97.8423 39.8053 98.2587C39.8028 98.6246 39.6956 98.9476 39.4836 99.2278C39.2741 99.5054 38.9826 99.7224 38.6091 99.8789C38.2356 100.035 37.8066 100.114 37.322 100.114C36.6104 100.114 36.0375 99.9647 35.6034 99.6669C35.1694 99.3666 34.9107 98.9489 34.8274 98.4139L36.1637 98.2852C36.2242 98.5476 36.353 98.7457 36.5498 98.8795C36.7466 99.0132 37.0028 99.0801 37.3183 99.0801C37.6438 99.0801 37.905 99.0132 38.1019 98.8795C38.3012 98.7457 38.4009 98.5804 38.4009 98.3836C38.4009 98.217 38.3366 98.0795 38.2079 97.971C38.0817 97.8624 37.8848 97.7792 37.6173 97.7211L36.6255 97.5129C36.0678 97.3968 35.6552 97.2012 35.3876 96.9262C35.1201 96.6486 34.9876 96.2978 34.9902 95.8738C34.9876 95.5154 35.0848 95.205 35.2817 94.9426C35.481 94.6776 35.7574 94.4732 36.1107 94.3293C36.4665 94.1829 36.8766 94.1097 37.341 94.1097C38.0224 94.1097 38.5586 94.2549 38.9498 94.5451C39.3435 94.8353 39.587 95.2277 39.6804 95.7224ZM43.8388 94.1855V95.2454H40.4962V94.1855H43.8388ZM41.3214 92.7924H42.6918V98.2511C42.6918 98.4353 42.7196 98.5766 42.7751 98.6751C42.8331 98.771 42.9088 98.8366 43.0022 98.8719C43.0956 98.9072 43.1991 98.9249 43.3126 98.9249C43.3984 98.9249 43.4767 98.9186 43.5473 98.906C43.6205 98.8934 43.676 98.882 43.7139 98.8719L43.9448 99.9432C43.8716 99.9685 43.7669 99.9962 43.6306 100.026C43.4968 100.057 43.3328 100.074 43.1385 100.079C42.7953 100.09 42.4861 100.038 42.211 99.9243C41.936 99.8082 41.7177 99.629 41.5561 99.3867C41.3971 99.1445 41.3189 98.8416 41.3214 98.4782V92.7924ZM44.9849 100V94.1855H46.3552V100H44.9849ZM45.6738 93.3602C45.4568 93.3602 45.27 93.2883 45.1136 93.1444C44.9571 92.9981 44.8789 92.8227 44.8789 92.6183C44.8789 92.4113 44.9571 92.2359 45.1136 92.0921C45.27 91.9457 45.4568 91.8725 45.6738 91.8725C45.8934 91.8725 46.0801 91.9457 46.2341 92.0921C46.3906 92.2359 46.4688 92.4113 46.4688 92.6183C46.4688 92.8227 46.3906 92.9981 46.2341 93.1444C46.0801 93.2883 45.8934 93.3602 45.6738 93.3602ZM49.1347 92.2473V100H47.7644V92.2473H49.1347ZM51.9142 92.2473V100H50.5439V92.2473H51.9142Z" fill="#1E757B"/>
<rect x="63.5" y="166.5" width="57" height="31" rx="7.5" fill="#F7FFF5"/>
<rect x="63.5" y="166.5" width="57" height="31" rx="7.5" stroke="#1E757B"/>
<path d="M73.7368 186V180.185H75.0466V181.173H75.1147C75.2359 180.84 75.4365 180.58 75.7166 180.394C75.9968 180.204 76.3311 180.11 76.7198 180.11C77.1135 180.11 77.4453 180.206 77.7154 180.397C77.9879 180.587 78.1797 180.845 78.2908 181.173H78.3513C78.48 180.85 78.6971 180.593 79.0024 180.401C79.3103 180.207 79.675 180.11 80.0965 180.11C80.6315 180.11 81.0681 180.279 81.4062 180.617C81.7444 180.955 81.9135 181.449 81.9135 182.097V186H80.5394V182.309C80.5394 181.948 80.4435 181.685 80.2517 181.518C80.0599 181.349 79.8252 181.264 79.5476 181.264C79.217 181.264 78.9583 181.368 78.7715 181.575C78.5873 181.779 78.4952 182.045 78.4952 182.373V186H77.1513V182.252C77.1513 181.952 77.0605 181.712 76.8788 181.533C76.6996 181.354 76.4649 181.264 76.1747 181.264C75.9778 181.264 75.7986 181.315 75.6371 181.416C75.4756 181.514 75.3469 181.654 75.251 181.836C75.1551 182.015 75.1072 182.225 75.1072 182.464V186H73.7368ZM85.84 186.114C85.2722 186.114 84.7801 185.989 84.3637 185.739C83.9473 185.489 83.6242 185.139 83.3946 184.69C83.1675 184.241 83.0539 183.716 83.0539 183.115C83.0539 182.515 83.1675 181.989 83.3946 181.537C83.6242 181.085 83.9473 180.734 84.3637 180.485C84.7801 180.235 85.2722 180.11 85.84 180.11C86.4079 180.11 86.9 180.235 87.3164 180.485C87.7328 180.734 88.0546 181.085 88.2817 181.537C88.5113 181.989 88.6262 182.515 88.6262 183.115C88.6262 183.716 88.5113 184.241 88.2817 184.69C88.0546 185.139 87.7328 185.489 87.3164 185.739C86.9 185.989 86.4079 186.114 85.84 186.114ZM85.8476 185.016C86.1555 185.016 86.4129 184.931 86.6198 184.762C86.8268 184.591 86.9807 184.361 87.0817 184.073C87.1851 183.785 87.2369 183.465 87.2369 183.112C87.2369 182.756 87.1851 182.434 87.0817 182.146C86.9807 181.856 86.8268 181.625 86.6198 181.454C86.4129 181.282 86.1555 181.196 85.8476 181.196C85.5321 181.196 85.2697 181.282 85.0602 181.454C84.8533 181.625 84.6981 181.856 84.5946 182.146C84.4936 182.434 84.4432 182.756 84.4432 183.112C84.4432 183.465 84.4936 183.785 84.5946 184.073C84.6981 184.361 84.8533 184.591 85.0602 184.762C85.2697 184.931 85.5321 185.016 85.8476 185.016ZM94.7852 180.185L92.7145 186H91.2003L89.1296 180.185H90.5908L91.9271 184.505H91.9877L93.3278 180.185H94.7852ZM95.7335 186V180.185H97.1038V186H95.7335ZM96.4224 179.36C96.2054 179.36 96.0186 179.288 95.8622 179.144C95.7057 178.998 95.6275 178.823 95.6275 178.618C95.6275 178.411 95.7057 178.236 95.8622 178.092C96.0186 177.946 96.2054 177.873 96.4224 177.873C96.642 177.873 96.8287 177.946 96.9827 178.092C97.1391 178.236 97.2174 178.411 97.2174 178.618C97.2174 178.823 97.1391 178.998 96.9827 179.144C96.8287 179.288 96.642 179.36 96.4224 179.36ZM99.8833 182.593V186H98.513V180.185H99.8228V181.173H99.8909C100.025 180.848 100.238 180.589 100.531 180.397C100.826 180.206 101.191 180.11 101.625 180.11C102.026 180.11 102.375 180.196 102.673 180.367C102.974 180.539 103.206 180.787 103.37 181.113C103.536 181.438 103.618 181.833 103.616 182.298V186H102.245V182.51C102.245 182.121 102.145 181.817 101.943 181.597C101.743 181.378 101.467 181.268 101.114 181.268C100.874 181.268 100.661 181.321 100.474 181.427C100.29 181.531 100.145 181.681 100.039 181.878C99.9351 182.074 99.8833 182.313 99.8833 182.593ZM107.538 188.302C107.046 188.302 106.623 188.235 106.269 188.101C105.916 187.97 105.632 187.793 105.418 187.571C105.203 187.349 105.054 187.103 104.971 186.833L106.205 186.534C106.261 186.647 106.341 186.76 106.447 186.871C106.553 186.984 106.696 187.078 106.875 187.151C107.057 187.227 107.285 187.264 107.56 187.264C107.949 187.264 108.271 187.17 108.526 186.98C108.781 186.794 108.908 186.486 108.908 186.057V184.955H108.84C108.769 185.097 108.666 185.242 108.529 185.391C108.396 185.539 108.218 185.664 107.996 185.765C107.776 185.866 107.5 185.917 107.167 185.917C106.72 185.917 106.315 185.812 105.952 185.603C105.591 185.391 105.303 185.075 105.088 184.656C104.876 184.235 104.77 183.707 104.77 183.074C104.77 182.435 104.876 181.897 105.088 181.457C105.303 181.016 105.592 180.681 105.955 180.454C106.319 180.225 106.724 180.11 107.17 180.11C107.511 180.11 107.791 180.168 108.011 180.284C108.233 180.397 108.41 180.535 108.541 180.696C108.672 180.855 108.772 181.006 108.84 181.147H108.916V180.185H110.267V186.095C110.267 186.592 110.148 187.003 109.911 187.329C109.674 187.654 109.35 187.898 108.938 188.059C108.527 188.221 108.06 188.302 107.538 188.302ZM107.549 184.842C107.839 184.842 108.087 184.771 108.291 184.63C108.495 184.488 108.651 184.285 108.757 184.02C108.863 183.755 108.916 183.437 108.916 183.066C108.916 182.7 108.863 182.38 108.757 182.105C108.653 181.83 108.499 181.616 108.295 181.465C108.093 181.311 107.844 181.234 107.549 181.234C107.244 181.234 106.989 181.314 106.784 181.473C106.58 181.632 106.426 181.85 106.322 182.127C106.219 182.403 106.167 182.715 106.167 183.066C106.167 183.422 106.219 183.734 106.322 184.001C106.428 184.266 106.584 184.473 106.788 184.622C106.995 184.768 107.249 184.842 107.549 184.842Z" fill="#1E757B"/>
<rect x="67.5" y="249.5" width="48" height="31" rx="7.5" fill="#F7FFF5"/>
<rect x="67.5" y="249.5" width="48" height="31" rx="7.5" stroke="#1E757B"/>
<path d="M80.3484 269.114C79.7679 269.114 79.2695 268.986 78.8531 268.731C78.4392 268.476 78.12 268.124 77.8953 267.675C77.6733 267.223 77.5622 266.703 77.5622 266.115C77.5622 265.525 77.6758 265.004 77.9029 264.552C78.13 264.098 78.4506 263.744 78.8644 263.492C79.2808 263.237 79.773 263.11 80.3408 263.11C80.8127 263.11 81.2304 263.197 81.5938 263.371C81.9597 263.543 82.2512 263.786 82.4682 264.102C82.6853 264.414 82.8089 264.78 82.8392 265.199H81.5294C81.4764 264.919 81.3503 264.686 81.1509 264.499C80.954 264.31 80.6903 264.215 80.3597 264.215C80.0796 264.215 79.8335 264.291 79.6215 264.442C79.4095 264.591 79.2442 264.806 79.1256 265.086C79.0095 265.366 78.9515 265.702 78.9515 266.093C78.9515 266.489 79.0095 266.83 79.1256 267.115C79.2417 267.397 79.4045 267.616 79.614 267.77C79.826 267.921 80.0745 267.997 80.3597 267.997C80.5616 267.997 80.742 267.959 80.901 267.883C81.0626 267.805 81.1976 267.693 81.3061 267.546C81.4146 267.4 81.4891 267.222 81.5294 267.013H82.8392C82.8064 267.424 82.6853 267.789 82.4758 268.107C82.2663 268.422 81.9812 268.669 81.6203 268.849C81.2594 269.025 80.8354 269.114 80.3484 269.114ZM83.9645 269V263.185H85.2932V264.155H85.3537C85.4597 263.819 85.6414 263.56 85.8989 263.379C86.1588 263.194 86.4553 263.102 86.7885 263.102C86.8642 263.102 86.9487 263.106 87.0421 263.114C87.138 263.119 87.2175 263.127 87.2806 263.14V264.401C87.2225 264.38 87.1304 264.363 87.0042 264.348C86.8806 264.33 86.7607 264.321 86.6446 264.321C86.3948 264.321 86.1702 264.375 85.9708 264.484C85.7739 264.59 85.6187 264.738 85.5052 264.927C85.3916 265.116 85.3348 265.334 85.3348 265.582V269H83.9645ZM89.7601 269.117C89.3916 269.117 89.0598 269.052 88.7645 268.921C88.4717 268.787 88.2396 268.59 88.068 268.33C87.8989 268.07 87.8143 267.75 87.8143 267.368C87.8143 267.04 87.8749 266.769 87.996 266.555C88.1172 266.34 88.2825 266.168 88.4919 266.04C88.7014 265.911 88.9374 265.814 89.1998 265.748C89.4648 265.68 89.7386 265.631 90.0213 265.601C90.362 265.565 90.6383 265.534 90.8503 265.506C91.0623 265.476 91.2162 265.43 91.3121 265.37C91.4106 265.307 91.4598 265.209 91.4598 265.078V265.055C91.4598 264.77 91.3752 264.55 91.2061 264.393C91.0371 264.237 90.7935 264.158 90.4755 264.158C90.1399 264.158 89.8736 264.232 89.6768 264.378C89.4825 264.524 89.3512 264.697 89.2831 264.897L88.0036 264.715C88.1046 264.361 88.2711 264.066 88.5033 263.829C88.7355 263.589 89.0194 263.41 89.355 263.291C89.6907 263.17 90.0617 263.11 90.468 263.11C90.7481 263.11 91.027 263.143 91.3046 263.208C91.5822 263.274 91.8358 263.382 92.0655 263.534C92.2951 263.683 92.4793 263.886 92.6181 264.143C92.7595 264.401 92.8301 264.722 92.8301 265.108V269H91.5128V268.201H91.4673C91.3841 268.363 91.2667 268.514 91.1153 268.656C90.9664 268.794 90.7784 268.907 90.5513 268.992C90.3266 269.076 90.0629 269.117 89.7601 269.117ZM90.1159 268.11C90.391 268.11 90.6295 268.056 90.8314 267.948C91.0333 267.837 91.1885 267.69 91.297 267.509C91.408 267.327 91.4636 267.129 91.4636 266.914V266.229C91.4207 266.264 91.3475 266.297 91.244 266.327C91.1431 266.358 91.0295 266.384 90.9033 266.407C90.7771 266.43 90.6522 266.45 90.5285 266.467C90.4049 266.485 90.2976 266.5 90.2068 266.513C90.0024 266.541 89.8194 266.586 89.6579 266.649C89.4964 266.712 89.3689 266.801 89.2755 266.914C89.1822 267.025 89.1355 267.169 89.1355 267.346C89.1355 267.598 89.2276 267.789 89.4118 267.917C89.596 268.046 89.8307 268.11 90.1159 268.11ZM98.8037 264.722L97.5545 264.859C97.5191 264.732 97.4573 264.614 97.369 264.503C97.2832 264.392 97.1671 264.302 97.0207 264.234C96.8743 264.166 96.6951 264.132 96.4832 264.132C96.198 264.132 95.9582 264.194 95.7639 264.317C95.5721 264.441 95.4775 264.601 95.48 264.798C95.4775 264.967 95.5393 265.105 95.6655 265.211C95.7942 265.317 96.0062 265.404 96.3014 265.472L97.2933 265.684C97.8434 265.803 98.2522 265.991 98.5198 266.248C98.7898 266.505 98.9261 266.842 98.9286 267.259C98.9261 267.625 98.8188 267.948 98.6068 268.228C98.3974 268.505 98.1059 268.722 97.7324 268.879C97.3589 269.035 96.9298 269.114 96.4453 269.114C95.7336 269.114 95.1607 268.965 94.7267 268.667C94.2926 268.367 94.0339 267.949 93.9506 267.414L95.2869 267.285C95.3475 267.548 95.4762 267.746 95.6731 267.879C95.8699 268.013 96.1261 268.08 96.4415 268.08C96.7671 268.08 97.0283 268.013 97.2251 267.879C97.4245 267.746 97.5242 267.58 97.5242 267.384C97.5242 267.217 97.4598 267.079 97.3311 266.971C97.2049 266.862 97.0081 266.779 96.7406 266.721L95.7488 266.513C95.191 266.397 94.7784 266.201 94.5109 265.926C94.2434 265.649 94.1109 265.298 94.1134 264.874C94.1109 264.515 94.2081 264.205 94.4049 263.943C94.6043 263.678 94.8806 263.473 95.2339 263.329C95.5898 263.183 95.9999 263.11 96.4642 263.11C97.1456 263.11 97.6819 263.255 98.0731 263.545C98.4668 263.835 98.7103 264.228 98.8037 264.722ZM101.429 265.593V269H100.059V261.247H101.399V264.173H101.467C101.603 263.845 101.814 263.587 102.099 263.397C102.387 263.206 102.753 263.11 103.197 263.11C103.601 263.11 103.953 263.194 104.253 263.363C104.553 263.532 104.785 263.78 104.949 264.105C105.116 264.431 105.199 264.828 105.199 265.298V269H103.829V265.51C103.829 265.119 103.728 264.814 103.526 264.597C103.327 264.378 103.047 264.268 102.686 264.268C102.443 264.268 102.226 264.321 102.035 264.427C101.845 264.531 101.696 264.681 101.588 264.878C101.482 265.074 101.429 265.313 101.429 265.593Z" fill="#1E757B"/>
<circle cx="43.5" cy="7.5" r="7.5" fill="#1E757B"/>
<circle cx="43.5" cy="348.5" r="7.5" fill="#1E757B"/>
<circle cx="44" cy="348" r="11" stroke="#1E757B" stroke-width="2"/>
<path d="M43.6464 80.3536C43.8417 80.5488 44.1583 80.5488 44.3536 80.3536L47.5355 77.1716C47.7308 76.9763 47.7308 76.6597 47.5355 76.4645C47.3403 76.2692 47.0237 76.2692 46.8284 76.4645L44 79.2929L41.1716 76.4645C40.9763 76.2692 40.6597 76.2692 40.4645 76.4645C40.2692 76.6597 40.2692 76.9763 40.4645 77.1716L43.6464 80.3536ZM43.5 7L43.5 80H44.5L44.5 7H43.5Z" fill="#1E757B"/>
<path d="M91.6464 249.354C91.8417 249.549 92.1583 249.549 92.3536 249.354L95.5355 246.172C95.7308 245.976 95.7308 245.66 95.5355 245.464C95.3403 245.269 95.0237 245.269 94.8284 245.464L92 248.293L89.1716 245.464C88.9763 245.269 88.6597 245.269 88.4645 245.464C88.2692 245.66 88.2692 245.976 88.4645 246.172L91.6464 249.354ZM91.5 198V249H92.5V198H91.5Z" fill="#1E757B"/>
<path d="M55.971 347.001C55.6953 347.017 55.4848 347.253 55.5008 347.529L55.7617 352.021C55.7777 352.297 56.0142 352.508 56.2898 352.492C56.5655 352.476 56.776 352.239 56.76 351.963L56.5281 347.97L60.5214 347.738C60.7971 347.722 61.0076 347.486 60.9916 347.21C60.9756 346.934 60.7391 346.724 60.4634 346.74L55.971 347.001ZM91.0007 281.027C91.9166 298.179 91.2368 322.031 86.2603 337.926C83.7643 345.898 80.2358 351.708 75.4424 353.798C70.7098 355.861 64.4879 354.387 56.3325 347.127L55.6675 347.873C63.9121 355.213 70.5568 357.018 75.842 354.715C81.0663 352.437 84.7065 346.235 87.2147 338.224C92.2465 322.153 92.9167 298.154 91.9993 280.973L91.0007 281.027Z" fill="#1E757B"/>
<path d="M90.2846 165.911C90.5116 165.754 90.5683 165.442 90.4111 165.215L87.8497 161.516C87.6925 161.288 87.381 161.232 87.154 161.389C86.9269 161.546 86.8703 161.858 87.0275 162.085L89.3043 165.374L86.0155 167.65C85.7885 167.808 85.7319 168.119 85.889 168.346C86.0462 168.573 86.3577 168.63 86.5847 168.473L90.2846 165.911ZM44.5155 112.624C46.5278 120.505 51.2 132.612 58.6898 143.361C66.176 154.105 76.5259 163.558 89.9106 165.992L90.0894 165.008C77.0741 162.642 66.924 153.429 59.5102 142.789C52.1 132.155 47.4722 120.162 45.4845 112.376L44.5155 112.624Z" fill="#1E757B"/>
<path d="M64.0095 94.5001C63.7334 94.4949 63.5053 94.7144 63.5001 94.9905L63.4148 99.4897C63.4096 99.7658 63.6292 99.9939 63.9052 99.9991C64.1813 100.004 64.4094 99.7848 64.4146 99.5087L64.4904 95.5094L68.4897 95.5852C68.7658 95.5904 68.9939 95.3708 68.9991 95.0948C69.0043 94.8187 68.7848 94.5906 68.5087 94.5854L64.0095 94.5001ZM63.6398 95.3468C71.3522 103.357 82.2981 116.511 90.0675 129.926C93.9528 136.635 97.0306 143.387 98.5209 149.579C100.012 155.777 99.8991 161.35 97.4917 165.76L98.3695 166.24C100.944 161.522 101.014 155.663 99.4931 149.345C97.9715 143.023 94.8431 136.177 90.9329 129.425C83.1115 115.92 72.1098 102.702 64.3602 94.6532L63.6398 95.3468Z" fill="#1E757B"/>
<path d="M31.9509 345.998C32.2257 346.025 32.4704 345.824 32.4975 345.549L32.9391 341.071C32.9661 340.796 32.7653 340.551 32.4905 340.524C32.2157 340.497 31.971 340.698 31.9439 340.973L31.5514 344.953L27.5707 344.561C27.2959 344.534 27.0512 344.735 27.0241 345.009C26.997 345.284 27.1978 345.529 27.4726 345.556L31.9509 345.998ZM22.0228 93.3506C12.9288 122.385 2.49387 169.829 0.737781 217.832C-1.01741 265.81 5.8922 314.469 31.6134 345.817L32.3865 345.183C6.90769 314.131 -0.0160261 265.79 1.73711 217.868C3.48936 169.971 13.9045 122.615 22.9771 93.6494L22.0228 93.3506Z" fill="#1E757B"/>
</svg>
