<svg width="175" height="73" viewBox="0 0 175 73" fill="none" xmlns="http://www.w3.org/2000/svg">
<rect x="-1.64832" y="48.3492" width="37.9377" height="13.7459" rx="1.93183" fill="#F7FFF5"/>
<rect x="-1.64832" y="48.3492" width="37.9377" height="13.7459" rx="1.93183" stroke="#1E757B" stroke-width="0.203351"/>
<rect x="87.4491" y="48.3492" width="37.9377" height="13.7459" rx="1.93183" fill="#F7FFF5"/>
<rect x="87.4491" y="48.3492" width="37.9377" height="13.7459" rx="1.93183" stroke="#1E757B" stroke-width="0.203351"/>
<rect x="131.998" y="48.3492" width="44.6505" height="13.8325" rx="1.93183" fill="#F7FFF5"/>
<rect x="131.998" y="48.3492" width="44.6505" height="13.8325" rx="1.93183" stroke="#1E757B" stroke-width="0.203351"/>
<rect x="42.9005" y="48.3492" width="37.9377" height="13.7459" rx="1.93183" fill="#F7FFF5"/>
<rect x="42.9005" y="48.3492" width="37.9377" height="13.7459" rx="1.93183" stroke="#1E757B" stroke-width="0.203351"/>
<rect x="71.2772" y="29.6121" width="32.9262" height="13.7459" rx="1.93183" fill="#F7FFF5"/>
<rect x="71.2772" y="29.6121" width="32.9262" height="13.7459" rx="1.93183" stroke="#1E757B" stroke-width="0.203351"/>
<path d="M87.6886 29.6865C87.7859 29.7838 87.9436 29.7838 88.0409 29.6865L89.6261 28.1013C89.7234 28.004 89.7234 27.8463 89.6261 27.749C89.5288 27.6517 89.3711 27.6517 89.2738 27.749L87.8647 29.1581L86.4557 27.749C86.3584 27.6517 86.2007 27.6517 86.1034 27.749C86.0061 27.8463 86.0061 28.004 86.1034 28.1013L87.6886 29.6865ZM87.6157 23.5321V29.5104H88.1138V23.5321H87.6157Z" fill="#1E757B"/>
<rect x="57.8745" y="10.8412" width="58.7863" height="13.7002" rx="2.3664" fill="#F7FFF5"/>
<rect x="57.8745" y="10.8412" width="58.7863" height="13.7002" rx="2.3664" stroke="#1E757B" stroke-width="0.249094"/>
<path d="M29.6565 36.3608L29.6495 36.5134H29.6565V36.3608ZM16.7922 48.3617C16.8553 48.4175 16.9517 48.4116 17.0075 48.3485L17.917 47.3198C17.9728 47.2567 17.9669 47.1603 17.9038 47.1044C17.8406 47.0486 17.7442 47.0546 17.6884 47.1177L16.88 48.0321L15.9656 47.2236C15.9025 47.1678 15.8061 47.1737 15.7502 47.2369C15.6944 47.3 15.7004 47.3964 15.7635 47.4522L16.7922 48.3617ZM71.1756 36.2082H29.6565V36.5134H71.1756V36.2082ZM29.6634 36.2084C27.3868 36.1045 24.008 36.5784 21.2699 38.3475C18.5204 40.124 16.4299 43.1993 16.7409 48.2568L17.0455 48.238C16.7414 43.2923 18.7772 40.3213 21.4355 38.6038C24.1051 36.879 27.4155 36.4113 29.6495 36.5132L29.6634 36.2084Z" fill="#1E757B"/>
<path d="M65.197 40.6205L65.1922 40.7731H65.197V40.6205ZM60.7824 48.3654C60.8475 48.4188 60.9437 48.4092 60.9971 48.344L61.867 47.2817C61.9204 47.2165 61.9108 47.1204 61.8456 47.067C61.7805 47.0136 61.6843 47.0232 61.631 47.0884L60.8576 48.0326L59.9134 47.2593C59.8482 47.206 59.7521 47.2155 59.6987 47.2807C59.6453 47.3459 59.6549 47.442 59.72 47.4954L60.7824 48.3654ZM71.1756 40.468H65.197V40.7731H71.1756V40.468ZM65.2017 40.468C64.3109 40.4402 63.0295 40.8062 62.0516 41.9807C61.0726 43.1566 60.4146 45.122 60.7272 48.2625L61.0308 48.2322C60.7234 45.1441 61.3755 43.2696 62.2861 42.176C63.1978 41.081 64.3853 40.7478 65.1922 40.773L65.2017 40.468Z" fill="#1E757B"/>
<path d="M110.413 40.6205L110.418 40.7731H110.413V40.6205ZM114.828 48.3654C114.763 48.4188 114.667 48.4092 114.613 48.344L113.743 47.2817C113.69 47.2165 113.7 47.1204 113.765 47.067C113.83 47.0136 113.926 47.0232 113.979 47.0884L114.753 48.0326L115.697 47.2593C115.762 47.206 115.858 47.2155 115.912 47.2807C115.965 47.3459 115.955 47.442 115.89 47.4954L114.828 48.3654ZM104.435 40.468H110.413V40.7731H104.435V40.468ZM110.409 40.468C111.299 40.4402 112.581 40.8062 113.559 41.9807C114.538 43.1566 115.196 45.122 114.883 48.2625L114.58 48.2322C114.887 45.1441 114.235 43.2696 113.324 42.176C112.413 41.081 111.225 40.7478 110.418 40.773L110.409 40.468Z" fill="#1E757B"/>
<path d="M155.587 48.3544C155.646 48.4145 155.743 48.4153 155.803 48.3562L156.782 47.3938C156.842 47.3347 156.843 47.2381 156.784 47.178C156.725 47.1179 156.629 47.1171 156.568 47.1762L155.698 48.0317L154.842 47.1612C154.783 47.1011 154.687 47.1003 154.627 47.1593C154.567 47.2184 154.566 47.315 154.625 47.3751L155.587 48.3544ZM116.81 17.7336C123.325 16.9731 133.078 17.5907 141.165 21.9046C145.206 24.0602 148.829 27.1377 151.428 31.4262C154.026 35.7144 155.604 41.222 155.544 48.2461L155.849 48.2488C155.91 41.176 154.32 35.6112 151.689 31.2681C149.058 26.9253 145.39 23.8125 141.309 21.6353C133.15 17.2835 123.329 16.6654 116.775 17.4305L116.81 17.7336Z" fill="#1E757B"/>
</svg>
