<svg width="173" height="45" viewBox="0 0 173 45" fill="none" xmlns="http://www.w3.org/2000/svg">
<path d="M49.552 35.384C48.1867 35.384 47.0667 35.1707 46.192 34.744C45.3173 34.296 44.6667 33.7093 44.24 32.984C43.8133 32.2587 43.6 31.4587 43.6 30.584C43.6 29.112 44.176 27.9173 45.328 27C46.48 26.0827 48.208 25.624 50.512 25.624H54.544V25.24C54.544 24.152 54.2347 23.352 53.616 22.84C52.9973 22.328 52.2293 22.072 51.312 22.072C50.48 22.072 49.7547 22.2747 49.136 22.68C48.5173 23.064 48.1333 23.64 47.984 24.408H43.984C44.0907 23.256 44.4747 22.2533 45.136 21.4C45.8187 20.5467 46.6933 19.896 47.76 19.448C48.8267 18.9787 50.0213 18.744 51.344 18.744C53.6053 18.744 55.3867 19.3093 56.688 20.44C57.9893 21.5707 58.64 23.1707 58.64 25.24V35H55.152L54.768 32.44C54.2987 33.2933 53.6373 33.9973 52.784 34.552C51.952 35.1067 50.8747 35.384 49.552 35.384ZM50.48 32.184C51.6533 32.184 52.56 31.8 53.2 31.032C53.8613 30.264 54.2773 29.3147 54.448 28.184H50.96C49.872 28.184 49.0933 28.3867 48.624 28.792C48.1547 29.176 47.92 29.656 47.92 30.232C47.92 30.8507 48.1547 31.3307 48.624 31.672C49.0933 32.0133 49.712 32.184 50.48 32.184ZM62.5488 35V11.96H66.6448V35H62.5488ZM73.038 16.664C72.2913 16.664 71.6727 16.44 71.182 15.992C70.7127 15.544 70.478 14.9787 70.478 14.296C70.478 13.6133 70.7127 13.0587 71.182 12.632C71.6727 12.184 72.2913 11.96 73.038 11.96C73.7847 11.96 74.3927 12.184 74.862 12.632C75.3527 13.0587 75.598 13.6133 75.598 14.296C75.598 14.9787 75.3527 15.544 74.862 15.992C74.3927 16.44 73.7847 16.664 73.038 16.664ZM70.99 35V19.128H75.086V35H70.99ZM85.9213 35.384C84.5133 35.384 83.2759 35.16 82.2093 34.712C81.1426 34.2427 80.2893 33.6027 79.6493 32.792C79.0093 31.9813 78.6253 31.0427 78.4973 29.976H82.6253C82.7533 30.5947 83.0946 31.128 83.6493 31.576C84.2253 32.0027 84.9613 32.216 85.8573 32.216C86.7533 32.216 87.4039 32.0347 87.8093 31.672C88.2359 31.3093 88.4493 30.8933 88.4493 30.424C88.4493 29.7413 88.1506 29.2827 87.5533 29.048C86.9559 28.792 86.1239 28.5467 85.0573 28.312C84.3746 28.1627 83.6813 27.9813 82.9773 27.768C82.2733 27.5547 81.6226 27.288 81.0253 26.968C80.4493 26.6267 79.9799 26.2 79.6173 25.688C79.2546 25.1547 79.0733 24.504 79.0733 23.736C79.0733 22.328 79.6279 21.144 80.7373 20.184C81.8679 19.224 83.4466 18.744 85.4733 18.744C87.3506 18.744 88.8439 19.1813 89.9533 20.056C91.0839 20.9307 91.7559 22.136 91.9693 23.672H88.0973C87.8626 22.4987 86.9773 21.912 85.4413 21.912C84.6733 21.912 84.0759 22.0613 83.6493 22.36C83.2439 22.6587 83.0413 23.032 83.0413 23.48C83.0413 23.9493 83.3506 24.3227 83.9693 24.6C84.5879 24.8773 85.4093 25.1333 86.4333 25.368C87.5426 25.624 88.5559 25.912 89.4733 26.232C90.4119 26.5307 91.1586 26.9893 91.7133 27.608C92.2679 28.2053 92.5453 29.0693 92.5453 30.2C92.5666 31.1813 92.3106 32.0667 91.7773 32.856C91.2439 33.6453 90.4759 34.264 89.4733 34.712C88.4706 35.16 87.2866 35.384 85.9213 35.384ZM103.95 35.384C102.328 35.384 100.899 35.032 99.6618 34.328C98.4244 33.624 97.4431 32.6427 96.7178 31.384C96.0138 30.1253 95.6618 28.6853 95.6618 27.064C95.6618 25.4427 96.0138 24.0027 96.7178 22.744C97.4431 21.4853 98.4244 20.504 99.6618 19.8C100.899 19.096 102.328 18.744 103.95 18.744C105.976 18.744 107.683 19.2773 109.07 20.344C110.456 21.3893 111.342 22.84 111.726 24.696H107.406C107.192 23.928 106.766 23.3307 106.126 22.904C105.507 22.456 104.771 22.232 103.918 22.232C102.787 22.232 101.827 22.6587 101.038 23.512C100.248 24.3653 99.8538 25.5493 99.8538 27.064C99.8538 28.5787 100.248 29.7627 101.038 30.616C101.827 31.4693 102.787 31.896 103.918 31.896C104.771 31.896 105.507 31.6827 106.126 31.256C106.766 30.8293 107.192 30.2213 107.406 29.432H111.726C111.342 31.224 110.456 32.664 109.07 33.752C107.683 34.84 105.976 35.384 103.95 35.384ZM122.977 35.384C121.441 35.384 120.055 35.032 118.817 34.328C117.601 33.624 116.631 32.6533 115.905 31.416C115.201 30.1573 114.849 28.7067 114.849 27.064C114.849 25.4213 115.212 23.9813 115.937 22.744C116.663 21.4853 117.633 20.504 118.849 19.8C120.087 19.096 121.473 18.744 123.009 18.744C124.524 18.744 125.889 19.096 127.105 19.8C128.343 20.504 129.313 21.4853 130.017 22.744C130.743 23.9813 131.105 25.4213 131.105 27.064C131.105 28.7067 130.743 30.1573 130.017 31.416C129.313 32.6533 128.343 33.624 127.105 34.328C125.868 35.032 124.492 35.384 122.977 35.384ZM122.977 31.832C124.044 31.832 124.972 31.4373 125.761 30.648C126.551 29.8373 126.945 28.6427 126.945 27.064C126.945 25.4853 126.551 24.3013 125.761 23.512C124.972 22.7013 124.055 22.296 123.009 22.296C121.921 22.296 120.983 22.7013 120.193 23.512C119.425 24.3013 119.041 25.4853 119.041 27.064C119.041 28.6427 119.425 29.8373 120.193 30.648C120.983 31.4373 121.911 31.832 122.977 31.832ZM134.768 42.04V19.128H138.416L138.864 21.4C139.376 20.696 140.048 20.0773 140.88 19.544C141.733 19.0107 142.832 18.744 144.176 18.744C145.669 18.744 147.002 19.1067 148.176 19.832C149.349 20.5573 150.277 21.5493 150.96 22.808C151.642 24.0667 151.984 25.496 151.984 27.096C151.984 28.696 151.642 30.1253 150.96 31.384C150.277 32.6213 149.349 33.6027 148.176 34.328C147.002 35.032 145.669 35.384 144.176 35.384C142.981 35.384 141.936 35.16 141.04 34.712C140.144 34.264 139.418 33.6347 138.864 32.824V42.04H134.768ZM143.312 31.8C144.613 31.8 145.69 31.3627 146.544 30.488C147.397 29.6133 147.824 28.4827 147.824 27.096C147.824 25.7093 147.397 24.568 146.544 23.672C145.69 22.776 144.613 22.328 143.312 22.328C141.989 22.328 140.901 22.776 140.048 23.672C139.216 24.5467 138.8 25.6773 138.8 27.064C138.8 28.4507 139.216 29.592 140.048 30.488C140.901 31.3627 141.989 31.8 143.312 31.8ZM163.355 35.384C161.755 35.384 160.336 35.0427 159.099 34.36C157.861 33.6773 156.891 32.7173 156.187 31.48C155.483 30.2427 155.131 28.8133 155.131 27.192C155.131 25.5493 155.472 24.088 156.155 22.808C156.859 21.528 157.819 20.536 159.035 19.832C160.272 19.1067 161.723 18.744 163.387 18.744C164.944 18.744 166.32 19.0853 167.515 19.768C168.709 20.4507 169.637 21.3893 170.299 22.584C170.981 23.7573 171.323 25.0693 171.323 26.52C171.323 26.7547 171.312 27 171.291 27.256C171.291 27.512 171.28 27.7787 171.259 28.056H159.195C159.28 29.2933 159.707 30.264 160.475 30.968C161.264 31.672 162.213 32.024 163.323 32.024C164.155 32.024 164.848 31.8427 165.403 31.48C165.979 31.096 166.405 30.6053 166.683 30.008H170.843C170.544 31.0107 170.043 31.928 169.339 32.76C168.656 33.5707 167.803 34.2107 166.779 34.68C165.776 35.1493 164.635 35.384 163.355 35.384ZM163.387 22.072C162.384 22.072 161.499 22.36 160.731 22.936C159.963 23.4907 159.472 24.344 159.259 25.496H167.163C167.099 24.4507 166.715 23.6187 166.011 23C165.307 22.3813 164.432 22.072 163.387 22.072Z" fill="#1F2937"/>
<path fill-rule="evenodd" clip-rule="evenodd" d="M20.2886 0.0111558C20.9877 0.0260301 21.9397 0.0855275 22.4082 0.152462C22.8767 0.21196 23.6279 0.353266 24.0816 0.449949C24.5352 0.55407 25.0187 0.673064 25.16 0.71025C25.3013 0.754873 25.5541 0.866431 25.7177 0.963114C25.8814 1.0598 26.1119 1.25316 26.2309 1.38703C26.3499 1.52834 26.5061 1.77377 26.5805 1.93738C26.6697 2.13819 26.7218 2.42824 26.7218 2.82985C26.7292 3.15708 26.6995 3.54381 26.6548 3.68512C26.6028 3.82643 26.4912 4.07929 26.3945 4.24291C26.2978 4.40653 26.0896 4.65939 25.9334 4.8007C25.7698 4.94944 25.4426 5.16512 25.1971 5.28411C24.7807 5.49235 24.6989 5.50723 23.8585 5.49979C23.3676 5.49979 22.5718 5.44773 22.0884 5.37336C21.5604 5.29899 20.7646 5.24693 20.0506 5.24693C19.4036 5.24693 18.526 5.27668 18.0946 5.3213C17.6633 5.35849 16.8973 5.49979 16.3841 5.62622C15.8709 5.75266 15.0677 6.00552 14.5992 6.19145C14.1306 6.36994 13.3795 6.71205 12.9258 6.9426C12.4721 7.17316 11.8549 7.54502 11.5499 7.76813C11.245 7.98381 10.6426 8.45235 10.2112 8.8019C9.70551 9.21094 9.20722 9.7018 8.79818 10.2075C8.44863 10.6389 7.97265 11.2562 7.73466 11.5908C7.48923 11.9255 7.13969 12.4833 6.95376 12.8328C6.76039 13.1824 6.42572 13.9187 6.21004 14.469C5.98693 15.0194 5.682 15.9788 5.52582 16.5886C5.29527 17.4885 5.22833 17.9422 5.1614 18.9313C5.10934 19.7494 5.1019 20.4931 5.15396 21.1625C5.19115 21.7128 5.27296 22.4342 5.33245 22.7615C5.39939 23.0887 5.55557 23.706 5.682 24.1374C5.80843 24.5687 6.04642 25.2529 6.21004 25.662C6.3811 26.071 6.70089 26.7404 6.92401 27.1494C7.14712 27.5585 7.53386 28.1981 7.79416 28.5625C8.04702 28.9269 8.523 29.5293 8.8428 29.8937C9.17004 30.2582 9.77989 30.8606 10.2112 31.2175C10.6426 31.582 11.3417 32.1174 11.773 32.4075C12.2044 32.6975 12.9556 33.1289 13.4464 33.3669C13.9373 33.6049 14.7405 33.9321 15.2313 34.0957C15.7222 34.2519 16.4436 34.4527 16.8303 34.5345C17.2171 34.6163 17.8715 34.7279 18.2806 34.78C18.764 34.832 19.5375 34.8543 20.4745 34.8246C21.6273 34.7948 22.1182 34.7428 22.8544 34.594C23.3676 34.4825 24.1857 34.2594 24.6765 34.0957C25.1674 33.9321 25.9557 33.5974 26.4243 33.3669C26.8928 33.1363 27.5324 32.7794 27.8373 32.586C28.1423 32.3852 28.5959 32.0728 28.8414 31.8869C29.0868 31.701 29.6223 31.2399 30.0239 30.8754C30.4255 30.5036 31.0279 29.864 31.3551 29.4549C31.6898 29.0459 32.1509 28.4063 32.3963 28.0419C32.6343 27.6775 33.0285 26.9709 33.2665 26.4801C33.5045 25.9892 33.802 25.2827 33.9358 24.9183C34.0623 24.5538 34.2631 23.7804 34.3821 23.2077C34.4936 22.635 34.6275 21.8616 34.6721 21.4972C34.7167 21.1327 34.7688 20.6419 34.7911 20.4188C34.8134 20.1882 34.8878 19.9279 34.9622 19.8238C35.0588 19.6974 35.2522 19.5932 35.5794 19.504C35.8397 19.4371 36.6876 19.2437 37.4685 19.0726C38.2494 18.9016 39.0303 18.7603 39.2162 18.7528C39.5435 18.7454 39.5583 18.7528 39.7219 19.0801C39.8707 19.385 39.8856 19.5189 39.8856 20.4931C39.8856 21.0881 39.8409 21.9583 39.7814 22.4268C39.722 22.8953 39.5658 23.7506 39.4393 24.3233C39.3055 24.8959 39.0675 25.7661 38.9039 26.2569C38.7402 26.7478 38.4576 27.499 38.2717 27.9303C38.0858 28.3617 37.766 29.0459 37.5577 29.4549C37.3421 29.864 36.881 30.6374 36.5314 31.1655C36.1744 31.6935 35.6166 32.4521 35.2894 32.8389C34.9622 33.2256 34.2705 33.9619 33.7425 34.475C33.2144 34.9882 32.4484 35.6575 32.0393 35.9625C31.6303 36.2748 30.9758 36.7211 30.5891 36.9665C30.2024 37.2045 29.3173 37.6879 28.6182 38.0449C27.8745 38.4167 27.0044 38.796 26.4987 38.9596C26.0301 39.1084 25.2418 39.3315 24.7509 39.4505C24.2601 39.5695 23.5758 39.7257 23.2263 39.7926C22.8767 39.8595 21.895 39.9414 21.0323 39.9785C20.1696 40.0083 19.0169 40.0083 18.4665 39.9711C17.9162 39.9414 17.2096 39.8819 16.9047 39.8372C16.5998 39.8001 15.9304 39.6587 15.4173 39.5323C14.9041 39.4059 14.1678 39.1976 13.7811 39.0712C13.3944 38.9448 12.7101 38.6993 12.2565 38.5134C11.8028 38.3275 11.0516 37.9779 10.5831 37.7325C10.1146 37.4871 9.3634 37.0409 8.90974 36.7434C8.45607 36.4384 7.80903 35.9699 7.45949 35.6947C7.10994 35.4196 6.38853 34.7576 5.86049 34.2222C5.32502 33.6867 4.68542 32.995 4.43999 32.6901C4.18713 32.3852 3.77065 31.8125 3.50291 31.4258C3.23517 31.0391 2.83356 30.4143 2.61789 30.0499C2.40221 29.6855 2.05266 29.0161 1.84442 28.5625C1.62874 28.1088 1.36844 27.5138 1.26432 27.2238C1.1602 26.9337 0.951958 26.3164 0.810652 25.8479C0.669346 25.3794 0.483416 24.71 0.401607 24.3605C0.319799 24.0109 0.200804 23.2746 0.126432 22.7243C0.042144 22.0549 0 21.1873 0 20.1213C0 19.2437 0.0371859 18.1207 0.0892461 17.6298C0.141306 17.139 0.245427 16.4027 0.327236 15.9936C0.401607 15.5846 0.565225 14.9301 0.676783 14.5434C0.795778 14.1567 1.01889 13.5022 1.17507 13.0931C1.33125 12.6841 1.59156 12.0296 1.76261 11.6429C1.9411 11.2562 2.29065 10.5719 2.55095 10.1183C2.80381 9.66461 3.19055 9.04733 3.39879 8.7424C3.59959 8.43748 4.03839 7.84994 4.37306 7.4409C4.70029 7.03929 5.30271 6.3625 5.71175 5.95346C6.1208 5.53698 6.76039 4.94944 7.12481 4.64452C7.48924 4.33959 8.11396 3.87105 8.50069 3.59587C8.88742 3.32814 9.51215 2.92653 9.87657 2.71085C10.241 2.49517 10.9103 2.14563 11.364 1.92995C11.8177 1.71427 12.5019 1.42422 12.8886 1.28291C13.2754 1.13417 13.8778 0.933366 14.2273 0.829245C14.5769 0.725125 15.328 0.539195 15.9007 0.4202C16.4733 0.301206 17.2617 0.167336 17.6484 0.122713C18.0351 0.0780903 18.5037 0.0260301 18.6896 0.0111558C18.8755 -0.00371859 19.5895 -0.00371859 20.2886 0.0111558V0.0111558ZM24.8402 14.5434C24.8997 14.5434 24.9368 14.8558 24.9592 15.5995C24.9815 16.4548 25.0187 16.7597 25.1525 17.1464C25.2492 17.4141 25.4426 17.8306 25.5913 18.0761C25.7475 18.3215 26.0375 18.7008 26.2384 18.9239C26.4466 19.1396 26.8185 19.4742 27.0788 19.6676C27.3316 19.8535 27.5622 20.0618 27.577 20.1213C27.5994 20.1808 27.6068 20.2403 27.5994 20.2477C27.5845 20.2626 26.7887 20.4634 25.8293 20.7088C24.8699 20.9542 23.2635 21.3707 22.2595 21.6385C20.9505 21.9954 20.3109 22.1293 19.9911 22.1293C19.6788 22.1293 19.4333 22.0773 19.173 21.9508C18.9722 21.8541 18.6971 21.6608 18.5632 21.5269C18.4368 21.3856 18.2583 21.1402 18.1765 20.9766C18.0872 20.8129 17.9905 20.4857 17.9459 20.2477C17.8864 19.913 17.8938 19.7569 17.9831 19.504C18.0426 19.3329 18.1839 19.0578 18.2954 18.9016C18.4144 18.738 18.6896 18.4702 18.9127 18.3066C19.1359 18.1356 19.9242 17.615 20.6605 17.139C21.3968 16.663 22.438 16.0011 22.966 15.659C23.494 15.3169 24.1188 14.9301 24.3419 14.7888C24.565 14.655 24.7881 14.5434 24.8402 14.5434V14.5434Z" fill="#222835"/>
<path d="M38.4725 4.39165C38.6956 4.31727 39.1121 4.21315 39.4021 4.16109C39.6922 4.10903 40.1161 4.06441 40.3541 4.06441C40.5847 4.05697 41.0383 4.09416 41.3581 4.13135C41.6705 4.17597 42.1018 4.26521 42.3026 4.33215C42.5109 4.39908 42.9422 4.57014 43.2695 4.71888C43.5967 4.87506 44.0355 5.10562 44.2363 5.23948C44.4446 5.38079 44.8982 5.77496 45.2478 6.13195C45.6494 6.53355 45.9915 6.96491 46.17 7.29215C46.3336 7.57476 46.5716 8.08049 46.7129 8.40772C46.8542 8.73496 47.0327 9.30762 47.1071 9.67204C47.1814 10.0365 47.2484 10.5645 47.2484 10.8397C47.2484 11.1223 47.1963 11.6057 47.1294 11.9181C47.0624 12.2379 46.9063 12.751 46.7798 13.056C46.6534 13.3609 46.3782 13.9187 46.1774 14.2831C45.9097 14.7516 45.6196 15.1309 45.2031 15.5474C44.8164 15.9267 44.3925 16.2614 44.0132 16.4771C43.686 16.663 43.1207 16.9233 42.7489 17.0646C42.377 17.1985 40.9268 17.5926 39.5137 17.9273C38.1006 18.2694 36.0926 18.738 35.0514 18.9685C34.0102 19.1991 32.7161 19.4966 32.1881 19.6379C31.66 19.7792 30.9535 19.9279 30.6263 19.9651C30.2619 20.0097 29.8305 20.0097 29.5107 19.9725C29.2207 19.9353 28.8414 19.8535 28.6554 19.7866C28.4695 19.7197 28.12 19.556 27.8745 19.4296C27.6291 19.2957 27.1754 18.9388 26.8631 18.6338C26.4615 18.2397 26.2309 17.9347 26.0673 17.5926C25.9409 17.3249 25.7698 16.8266 25.688 16.4771C25.5987 16.1275 25.5318 15.659 25.5318 15.4359C25.5318 15.2127 25.5839 14.7888 25.6434 14.5062C25.7029 14.2236 25.8814 13.7179 26.045 13.3906C26.2681 12.9444 26.4763 12.6618 26.8854 12.2602C27.1829 11.9627 27.577 11.6131 27.763 11.4718C27.9489 11.3305 28.6852 10.8248 29.3991 10.3414C30.1131 9.85797 31.0502 9.2035 31.4816 8.89114C31.9129 8.57878 33.3706 7.56732 34.7167 6.63767C36.0629 5.71546 37.3718 4.86019 37.6172 4.74119C37.8627 4.6222 38.2494 4.46602 38.4725 4.39165Z" fill="url(#paint0_linear_92_190)"/>
<path d="M41.254 8.41517C41.4102 8.20693 41.6259 7.85739 41.73 7.64914C41.8341 7.43347 41.9531 7.25497 41.9977 7.25497C42.0424 7.25497 42.2209 7.57477 42.3919 7.96151C42.5704 8.34824 42.8381 8.80934 42.9943 8.9804C43.1431 9.15145 43.4405 9.39688 43.6414 9.52331C43.8496 9.65718 44.1917 9.8208 44.4074 9.88773C44.6156 9.95467 44.7941 10.029 44.7941 10.0662C44.8016 10.096 44.5859 10.2001 44.333 10.3042C44.0727 10.4083 43.6785 10.6017 43.4554 10.7356C43.2323 10.8694 42.9051 11.1223 42.7266 11.2934C42.5481 11.4644 42.2952 11.7917 42.1539 12.0148C42.02 12.2379 41.8862 12.5131 41.8639 12.6321C41.8416 12.7436 41.7821 12.8329 41.7449 12.8329C41.7077 12.8329 41.5738 12.5726 41.4474 12.2602C41.3284 11.9404 41.0978 11.4942 40.9417 11.271C40.778 11.0479 40.4508 10.7207 40.2128 10.5571C39.9674 10.386 39.6327 10.1778 39.4617 10.0885C39.2832 10.0067 39.1419 9.90261 39.1419 9.85799C39.1419 9.81336 39.2311 9.74643 39.3501 9.70181C39.4617 9.64975 39.7666 9.51588 40.0343 9.39688C40.3021 9.27045 40.6219 9.09196 40.7409 8.98784C40.8673 8.88372 41.0904 8.62341 41.254 8.41517Z" fill="#F5F5F5"/>
<defs>
<linearGradient id="paint0_linear_92_190" x1="58.1069" y1="28.7644" x2="33.6859" y2="29.504" gradientUnits="userSpaceOnUse">
<stop offset="0.145" stop-color="#ED6C02"/>
<stop offset="0.425" stop-color="#EDB902"/>
<stop offset="1" stop-color="#1E757B"/>
</linearGradient>
</defs>
</svg>
