<svg width="60" height="50" viewBox="0 0 60 50" fill="none" xmlns="http://www.w3.org/2000/svg">
<path fill-rule="evenodd" clip-rule="evenodd" d="M25.3608 0.0139447C26.2346 0.0325376 27.4246 0.106909 28.0103 0.190578C28.5959 0.264949 29.5349 0.441582 30.102 0.562436C30.6691 0.692587 31.2733 0.841331 31.45 0.887813C31.6266 0.943592 31.9427 1.08304 32.1472 1.20389C32.3517 1.32475 32.6399 1.56646 32.7886 1.73379C32.9374 1.91042 33.1326 2.21721 33.2256 2.42173C33.3371 2.67274 33.4022 3.0353 33.4022 3.53731C33.4115 3.94635 33.3743 4.42977 33.3185 4.6064C33.2535 4.78303 33.114 5.09911 32.9932 5.30364C32.8723 5.50816 32.612 5.82424 32.4168 6.00087C32.2123 6.1868 31.8032 6.4564 31.4964 6.60514C30.9758 6.86544 30.8736 6.88404 29.8231 6.87474C29.2095 6.87474 28.2148 6.80966 27.6105 6.7167C26.9505 6.62373 25.9557 6.55866 25.0633 6.55866C24.2545 6.55866 23.1575 6.59585 22.6183 6.65162C22.0791 6.69811 21.1216 6.87474 20.4801 7.03278C19.8387 7.19082 18.8346 7.5069 18.249 7.73931C17.6633 7.96243 16.7243 8.39006 16.1573 8.67825C15.5902 8.96645 14.8186 9.43127 14.4374 9.71016C14.0563 9.97976 13.3032 10.5654 12.7641 11.0024C12.1319 11.5137 11.509 12.1272 10.9977 12.7594C10.5608 13.2986 9.96582 14.0702 9.66833 14.4885C9.36154 14.9069 8.92461 15.6041 8.6922 16.0411C8.45049 16.478 8.03215 17.3983 7.76255 18.0863C7.48366 18.7742 7.1025 19.9735 6.90728 20.7358C6.61909 21.8606 6.53542 22.4277 6.45175 23.6642C6.38667 24.6868 6.37738 25.6164 6.44245 26.4531C6.48894 27.141 6.5912 28.0428 6.66557 28.4518C6.74924 28.8609 6.94446 29.6325 7.1025 30.1717C7.26054 30.7109 7.55803 31.5662 7.76255 32.0775C7.97637 32.5888 8.37612 33.4255 8.65501 33.9368C8.93391 34.4481 9.41732 35.2476 9.7427 35.7031C10.0588 36.1586 10.6538 36.9116 11.0535 37.3672C11.4625 37.8227 12.2249 38.5757 12.7641 39.0219C13.3032 39.4775 14.1771 40.1468 14.7163 40.5094C15.2555 40.8719 16.1944 41.4111 16.808 41.7086C17.4216 42.0061 18.4256 42.4151 19.0392 42.6197C19.6527 42.8149 20.5545 43.0659 21.0379 43.1682C21.5213 43.2704 22.3394 43.4099 22.8507 43.4749C23.455 43.54 24.4218 43.5679 25.5932 43.5307C27.0341 43.4935 27.6477 43.4285 28.568 43.2425C29.2095 43.1031 30.2321 42.8242 30.8457 42.6197C31.4593 42.4151 32.4447 41.9968 33.0304 41.7086C33.616 41.4204 34.4155 40.9742 34.7967 40.7325C35.1778 40.4815 35.7449 40.091 36.0517 39.8586C36.3585 39.6262 37.0278 39.0498 37.5298 38.5943C38.0319 38.1295 38.7849 37.33 39.1939 36.8187C39.6123 36.3074 40.1886 35.5079 40.4954 35.0523C40.7929 34.5968 41.2856 33.7136 41.5831 33.1001C41.8806 32.4865 42.2525 31.6033 42.4198 31.1478C42.5778 30.6923 42.8288 29.7255 42.9776 29.0096C43.117 28.2938 43.2844 27.327 43.3401 26.8714C43.3959 26.4159 43.461 25.8024 43.4889 25.5235C43.5168 25.2353 43.6097 24.9099 43.7027 24.7797C43.8236 24.6217 44.0653 24.4916 44.4743 24.38C44.7997 24.2963 45.8595 24.0546 46.8356 23.8408C47.8117 23.627 48.7879 23.4503 49.0203 23.441C49.4293 23.4318 49.4479 23.441 49.6524 23.8501C49.8384 24.2312 49.857 24.3986 49.857 25.6164C49.857 26.3601 49.8012 27.4478 49.7268 28.0335C49.6524 28.6192 49.4572 29.6883 49.2992 30.4041C49.1318 31.1199 48.8344 32.2076 48.6298 32.8212C48.4253 33.4348 48.072 34.3737 47.8396 34.9129C47.6072 35.4521 47.2075 36.3074 46.9472 36.8187C46.6776 37.33 46.1012 38.2968 45.6643 38.9569C45.218 39.6169 44.5208 40.5651 44.1117 41.0486C43.7027 41.532 42.8381 42.4523 42.1781 43.0938C41.518 43.7352 40.5605 44.5719 40.0492 44.9531C39.5379 45.3435 38.7198 45.9013 38.2364 46.2081C37.753 46.5056 36.6467 47.1099 35.7728 47.5561C34.8432 48.0209 33.7555 48.495 33.1233 48.6996C32.5376 48.8855 31.5522 49.1644 30.9386 49.3131C30.3251 49.4619 29.4698 49.6571 29.0329 49.7408C28.5959 49.8244 27.3688 49.9267 26.2904 49.9732C25.212 50.0104 23.7711 50.0104 23.0831 49.9639C22.3952 49.9267 21.512 49.8523 21.1309 49.7965C20.7497 49.7501 19.913 49.5734 19.2716 49.4154C18.6301 49.2573 17.7098 48.997 17.2264 48.839C16.7429 48.681 15.8877 48.3742 15.3206 48.1418C14.7535 47.9094 13.8146 47.4724 13.2289 47.1656C12.6432 46.8589 11.7043 46.3011 11.1372 45.9292C10.5701 45.5481 9.76129 44.9624 9.32436 44.6184C8.88743 44.2744 7.98567 43.4471 7.32562 42.7777C6.65627 42.1084 5.85678 41.2438 5.54999 40.8626C5.23391 40.4815 4.71331 39.7656 4.37864 39.2822C4.04396 38.7988 3.54195 38.0179 3.27236 37.5624C3.00276 37.1069 2.56583 36.2702 2.30552 35.7031C2.03593 35.136 1.71055 34.3923 1.5804 34.0297C1.45025 33.6672 1.18995 32.8956 1.01332 32.3099C0.836682 31.7242 0.604271 30.8875 0.502009 30.4506C0.399748 30.0137 0.251005 29.0933 0.15804 28.4054C0.05268 27.5687 0 26.4841 0 25.1516C0 24.0546 0.0464824 22.6508 0.111558 22.0373C0.176633 21.4237 0.306783 20.5034 0.409045 19.9921C0.502009 19.4808 0.706532 18.6627 0.845979 18.1792C0.994722 17.6958 1.27362 16.8777 1.46884 16.3664C1.66407 15.8551 1.98944 15.037 2.20326 14.5536C2.42638 14.0702 2.86331 13.2149 3.18869 12.6478C3.50477 12.0808 3.98819 11.3092 4.24849 10.928C4.49949 10.5468 5.04798 9.81242 5.46632 9.30112C5.87537 8.79911 6.62838 7.95313 7.13969 7.44182C7.65099 6.92122 8.45049 6.1868 8.90602 5.80565C9.36154 5.42449 10.1424 4.83881 10.6259 4.49484C11.1093 4.16017 11.8902 3.65816 12.3457 3.38856C12.8012 3.11897 13.6379 2.68203 14.205 2.41243C14.7721 2.14284 15.6274 1.78027 16.1108 1.60364C16.5942 1.41771 17.3472 1.16671 17.7841 1.03656C18.2211 0.906406 19.16 0.673994 19.8759 0.525251C20.5917 0.376507 21.5771 0.209171 22.0605 0.153392C22.5439 0.0976129 23.1296 0.0325376 23.362 0.0139447C23.5944 -0.00464823 24.4869 -0.00464823 25.3608 0.0139447V0.0139447ZM31.0502 18.1792C31.1246 18.1792 31.1711 18.5697 31.199 19.4993C31.2268 20.5684 31.2733 20.9496 31.4407 21.433C31.5615 21.7677 31.8032 22.2883 31.9892 22.5951C32.1844 22.9019 32.5469 23.376 32.7979 23.6549C33.0582 23.9245 33.5231 24.3428 33.8484 24.5845C34.1645 24.8169 34.4527 25.0772 34.4713 25.1516C34.4992 25.226 34.5085 25.3003 34.4992 25.3096C34.4806 25.3282 33.4859 25.5792 32.2866 25.886C31.0874 26.1928 29.0794 26.7134 27.8243 27.0481C26.1882 27.4943 25.3887 27.6616 24.9889 27.6616C24.5985 27.6616 24.2917 27.5966 23.9663 27.4385C23.7153 27.3177 23.3713 27.076 23.204 26.9086C23.0459 26.732 22.8228 26.4252 22.7206 26.2207C22.609 26.0162 22.4882 25.6071 22.4324 25.3096C22.358 24.8913 22.3673 24.6961 22.4789 24.38C22.5532 24.1662 22.7299 23.8222 22.8693 23.627C23.0181 23.4225 23.362 23.0878 23.6409 22.8833C23.9198 22.6694 24.9052 22.0187 25.8256 21.4237C26.7459 20.8287 28.0474 20.0014 28.7075 19.5737C29.3675 19.1461 30.1484 18.6627 30.4273 18.486C30.7062 18.3187 30.9851 18.1792 31.0502 18.1792V18.1792Z" fill="#222835"/>
<path d="M48.0906 5.48957C48.3695 5.3966 48.8901 5.26645 49.2527 5.20137C49.6153 5.1363 50.1452 5.08052 50.4426 5.08052C50.7308 5.07122 51.2979 5.11771 51.6977 5.16419C52.0881 5.21997 52.6273 5.33153 52.8783 5.41519C53.1386 5.49886 53.6778 5.71268 54.0869 5.89861C54.4959 6.09384 55.0444 6.38203 55.2954 6.54936C55.5557 6.726 56.1228 7.21871 56.5597 7.66494C57.0617 8.16695 57.4894 8.70614 57.7125 9.11519C57.917 9.46845 58.2145 10.1006 58.3911 10.5097C58.5678 10.9187 58.7909 11.6345 58.8838 12.0901C58.9768 12.5456 59.0605 13.2056 59.0605 13.5496C59.0605 13.9029 58.9954 14.5071 58.9117 14.8976C58.8281 15.2973 58.6328 15.9388 58.4748 16.32C58.3168 16.7011 57.9728 17.3983 57.7218 17.8539C57.3871 18.4395 57.0245 18.9137 56.5039 19.4343C56.0205 19.9084 55.4906 20.3267 55.0165 20.5963C54.6075 20.8287 53.9009 21.1541 53.4361 21.3308C52.9713 21.4981 51.1585 21.9908 49.3921 22.4091C47.6258 22.8368 45.1158 23.4225 43.8143 23.7106C42.5128 23.9988 40.8952 24.3707 40.2351 24.5473C39.5751 24.724 38.6919 24.9099 38.2829 24.9564C37.8273 25.0122 37.2881 25.0122 36.8884 24.9657C36.5258 24.9192 36.0517 24.8169 35.8193 24.7333C35.5869 24.6496 35.15 24.4451 34.8432 24.287C34.5364 24.1197 33.9693 23.6735 33.5788 23.2923C33.0768 22.7996 32.7886 22.4184 32.5841 21.9908C32.4261 21.6561 32.2123 21.0333 32.11 20.5963C31.9984 20.1594 31.9148 19.5737 31.9148 19.2948C31.9148 19.0159 31.9799 18.486 32.0542 18.1328C32.1286 17.7795 32.3517 17.1473 32.5562 16.7383C32.8351 16.1805 33.0954 15.8272 33.6067 15.3252C33.9786 14.9534 34.4713 14.5164 34.7037 14.3398C34.9361 14.1632 35.8565 13.531 36.7489 12.9267C37.6414 12.3225 38.8128 11.5044 39.352 11.1139C39.8912 10.7235 41.7133 9.45916 43.3959 8.2971C45.0786 7.14434 46.7148 6.07524 47.0215 5.9265C47.3283 5.77776 47.8117 5.58253 48.0906 5.48957Z" fill="url(#paint0_linear_92_185)"/>
<path d="M51.5675 10.519C51.7627 10.2587 52.0323 9.82172 52.1625 9.56142C52.2926 9.29182 52.4414 9.06871 52.4972 9.06871C52.5529 9.06871 52.7761 9.46845 52.9899 9.95187C53.213 10.4353 53.5477 11.0117 53.7429 11.2255C53.9288 11.4393 54.3007 11.7461 54.5517 11.9041C54.812 12.0715 55.2396 12.276 55.5092 12.3597C55.7695 12.4433 55.9926 12.5363 55.9926 12.5828C56.0019 12.62 55.7323 12.7501 55.4163 12.8803C55.0909 13.0104 54.5982 13.2521 54.3193 13.4195C54.0404 13.5868 53.6313 13.9029 53.4082 14.1167C53.1851 14.3305 52.869 14.7396 52.6924 15.0184C52.5251 15.2973 52.3577 15.6413 52.3298 15.7901C52.3019 15.9295 52.2276 16.0411 52.1811 16.0411C52.1346 16.0411 51.9673 15.7157 51.8092 15.3252C51.6605 14.9255 51.3723 14.3677 51.1771 14.0888C50.9725 13.8099 50.5635 13.4009 50.266 13.1963C49.9592 12.9825 49.5409 12.7222 49.3271 12.6107C49.104 12.5084 48.9273 12.3782 48.9273 12.3225C48.9273 12.2667 49.0389 12.183 49.1876 12.1272C49.3271 12.0622 49.7082 11.8948 50.0429 11.7461C50.3776 11.588 50.7773 11.3649 50.9261 11.2348C51.0841 11.1046 51.363 10.7793 51.5675 10.519Z" fill="#F5F5F5"/>
<defs>
<linearGradient id="paint0_linear_92_185" x1="72.6336" y1="35.9555" x2="42.1074" y2="36.8799" gradientUnits="userSpaceOnUse">
<stop offset="0.145" stop-color="#ED6C02"/>
<stop offset="0.425" stop-color="#EDB902"/>
<stop offset="1" stop-color="#1E757B"/>
</linearGradient>
</defs>
</svg>
